<svg width="23" height="13" viewBox="0 0 23 13" fill="none" xmlns="http://www.w3.org/2000/svg">
<path d="M21.7094 1.70806L11.7094 11.7081C11.6165 11.801 11.5062 11.8748 11.3848 11.9251C11.2634 11.9754 11.1333 12.0013 11.0019 12.0013C10.8705 12.0013 10.7404 11.9754 10.619 11.9251C10.4976 11.8748 10.3873 11.801 10.2944 11.7081L0.294399 1.70806C0.106758 1.52042 0.00134277 1.26592 0.00134277 1.00056C0.00134277 0.735192 0.106758 0.480696 0.294399 0.293056C0.482039 0.105415 0.736535 0 1.0019 0C1.26726 0 1.52176 0.105415 1.7094 0.293056L11.0019 9.58681L20.2944 0.293056C20.3873 0.200145 20.4976 0.126445 20.619 0.0761623C20.7404 0.0258797 20.8705 0 21.0019 0C21.1333 0 21.2634 0.0258797 21.3848 0.0761623C21.5062 0.126445 21.6165 0.200145 21.7094 0.293056C21.8023 0.385966 21.876 0.496267 21.9263 0.61766C21.9766 0.739053 22.0025 0.869161 22.0025 1.00056C22.0025 1.13195 21.9766 1.26206 21.9263 1.38345C21.876 1.50485 21.8023 1.61515 21.7094 1.70806Z" fill="black"/>
</svg>
