<svg width="26" height="26" viewBox="0 0 26 26" fill="none" xmlns="http://www.w3.org/2000/svg">
<path d="M26 13C26 10.4288 25.2376 7.91543 23.8091 5.77759C22.3807 3.63975 20.3503 1.97351 17.9749 0.989572C15.5995 0.00563264 12.9856 -0.251811 10.4638 0.249797C7.94208 0.751405 5.6257 1.98953 3.80762 3.80762C1.98953 5.6257 0.751405 7.94208 0.249797 10.4638C-0.251811 12.9856 0.00563276 15.5995 0.989572 17.9749C1.97351 20.3503 3.63975 22.3807 5.77759 23.8091C7.91543 25.2376 10.4288 26 13 26C16.4467 25.9964 19.7512 24.6256 22.1884 22.1884C24.6256 19.7512 25.9964 16.4467 26 13ZM2.00001 13C2.00001 10.8244 2.64514 8.69767 3.85384 6.88873C5.06253 5.07979 6.7805 3.66989 8.79049 2.83733C10.8005 2.00477 13.0122 1.78693 15.146 2.21137C17.2798 2.63581 19.2398 3.68345 20.7782 5.22183C22.3166 6.76021 23.3642 8.72022 23.7886 10.854C24.2131 12.9878 23.9952 15.1995 23.1627 17.2095C22.3301 19.2195 20.9202 20.9375 19.1113 22.1462C17.3023 23.3549 15.1756 24 13 24C10.0836 23.9967 7.28767 22.8367 5.22548 20.7745C3.1633 18.7123 2.00331 15.9164 2.00001 13ZM13 19C12.7348 19 12.4804 18.8946 12.2929 18.7071C12.1054 18.5196 12 18.2652 12 18V10.4138L9.70751 12.7075C9.6146 12.8004 9.50429 12.8741 9.3829 12.9244C9.26151 12.9747 9.1314 13.0006 9 13.0006C8.86861 13.0006 8.7385 12.9747 8.61711 12.9244C8.49572 12.8741 8.38541 12.8004 8.2925 12.7075C8.19959 12.6146 8.12589 12.5043 8.07561 12.3829C8.02533 12.2615 7.99945 12.1314 7.99945 12C7.99945 11.8686 8.02533 11.7385 8.07561 11.6171C8.12589 11.4957 8.19959 11.3854 8.2925 11.2925L12.2925 7.29251C12.3854 7.19953 12.4957 7.12577 12.6171 7.07545C12.7385 7.02512 12.8686 6.99922 13 6.99922C13.1314 6.99922 13.2615 7.02512 13.3829 7.07545C13.5043 7.12577 13.6146 7.19953 13.7075 7.29251L17.7075 11.2925C17.8951 11.4801 18.0006 11.7346 18.0006 12C18.0006 12.2654 17.8951 12.5199 17.7075 12.7075C17.5199 12.8951 17.2654 13.0006 17 13.0006C16.7346 13.0006 16.4801 12.8951 16.2925 12.7075L14 10.4138V18C14 18.2652 13.8946 18.5196 13.7071 18.7071C13.5196 18.8946 13.2652 19 13 19Z" fill="black"/>
</svg>
