<svg width="23" height="13" viewBox="0 0 23 13" fill="none" xmlns="http://www.w3.org/2000/svg">
<path d="M21.7094 11.708C21.6165 11.801 21.5062 11.8748 21.3848 11.9251C21.2634 11.9754 21.1333 12.0013 21.0019 12.0013C20.8705 12.0013 20.7404 11.9754 20.619 11.9251C20.4976 11.8748 20.3873 11.801 20.2944 11.708L11.0019 2.41429L1.7094 11.708C1.52176 11.8957 1.26726 12.0011 1.0019 12.0011C0.736535 12.0011 0.482039 11.8957 0.294399 11.708C0.106758 11.5204 0.00134278 11.2659 0.00134277 11.0005C0.00134277 10.7352 0.106758 10.4807 0.294399 10.293L10.2944 0.293042C10.3873 0.200066 10.4976 0.126307 10.619 0.075983C10.7404 0.0256588 10.8705 -0.000244141 11.0019 -0.000244141C11.1333 -0.000244141 11.2634 0.0256588 11.3848 0.075983C11.5062 0.126307 11.6165 0.200066 11.7094 0.293042L21.7094 10.293C21.8024 10.3859 21.8761 10.4962 21.9265 10.6176C21.9768 10.739 22.0027 10.8691 22.0027 11.0005C22.0027 11.132 21.9768 11.2621 21.9265 11.3835C21.8761 11.5049 21.8024 11.6152 21.7094 11.708Z" fill="black"/>
</svg>
