<svg width="13" height="22" viewBox="0 0 13 22" fill="none" xmlns="http://www.w3.org/2000/svg">
<path d="M11.7094 20.2931C11.8023 20.386 11.876 20.4963 11.9263 20.6177C11.9766 20.7391 12.0024 20.8692 12.0024 21.0006C12.0024 21.132 11.9766 21.2621 11.9263 21.3835C11.876 21.5048 11.8023 21.6151 11.7094 21.7081C11.6165 21.801 11.5062 21.8747 11.3848 21.9249C11.2634 21.9752 11.1333 22.0011 11.0019 22.0011C10.8705 22.0011 10.7404 21.9752 10.619 21.9249C10.4976 21.8747 10.3873 21.801 10.2944 21.7081L0.294385 11.7081C0.201409 11.6152 0.12765 11.5049 0.0773258 11.3835C0.0270015 11.2621 0.00109863 11.132 0.00109863 11.0006C0.00109863 10.8691 0.0270015 10.739 0.0773258 10.6176C0.12765 10.4962 0.201409 10.3859 0.294385 10.2931L10.2944 0.293056C10.482 0.105415 10.7365 -5.23096e-09 11.0019 0C11.2672 5.23096e-09 11.5217 0.105415 11.7094 0.293056C11.897 0.480697 12.0024 0.735192 12.0024 1.00056C12.0024 1.26592 11.897 1.52042 11.7094 1.70806L2.41564 11.0006L11.7094 20.2931Z" fill="black"/>
</svg>
