<svg width="21" height="25" viewBox="0 0 21 25" fill="none" xmlns="http://www.w3.org/2000/svg">
<path d="M19.7081 14.7083L10.7081 23.7083C10.6152 23.8013 10.5049 23.875 10.3835 23.9254C10.2621 23.9757 10.132 24.0016 10.0006 24.0016C9.86914 24.0016 9.73901 23.9757 9.61762 23.9254C9.49622 23.875 9.38593 23.8013 9.29306 23.7083L0.293056 14.7083C0.105415 14.5207 0 14.2662 0 14.0008C0 13.7354 0.105415 13.4809 0.293056 13.2933C0.480697 13.1057 0.735192 13.0002 1.00056 13.0002C1.26592 13.0002 1.52042 13.1057 1.70806 13.2933L9.00056 20.587V1.00079C9.00056 0.735577 9.10591 0.481223 9.29345 0.293687C9.48099 0.10615 9.73534 0.000793457 10.0006 0.000793457C10.2658 0.000793457 10.5201 0.10615 10.7077 0.293687C10.8952 0.481223 11.0006 0.735577 11.0006 1.00079V20.587L18.2931 13.2933C18.4807 13.1057 18.7352 13.0002 19.0006 13.0002C19.2659 13.0002 19.5204 13.1057 19.7081 13.2933C19.8957 13.4809 20.0011 13.7354 20.0011 14.0008C20.0011 14.2662 19.8957 14.5207 19.7081 14.7083Z" fill="black"/>
</svg>
