<svg width="32" height="32" viewBox="0 0 32 32" fill="none" xmlns="http://www.w3.org/2000/svg">
<path fill-rule="evenodd" clip-rule="evenodd" d="M0.903589 9L2.18146 7.72213L16 21.5407L29.8185 7.72212L31.0964 9L16 24.0964L0.903589 9Z" fill="#2D3B36"/>
<path fill-rule="evenodd" clip-rule="evenodd" d="M-2.79753e-06 9C-2.73171e-06 8.76035 0.0951971 8.53052 0.264654 8.36106L1.54253 7.08319C1.8954 6.73032 2.46752 6.73032 2.8204 7.08319L16 20.2628L29.1796 7.08319C29.5325 6.73031 30.1046 6.73031 30.4575 7.08319L31.7353 8.36106C31.9048 8.53052 32 8.76035 32 9C32 9.23965 31.9048 9.46948 31.7353 9.63894L16.6389 24.7353C16.2861 25.0882 15.7139 25.0882 15.3611 24.7353L0.264653 9.63893C0.0951967 9.46948 -2.86334e-06 9.23965 -2.79753e-06 9ZM16 22.8185L16.6379 22.1807C16.4685 22.3495 16.2391 22.4443 16 22.4443C15.7603 22.4443 15.5305 22.3491 15.3611 22.1796L16 22.8185Z" fill="#2D3B36"/>
</svg>
