<svg width="27" height="26" viewBox="0 0 27 26" fill="none" xmlns="http://www.w3.org/2000/svg">
<path d="M13.0013 0C10.4302 0 7.91677 0.762437 5.77894 2.1909C3.6411 3.61935 1.97485 5.64968 0.990915 8.02512C0.00697547 10.4006 -0.250468 13.0144 0.25114 15.5362C0.752748 18.0579 1.99088 20.3743 3.80896 22.1924C5.62704 24.0105 7.94342 25.2486 10.4652 25.7502C12.9869 26.2518 15.6008 25.9944 17.9762 25.0104C20.3517 24.0265 22.382 22.3603 23.8105 20.2224C25.2389 18.0846 26.0013 15.5712 26.0013 13C25.9977 9.5533 24.6269 6.24882 22.1897 3.81163C19.7525 1.37445 16.448 0.00363977 13.0013 0ZM13.0013 24C10.8258 24 8.69902 23.3549 6.89008 22.1462C5.08113 20.9375 3.67124 19.2195 2.83867 17.2095C2.00611 15.1995 1.78827 12.9878 2.21271 10.854C2.63715 8.72022 3.6848 6.7602 5.22317 5.22183C6.76155 3.68345 8.72156 2.6358 10.8554 2.21136C12.9891 1.78692 15.2009 2.00476 17.2109 2.83733C19.2209 3.66989 20.9388 5.07979 22.1475 6.88873C23.3562 8.69767 24.0013 10.8244 24.0013 13C23.998 15.9164 22.8381 18.7123 20.7759 20.7745C18.7137 22.8367 15.9177 23.9967 13.0013 24ZM18.7088 14.2925C18.8018 14.3854 18.8755 14.4957 18.9257 14.6171C18.976 14.7385 19.0019 14.8686 19.0019 15C19.0019 15.1314 18.976 15.2615 18.9257 15.3829C18.8755 15.5043 18.8018 15.6146 18.7088 15.7075C18.6159 15.8004 18.5056 15.8741 18.3842 15.9244C18.2629 15.9747 18.1327 16.0006 18.0013 16.0006C17.87 16.0006 17.7398 15.9747 17.6185 15.9244C17.4971 15.8741 17.3868 15.8004 17.2938 15.7075L13.0013 11.4137L8.70885 15.7075C8.61594 15.8004 8.50564 15.8741 8.38424 15.9244C8.26285 15.9747 8.13274 16.0006 8.00135 16.0006C7.86995 16.0006 7.73985 15.9747 7.61845 15.9244C7.49706 15.8741 7.38676 15.8004 7.29385 15.7075C7.20094 15.6146 7.12724 15.5043 7.07695 15.3829C7.02667 15.2615 7.00079 15.1314 7.00079 15C7.00079 14.8686 7.02667 14.7385 7.07695 14.6171C7.12724 14.4957 7.20094 14.3854 7.29385 14.2925L12.2938 9.2925C12.3867 9.19952 12.497 9.12576 12.6184 9.07544C12.7398 9.02512 12.8699 8.99921 13.0013 8.99921C13.1328 8.99921 13.2629 9.02512 13.3843 9.07544C13.5057 9.12576 13.616 9.19952 13.7088 9.2925L18.7088 14.2925Z" fill="black"/>
</svg>
