<svg width="25" height="21" viewBox="0 0 25 21" fill="none" xmlns="http://www.w3.org/2000/svg">
<path d="M23.708 10.7083L14.708 19.7083C14.5204 19.8959 14.2659 20.0014 14.0005 20.0014C13.7352 20.0014 13.4807 19.8959 13.293 19.7083C13.1054 19.5207 13 19.2662 13 19.0008C13 18.7354 13.1054 18.4809 13.293 18.2933L20.5868 11.0008H1.00055C0.735333 11.0008 0.480979 10.8954 0.293443 10.7079C0.105906 10.5204 0.000549316 10.266 0.000549316 10.0008C0.000549316 9.73558 0.105906 9.48123 0.293443 9.29369C0.480979 9.10616 0.735333 9.0008 1.00055 9.0008H20.5868L13.293 1.7083C13.1054 1.52066 13 1.26616 13 1.0008C13 0.735436 13.1054 0.480941 13.293 0.2933C13.4807 0.105659 13.7352 0.000244141 14.0005 0.000244141C14.2659 0.000244141 14.5204 0.105659 14.708 0.2933L23.708 9.2933C23.801 9.38617 23.8748 9.49646 23.9251 9.61786C23.9754 9.73926 24.0013 9.86938 24.0013 10.0008C24.0013 10.1322 23.9754 10.2623 23.9251 10.3837C23.8748 10.5051 23.801 10.6154 23.708 10.7083Z" fill="black"/>
</svg>
