<svg width="32" height="32" viewBox="0 0 32 32" fill="none" xmlns="http://www.w3.org/2000/svg">
<path fill-rule="evenodd" clip-rule="evenodd" d="M31.0964 23L29.8185 24.2779L16 10.4593L2.18147 24.2779L0.903596 23L16 7.90359L31.0964 23Z" fill="#2D3B36"/>
<path fill-rule="evenodd" clip-rule="evenodd" d="M32 23C32 23.2397 31.9048 23.4695 31.7353 23.6389L30.4575 24.9168C30.1046 25.2697 29.5325 25.2697 29.1796 24.9168L16 11.7372L2.82041 24.9168C2.46753 25.2697 1.89541 25.2697 1.54253 24.9168L0.264659 23.6389C0.0952044 23.4695 4.74678e-06 23.2396 4.70488e-06 23C4.66298e-06 22.7604 0.0952042 22.5305 0.264659 22.3611L15.3611 7.26466C15.7139 6.91178 16.2861 6.91178 16.6389 7.26466L31.7353 22.3611C31.9048 22.5305 32 22.7604 32 23ZM16 9.18147L15.3621 9.81933C15.5315 9.65055 15.7609 9.55575 16 9.55575C16.2397 9.55575 16.4695 9.65095 16.6389 9.8204L16 9.18147Z" fill="#2D3B36"/>
</svg>
