<svg width="26" height="26" viewBox="0 0 26 26" fill="none" xmlns="http://www.w3.org/2000/svg">
<path d="M13 26C15.5712 26 18.0846 25.2376 20.2224 23.8091C22.3603 22.3807 24.0265 20.3503 25.0104 17.9749C25.9944 15.5995 26.2518 12.9856 25.7502 10.4638C25.2486 7.94208 24.0105 5.6257 22.1924 3.80762C20.3743 1.98953 18.0579 0.751406 15.5362 0.249797C13.0144 -0.251811 10.4006 0.00563246 8.02512 0.989572C5.64968 1.97351 3.61935 3.63975 2.1909 5.77759C0.762437 7.91543 2.24778e-07 10.4288 0 13C0.00363947 16.4467 1.37445 19.7512 3.81163 22.1884C6.24882 24.6256 9.5533 25.9964 13 26ZM13 2.00001C15.1756 2.00001 17.3023 2.64514 19.1113 3.85384C20.9202 5.06254 22.3301 6.7805 23.1627 8.79049C23.9952 10.8005 24.2131 13.0122 23.7886 15.146C23.3642 17.2798 22.3166 19.2398 20.7782 20.7782C19.2398 22.3166 17.2798 23.3642 15.146 23.7886C13.0122 24.2131 10.8005 23.9952 8.79048 23.1627C6.78049 22.3301 5.06253 20.9202 3.85383 19.1113C2.64514 17.3023 2 15.1756 2 13C2.00331 10.0836 3.1633 7.28767 5.22548 5.22548C7.28766 3.1633 10.0836 2.00331 13 2.00001ZM7 13C7 12.7348 7.10536 12.4804 7.29289 12.2929C7.48043 12.1054 7.73478 12 8 12L15.5863 12L13.2925 9.70751C13.1996 9.6146 13.1259 9.50429 13.0756 9.3829C13.0253 9.26151 12.9994 9.1314 12.9994 9C12.9994 8.86861 13.0253 8.7385 13.0756 8.61711C13.1259 8.49572 13.1996 8.38541 13.2925 8.2925C13.3854 8.19959 13.4957 8.12589 13.6171 8.07561C13.7385 8.02533 13.8686 7.99945 14 7.99945C14.1314 7.99945 14.2615 8.02533 14.3829 8.07561C14.5043 8.12589 14.6146 8.1996 14.7075 8.29251L18.7075 12.2925C18.8005 12.3854 18.8742 12.4957 18.9246 12.6171C18.9749 12.7385 19.0008 12.8686 19.0008 13C19.0008 13.1314 18.9749 13.2615 18.9246 13.3829C18.8742 13.5043 18.8005 13.6146 18.7075 13.7075L14.7075 17.7075C14.5199 17.8951 14.2654 18.0006 14 18.0006C13.7346 18.0006 13.4801 17.8951 13.2925 17.7075C13.1049 17.5199 12.9994 17.2654 12.9994 17C12.9994 16.7346 13.1049 16.4801 13.2925 16.2925L15.5863 14L8 14C7.73478 14 7.48043 13.8946 7.29289 13.7071C7.10536 13.5196 7 13.2652 7 13Z" fill="black"/>
</svg>
