<svg width="26" height="26" viewBox="0 0 26 26" fill="none" xmlns="http://www.w3.org/2000/svg">
<path d="M0 13C-3.06606e-08 15.5712 0.762437 18.0846 2.1909 20.2224C3.61935 22.3603 5.64968 24.0265 8.02512 25.0104C10.4006 25.9944 13.0144 26.2518 15.5362 25.7502C18.0579 25.2486 20.3743 24.0105 22.1924 22.1924C24.0105 20.3743 25.2486 18.0579 25.7502 15.5362C26.2518 13.0144 25.9944 10.4006 25.0104 8.02512C24.0265 5.64968 22.3603 3.61935 20.2224 2.1909C18.0846 0.762437 15.5712 3.06607e-08 13 0C9.5533 0.00363973 6.24882 1.37445 3.81163 3.81163C1.37445 6.24882 0.00363981 9.5533 0 13ZM24 13C24 15.1756 23.3549 17.3023 22.1462 19.1113C20.9375 20.9202 19.2195 22.3301 17.2095 23.1627C15.1995 23.9952 12.9878 24.2131 10.854 23.7886C8.72022 23.3642 6.7602 22.3166 5.22183 20.7782C3.68345 19.2398 2.6358 17.2798 2.21136 15.146C1.78692 13.0122 2.00476 10.8005 2.83733 8.79048C3.66989 6.78049 5.07979 5.06253 6.88873 3.85383C8.69767 2.64514 10.8244 2 13 2C15.9164 2.00331 18.7123 3.1633 20.7745 5.22548C22.8367 7.28766 23.9967 10.0836 24 13ZM13 7C13.2652 7 13.5196 7.10536 13.7071 7.29289C13.8946 7.48043 14 7.73478 14 8V15.5863L16.2925 13.2925C16.3854 13.1996 16.4957 13.1259 16.6171 13.0756C16.7385 13.0253 16.8686 12.9994 17 12.9994C17.1314 12.9994 17.2615 13.0253 17.3829 13.0756C17.5043 13.1259 17.6146 13.1996 17.7075 13.2925C17.8004 13.3854 17.8741 13.4957 17.9244 13.6171C17.9747 13.7385 18.0006 13.8686 18.0006 14C18.0006 14.1314 17.9747 14.2615 17.9244 14.3829C17.8741 14.5043 17.8004 14.6146 17.7075 14.7075L13.7075 18.7075C13.6146 18.8005 13.5043 18.8742 13.3829 18.9246C13.2615 18.9749 13.1314 19.0008 13 19.0008C12.8686 19.0008 12.7385 18.9749 12.6171 18.9246C12.4957 18.8742 12.3854 18.8005 12.2925 18.7075L8.2925 14.7075C8.10486 14.5199 7.99944 14.2654 7.99944 14C7.99944 13.7346 8.10486 13.4801 8.2925 13.2925C8.48014 13.1049 8.73464 12.9994 9 12.9994C9.26536 12.9994 9.51986 13.1049 9.7075 13.2925L12 15.5863V8C12 7.73478 12.1054 7.48043 12.2929 7.29289C12.4804 7.10536 12.7348 7 13 7Z" fill="black"/>
</svg>
