<svg width="27" height="26" viewBox="0 0 27 26" fill="none" xmlns="http://www.w3.org/2000/svg">
<path d="M13.0013 0C10.4302 0 7.91677 0.762437 5.77894 2.1909C3.6411 3.61935 1.97485 5.64968 0.990915 8.02512C0.00697547 10.4006 -0.250468 13.0144 0.25114 15.5362C0.752748 18.0579 1.99088 20.3743 3.80896 22.1924C5.62704 24.0105 7.94342 25.2486 10.4652 25.7502C12.9869 26.2518 15.6008 25.9944 17.9762 25.0104C20.3517 24.0265 22.382 22.3603 23.8105 20.2224C25.2389 18.0846 26.0013 15.5712 26.0013 13C25.9977 9.5533 24.6269 6.24882 22.1897 3.81163C19.7525 1.37445 16.448 0.00363977 13.0013 0ZM13.0013 24C10.8258 24 8.69902 23.3549 6.89008 22.1462C5.08113 20.9375 3.67124 19.2195 2.83867 17.2095C2.00611 15.1995 1.78827 12.9878 2.21271 10.854C2.63715 8.72022 3.6848 6.7602 5.22317 5.22183C6.76155 3.68345 8.72156 2.6358 10.8554 2.21136C12.9891 1.78692 15.2009 2.00476 17.2109 2.83733C19.2209 3.66989 20.9388 5.07979 22.1475 6.88873C23.3562 8.69767 24.0013 10.8244 24.0013 13C23.998 15.9164 22.8381 18.7123 20.7759 20.7745C18.7137 22.8367 15.9177 23.9967 13.0013 24ZM15.7088 8.7075L11.4151 13L15.7088 17.2925C15.8018 17.3854 15.8755 17.4957 15.9257 17.6171C15.976 17.7385 16.0019 17.8686 16.0019 18C16.0019 18.1314 15.976 18.2615 15.9257 18.3829C15.8755 18.5043 15.8018 18.6146 15.7088 18.7075C15.6159 18.8004 15.5056 18.8741 15.3842 18.9244C15.2629 18.9747 15.1327 19.0006 15.0013 19.0006C14.87 19.0006 14.7398 18.9747 14.6185 18.9244C14.4971 18.8741 14.3868 18.8004 14.2938 18.7075L9.29385 13.7075C9.20087 13.6146 9.12711 13.5043 9.07679 13.3829C9.02646 13.2615 9.00056 13.1314 9.00056 13C9.00056 12.8686 9.02646 12.7385 9.07679 12.6171C9.12711 12.4957 9.20087 12.3854 9.29385 12.2925L14.2938 7.2925C14.3868 7.19959 14.4971 7.12589 14.6185 7.07561C14.7398 7.02532 14.87 6.99944 15.0013 6.99944C15.1327 6.99944 15.2629 7.02532 15.3842 7.07561C15.5056 7.12589 15.6159 7.19959 15.7088 7.2925C15.8018 7.38541 15.8755 7.49571 15.9257 7.6171C15.976 7.7385 16.0019 7.86861 16.0019 8C16.0019 8.1314 15.976 8.2615 15.9257 8.3829C15.8755 8.50429 15.8018 8.61459 15.7088 8.7075Z" fill="black"/>
</svg>
