<svg width="27" height="26" viewBox="0 0 27 26" fill="none" xmlns="http://www.w3.org/2000/svg">
<path d="M13.0013 0C10.4302 0 7.91677 0.762437 5.77894 2.1909C3.6411 3.61935 1.97485 5.64968 0.990915 8.02512C0.00697547 10.4006 -0.250468 13.0144 0.25114 15.5362C0.752748 18.0579 1.99088 20.3743 3.80896 22.1924C5.62704 24.0105 7.94342 25.2486 10.4652 25.7502C12.9869 26.2518 15.6008 25.9944 17.9762 25.0104C20.3517 24.0265 22.382 22.3603 23.8105 20.2224C25.2389 18.0846 26.0013 15.5712 26.0013 13C25.9977 9.5533 24.6269 6.24882 22.1897 3.81163C19.7525 1.37445 16.448 0.00363977 13.0013 0ZM13.0013 24C10.8258 24 8.69902 23.3549 6.89008 22.1462C5.08113 20.9375 3.67124 19.2195 2.83867 17.2095C2.00611 15.1995 1.78827 12.9878 2.21271 10.854C2.63715 8.72022 3.6848 6.7602 5.22317 5.22183C6.76155 3.68345 8.72156 2.6358 10.8554 2.21136C12.9891 1.78692 15.2009 2.00476 17.2109 2.83733C19.2209 3.66989 20.9388 5.07979 22.1475 6.88873C23.3562 8.69767 24.0013 10.8244 24.0013 13C23.998 15.9164 22.8381 18.7123 20.7759 20.7745C18.7137 22.8367 15.9177 23.9967 13.0013 24ZM16.7088 12.2925C16.8018 12.3854 16.8756 12.4957 16.9259 12.6171C16.9762 12.7385 17.0021 12.8686 17.0021 13C17.0021 13.1314 16.9762 13.2615 16.9259 13.3829C16.8756 13.5043 16.8018 13.6146 16.7088 13.7075L11.7088 18.7075C11.6159 18.8004 11.5056 18.8741 11.3842 18.9244C11.2629 18.9747 11.1327 19.0006 11.0013 19.0006C10.87 19.0006 10.7398 18.9747 10.6185 18.9244C10.4971 18.8741 10.3868 18.8004 10.2938 18.7075C10.2009 18.6146 10.1272 18.5043 10.077 18.3829C10.0267 18.2615 10.0008 18.1314 10.0008 18C10.0008 17.8686 10.0267 17.7385 10.077 17.6171C10.1272 17.4957 10.2009 17.3854 10.2938 17.2925L14.5876 13L10.2938 8.7075C10.1062 8.51986 10.0008 8.26536 10.0008 8C10.0008 7.73464 10.1062 7.48014 10.2938 7.2925C10.4815 7.10486 10.736 6.99944 11.0013 6.99944C11.2667 6.99944 11.5212 7.10486 11.7088 7.2925L16.7088 12.2925Z" fill="black"/>
</svg>
