<svg width="24" height="21" viewBox="0 0 24 21" fill="none" xmlns="http://www.w3.org/2000/svg">
<path d="M24.0005 10.0008C24.0005 10.266 23.8952 10.5204 23.7076 10.7079C23.5201 10.8954 23.2658 11.0008 23.0005 11.0008H3.41429L10.708 18.2933C10.801 18.3862 10.8747 18.4965 10.9249 18.6179C10.9752 18.7393 11.0011 18.8694 11.0011 19.0008C11.0011 19.1322 10.9752 19.2623 10.9249 19.3837C10.8747 19.5051 10.801 19.6154 10.708 19.7083C10.6151 19.8012 10.5048 19.8749 10.3834 19.9252C10.262 19.9755 10.1319 20.0014 10.0005 20.0014C9.86915 20.0014 9.73904 19.9755 9.61765 19.9252C9.49625 19.8749 9.38595 19.8012 9.29304 19.7083L0.293042 10.7083C0.200066 10.6154 0.126307 10.5051 0.0759828 10.3837C0.0256585 10.2623 -0.000244141 10.1322 -0.000244141 10.0008C-0.000244141 9.86938 0.0256585 9.73926 0.0759828 9.61786C0.126307 9.49646 0.200066 9.38617 0.293042 9.2933L9.29304 0.2933C9.48068 0.105659 9.73518 0.000244139 10.0005 0.000244141C10.2659 0.000244143 10.5204 0.105659 10.708 0.2933C10.8957 0.480941 11.0011 0.735436 11.0011 1.0008C11.0011 1.26616 10.8957 1.52066 10.708 1.7083L3.41429 9.0008H23.0005C23.2658 9.0008 23.5201 9.10616 23.7076 9.29369C23.8952 9.48123 24.0005 9.73558 24.0005 10.0008Z" fill="black"/>
</svg>
