<svg width="13" height="22" viewBox="0 0 13 22" fill="none" xmlns="http://www.w3.org/2000/svg">
<path d="M11.7094 11.7081L1.7094 21.7081C1.61649 21.801 1.50619 21.8747 1.3848 21.9249C1.2634 21.9752 1.13329 22.0011 1.0019 22.0011C0.870504 22.0011 0.740395 21.9752 0.619002 21.9249C0.497609 21.8747 0.387309 21.801 0.294398 21.7081C0.201488 21.6151 0.127788 21.5048 0.0775051 21.3835C0.0272225 21.2621 0.00134277 21.132 0.00134277 21.0006C0.00134277 20.8692 0.0272225 20.7391 0.0775051 20.6177C0.127788 20.4963 0.201488 20.386 0.294398 20.2931L9.58815 11.0006L0.294398 1.70806C0.106758 1.52042 0.00134277 1.26592 0.00134277 1.00056C0.00134278 0.735192 0.106758 0.480697 0.294398 0.293056C0.482039 0.105415 0.736535 1.97712e-09 1.0019 0C1.26726 -1.97712e-09 1.52176 0.105415 1.7094 0.293056L11.7094 10.2931C11.8024 10.3859 11.8761 10.4962 11.9265 10.6176C11.9768 10.739 12.0027 10.8691 12.0027 11.0006C12.0027 11.132 11.9768 11.2621 11.9265 11.3835C11.8761 11.5049 11.8024 11.6152 11.7094 11.7081Z" fill="black"/>
</svg>
