<svg width="32" height="32" viewBox="0 0 32 32" fill="none" xmlns="http://www.w3.org/2000/svg">
<path fill-rule="evenodd" clip-rule="evenodd" d="M23 0.903592L24.2779 2.18146L10.4593 16L24.2779 29.8185L23 31.0964L7.90359 16L23 0.903592Z" fill="#2D3B36"/>
<path fill-rule="evenodd" clip-rule="evenodd" d="M23 0C23.2397 1.07717e-07 23.4695 0.0951999 23.6389 0.264656L24.9168 1.54253C25.2697 1.8954 25.2697 2.46753 24.9168 2.8204L11.7372 16L24.9168 29.1796C25.2697 29.5325 25.2697 30.1046 24.9168 30.4575L23.6389 31.7353C23.4695 31.9048 23.2396 32 23 32C22.7603 32 22.5305 31.9048 22.3611 31.7353L7.26466 16.6389C6.91178 16.2861 6.91178 15.7139 7.26466 15.3611L22.3611 0.264656C22.5305 0.0951994 22.7604 -1.07717e-07 23 0ZM9.18146 16L9.81933 16.6379C9.65054 16.4685 9.55574 16.2391 9.55574 16C9.55574 15.7604 9.65094 15.5305 9.8204 15.3611L9.18146 16Z" fill="#2D3B36"/>
</svg>
