<svg width="32" height="32" viewBox="0 0 32 32" fill="none" xmlns="http://www.w3.org/2000/svg">
<path fill-rule="evenodd" clip-rule="evenodd" d="M9 31.0964L7.72213 29.8185L21.5407 16L7.72212 2.18147L9 0.903596L24.0964 16L9 31.0964Z" fill="#2D3B36"/>
<path fill-rule="evenodd" clip-rule="evenodd" d="M9 32C8.76035 32 8.53052 31.9048 8.36106 31.7353L7.08319 30.4575C6.73032 30.1046 6.73032 29.5325 7.08319 29.1796L20.2628 16L7.08319 2.82041C6.73031 2.46753 6.73031 1.89541 7.08319 1.54253L8.36106 0.264659C8.53052 0.0952044 8.76035 4.74678e-06 9 4.70488e-06C9.23965 4.66298e-06 9.46948 0.0952042 9.63894 0.264659L24.7353 15.3611C25.0882 15.7139 25.0882 16.2861 24.7353 16.6389L9.63893 31.7353C9.46948 31.9048 9.23965 32 9 32ZM22.8185 16L22.1807 15.3621C22.3495 15.5315 22.4443 15.7609 22.4443 16C22.4443 16.2397 22.3491 16.4695 22.1796 16.6389L22.8185 16Z" fill="#2D3B36"/>
</svg>
