<svg width="27" height="26" viewBox="0 0 27 26" fill="none" xmlns="http://www.w3.org/2000/svg">
<path d="M13.0013 0C10.4302 0 7.91677 0.762437 5.77894 2.1909C3.6411 3.61935 1.97485 5.64968 0.990915 8.02512C0.00697547 10.4006 -0.250468 13.0144 0.25114 15.5362C0.752748 18.0579 1.99088 20.3743 3.80896 22.1924C5.62704 24.0105 7.94342 25.2486 10.4652 25.7502C12.9869 26.2518 15.6008 25.9944 17.9762 25.0104C20.3517 24.0265 22.382 22.3603 23.8105 20.2224C25.2389 18.0846 26.0013 15.5712 26.0013 13C25.9977 9.5533 24.6269 6.24882 22.1897 3.81163C19.7525 1.37445 16.448 0.00363977 13.0013 0ZM13.0013 24C10.8258 24 8.69902 23.3549 6.89008 22.1462C5.08113 20.9375 3.67124 19.2195 2.83867 17.2095C2.00611 15.1995 1.78827 12.9878 2.21271 10.854C2.63715 8.72022 3.6848 6.7602 5.22317 5.22183C6.76155 3.68345 8.72156 2.6358 10.8554 2.21136C12.9891 1.78692 15.2009 2.00476 17.2109 2.83733C19.2209 3.66989 20.9388 5.07979 22.1475 6.88873C23.3562 8.69767 24.0013 10.8244 24.0013 13C23.998 15.9164 22.8381 18.7123 20.7759 20.7745C18.7137 22.8367 15.9177 23.9967 13.0013 24ZM18.7088 10.2925C18.8018 10.3854 18.8756 10.4957 18.9259 10.6171C18.9762 10.7385 19.0021 10.8686 19.0021 11C19.0021 11.1314 18.9762 11.2615 18.9259 11.3829C18.8756 11.5043 18.8018 11.6146 18.7088 11.7075L13.7088 16.7075C13.616 16.8005 13.5057 16.8742 13.3843 16.9246C13.2629 16.9749 13.1328 17.0008 13.0013 17.0008C12.8699 17.0008 12.7398 16.9749 12.6184 16.9246C12.497 16.8742 12.3867 16.8005 12.2938 16.7075L7.29385 11.7075C7.10621 11.5199 7.00079 11.2654 7.00079 11C7.00079 10.7346 7.10621 10.4801 7.29385 10.2925C7.48149 10.1049 7.73598 9.99944 8.00135 9.99944C8.26671 9.99944 8.52121 10.1049 8.70885 10.2925L13.0013 14.5863L17.2938 10.2925C17.3867 10.1995 17.497 10.1258 17.6184 10.0754C17.7398 10.0251 17.8699 9.99921 18.0013 9.99921C18.1328 9.99921 18.2629 10.0251 18.3843 10.0754C18.5057 10.1258 18.616 10.1995 18.7088 10.2925Z" fill="black"/>
</svg>
