<svg width="33" height="32" viewBox="0 0 33 32" fill="none" xmlns="http://www.w3.org/2000/svg">
<path d="M28.0038 6H4.00378C3.73857 6 3.48421 6.10536 3.29668 6.29289C3.10914 6.48043 3.00378 6.73478 3.00378 7V24C3.00378 24.5304 3.2145 25.0391 3.58957 25.4142C3.96464 25.7893 4.47335 26 5.00378 26H27.0038C27.5342 26 28.0429 25.7893 28.418 25.4142C28.7931 25.0391 29.0038 24.5304 29.0038 24V7C29.0038 6.73478 28.8984 6.48043 28.7109 6.29289C28.5234 6.10536 28.269 6 28.0038 6ZM25.4325 8L16.0038 16.6437L6.57503 8H25.4325ZM27.0038 24H5.00378V9.27375L15.3275 18.7375C15.512 18.9069 15.7533 19.0008 16.0038 19.0008C16.2542 19.0008 16.4955 18.9069 16.68 18.7375L27.0038 9.27375V24Z" fill="black"/>
</svg>
