<svg width="33" height="32" viewBox="0 0 33 32" fill="none" xmlns="http://www.w3.org/2000/svg">
<path d="M22.0038 2H10.0038C9.20813 2 8.44507 2.31607 7.88246 2.87868C7.31985 3.44129 7.00378 4.20435 7.00378 5V27C7.00378 27.7956 7.31985 28.5587 7.88246 29.1213C8.44507 29.6839 9.20813 30 10.0038 30H22.0038C22.7994 30 23.5625 29.6839 24.1251 29.1213C24.6877 28.5587 25.0038 27.7956 25.0038 27V5C25.0038 4.20435 24.6877 3.44129 24.1251 2.87868C23.5625 2.31607 22.7994 2 22.0038 2ZM23.0038 27C23.0038 27.2652 22.8984 27.5196 22.7109 27.7071C22.5234 27.8946 22.269 28 22.0038 28H10.0038C9.73857 28 9.48421 27.8946 9.29668 27.7071C9.10914 27.5196 9.00378 27.2652 9.00378 27V5C9.00378 4.73478 9.10914 4.48043 9.29668 4.29289C9.48421 4.10536 9.73857 4 10.0038 4H22.0038C22.269 4 22.5234 4.10536 22.7109 4.29289C22.8984 4.48043 23.0038 4.73478 23.0038 5V27ZM21.0038 7C21.0038 7.26522 20.8984 7.51957 20.7109 7.70711C20.5234 7.89464 20.269 8 20.0038 8H12.0038C11.7386 8 11.4842 7.89464 11.2967 7.70711C11.1091 7.51957 11.0038 7.26522 11.0038 7C11.0038 6.73478 11.1091 6.48043 11.2967 6.29289C11.4842 6.10536 11.7386 6 12.0038 6H20.0038C20.269 6 20.5234 6.10536 20.7109 6.29289C20.8984 6.48043 21.0038 6.73478 21.0038 7Z" fill="black"/>
</svg>
