<svg width="33" height="32" viewBox="0 0 33 32" fill="none" xmlns="http://www.w3.org/2000/svg">
<path d="M16.0038 8C15.0149 8 14.0482 8.29325 13.2259 8.84265C12.4037 9.39206 11.7628 10.173 11.3844 11.0866C11.0059 12.0002 10.9069 13.0055 11.0999 13.9755C11.2928 14.9454 11.769 15.8363 12.4683 16.5355C13.1675 17.2348 14.0584 17.711 15.0283 17.9039C15.9982 18.0969 17.0036 17.9978 17.9172 17.6194C18.8308 17.241 19.6117 16.6001 20.1611 15.7779C20.7105 14.9556 21.0038 13.9889 21.0038 13C21.0038 11.6739 20.477 10.4021 19.5393 9.46447C18.6016 8.52678 17.3299 8 16.0038 8ZM16.0038 16C15.4104 16 14.8304 15.8241 14.3371 15.4944C13.8437 15.1648 13.4592 14.6962 13.2321 14.1481C13.0051 13.5999 12.9457 12.9967 13.0614 12.4147C13.1772 11.8328 13.4629 11.2982 13.8825 10.8787C14.302 10.4591 14.8366 10.1734 15.4185 10.0576C16.0005 9.94189 16.6037 10.0013 17.1518 10.2284C17.7 10.4554 18.1685 10.8399 18.4982 11.3333C18.8278 11.8266 19.0038 12.4067 19.0038 13C19.0038 13.7956 18.6877 14.5587 18.1251 15.1213C17.5625 15.6839 16.7994 16 16.0038 16ZM16.0038 2C13.0874 2.00331 10.2914 3.1633 8.22926 5.22548C6.16708 7.28766 5.00709 10.0836 5.00378 13C5.00378 16.925 6.81753 21.085 10.2538 25.0312C11.7978 26.8145 13.5356 28.4202 15.435 29.8188C15.6032 29.9365 15.8035 29.9997 16.0088 29.9997C16.2141 29.9997 16.4144 29.9365 16.5825 29.8188C18.4785 28.4196 20.2129 26.8139 21.7538 25.0312C25.185 21.085 27.0038 16.925 27.0038 13C27.0005 10.0836 25.8405 7.28766 23.7783 5.22548C21.7161 3.1633 18.9201 2.00331 16.0038 2ZM16.0038 27.75C13.9375 26.125 7.00378 20.1562 7.00378 13C7.00378 10.6131 7.952 8.32387 9.63982 6.63604C11.3277 4.94821 13.6168 4 16.0038 4C18.3907 4 20.6799 4.94821 22.3677 6.63604C24.0556 8.32387 25.0038 10.6131 25.0038 13C25.0038 20.1537 18.07 26.125 16.0038 27.75Z" fill="black"/>
</svg>
