<svg width="16" height="16" viewBox="0 0 16 16" fill="none" xmlns="http://www.w3.org/2000/svg">
<path d="M7.50379 1.90625C6.29856 1.90625 5.12039 2.26364 4.11828 2.93323C3.11617 3.60282 2.33512 4.55454 1.8739 5.66802C1.41267 6.78151 1.292 8.00676 1.52713 9.18883C1.76226 10.3709 2.34263 11.4567 3.19485 12.3089C4.04708 13.1612 5.13288 13.7415 6.31496 13.9767C7.49703 14.2118 8.72228 14.0911 9.83576 13.6299C10.9493 13.1687 11.901 12.3876 12.5706 11.3855C13.2401 10.3834 13.5975 9.20523 13.5975 8C13.5958 6.38436 12.9533 4.83538 11.8108 3.69295C10.6684 2.55052 9.11943 1.90796 7.50379 1.90625ZM7.50379 13.1562C6.48398 13.1562 5.48707 12.8538 4.63913 12.2873C3.79119 11.7207 3.1303 10.9154 2.74003 9.97321C2.34977 9.03103 2.24766 7.99428 2.44661 6.99407C2.64557 5.99385 3.13665 5.0751 3.85777 4.35398C4.57888 3.63287 5.49764 3.14178 6.49785 2.94283C7.49807 2.74387 8.53482 2.84598 9.477 3.23625C10.4192 3.62651 11.2245 4.2874 11.7911 5.13534C12.3576 5.98328 12.66 6.98019 12.66 8C12.6585 9.36705 12.1147 10.6777 11.1481 11.6443C10.1814 12.611 8.87083 13.1547 7.50379 13.1562ZM7.03504 8.46875V5.1875C7.03504 5.06318 7.08442 4.94395 7.17233 4.85604C7.26024 4.76814 7.37947 4.71875 7.50379 4.71875C7.62811 4.71875 7.74734 4.76814 7.83524 4.85604C7.92315 4.94395 7.97254 5.06318 7.97254 5.1875V8.46875C7.97254 8.59307 7.92315 8.7123 7.83524 8.80021C7.74734 8.88811 7.62811 8.9375 7.50379 8.9375C7.37947 8.9375 7.26024 8.88811 7.17233 8.80021C7.08442 8.7123 7.03504 8.59307 7.03504 8.46875ZM8.20691 10.5781C8.20691 10.7172 8.16567 10.8531 8.08841 10.9688C8.01115 11.0844 7.90134 11.1745 7.77286 11.2277C7.64438 11.2809 7.50301 11.2949 7.36661 11.2677C7.23022 11.2406 7.10494 11.1736 7.0066 11.0753C6.90827 10.977 6.8413 10.8517 6.81417 10.7153C6.78704 10.5789 6.80097 10.4375 6.85418 10.3091C6.9074 10.1806 6.99752 10.0708 7.11315 9.9935C7.22878 9.91624 7.36472 9.875 7.50379 9.875C7.69027 9.875 7.86911 9.94908 8.00097 10.0809C8.13283 10.2128 8.20691 10.3916 8.20691 10.5781Z" fill="black"/>
</svg>
