<svg width="33" height="32" viewBox="0 0 33 32" fill="none" xmlns="http://www.w3.org/2000/svg">
<path d="M16.0038 3C13.4326 3 10.9192 3.76244 8.78138 5.1909C6.64354 6.61935 4.9773 8.64968 3.99336 11.0251C3.00942 13.4006 2.75197 16.0144 3.25358 18.5362C3.75519 21.0579 4.99332 23.3743 6.8114 25.1924C8.62948 27.0105 10.9459 28.2486 13.4676 28.7502C15.9894 29.2518 18.6032 28.9944 20.9787 28.0104C23.3541 27.0265 25.3844 25.3603 26.8129 23.2224C28.2414 21.0846 29.0038 18.5712 29.0038 16C29.0002 12.5533 27.6293 9.24882 25.1922 6.81163C22.755 4.37445 19.4505 3.00364 16.0038 3ZM16.0038 27C13.8282 27 11.7015 26.3549 9.89252 25.1462C8.08358 23.9375 6.67368 22.2195 5.84111 20.2095C5.00855 18.1995 4.79071 15.9878 5.21515 13.854C5.63959 11.7202 6.68724 9.7602 8.22562 8.22183C9.76399 6.68345 11.724 5.6358 13.8578 5.21136C15.9916 4.78692 18.2033 5.00476 20.2133 5.83733C22.2233 6.66989 23.9413 8.07979 25.15 9.88873C26.3587 11.6977 27.0038 13.8244 27.0038 16C27.0005 18.9164 25.8405 21.7123 23.7783 23.7745C21.7161 25.8367 18.9202 26.9967 16.0038 27ZM15.0038 17V10C15.0038 9.73478 15.1091 9.48043 15.2967 9.29289C15.4842 9.10536 15.7386 9 16.0038 9C16.269 9 16.5234 9.10536 16.7109 9.29289C16.8984 9.48043 17.0038 9.73478 17.0038 10V17C17.0038 17.2652 16.8984 17.5196 16.7109 17.7071C16.5234 17.8946 16.269 18 16.0038 18C15.7386 18 15.4842 17.8946 15.2967 17.7071C15.1091 17.5196 15.0038 17.2652 15.0038 17ZM17.5038 21.5C17.5038 21.7967 17.4158 22.0867 17.251 22.3334C17.0862 22.58 16.8519 22.7723 16.5778 22.8858C16.3037 22.9993 16.0021 23.0291 15.7112 22.9712C15.4202 22.9133 15.1529 22.7704 14.9431 22.5607C14.7334 22.3509 14.5905 22.0836 14.5326 21.7926C14.4747 21.5017 14.5044 21.2001 14.618 20.926C14.7315 20.6519 14.9238 20.4176 15.1704 20.2528C15.4171 20.088 15.7071 20 16.0038 20C16.4016 20 16.7831 20.158 17.0644 20.4393C17.3458 20.7206 17.5038 21.1022 17.5038 21.5Z" fill="black"/>
</svg>
