<svg width="21" height="20" viewBox="0 0 21 20" fill="none" xmlns="http://www.w3.org/2000/svg">
<path d="M10.0038 1.875C8.39681 1.875 6.82593 2.35152 5.48978 3.24431C4.15363 4.1371 3.11223 5.40605 2.49727 6.8907C1.8823 8.37535 1.7214 10.009 2.03491 11.5851C2.34841 13.1612 3.12224 14.6089 4.25855 15.7452C5.39485 16.8815 6.84258 17.6554 8.41868 17.9689C9.99477 18.2824 11.6284 18.1215 13.1131 17.5065C14.5977 16.8916 15.8667 15.8502 16.7595 14.514C17.6523 13.1779 18.1288 11.607 18.1288 10C18.1265 7.84581 17.2698 5.78051 15.7465 4.25727C14.2233 2.73403 12.158 1.87727 10.0038 1.875ZM10.0038 16.875C8.64404 16.875 7.31483 16.4718 6.18424 15.7164C5.05365 14.9609 4.17247 13.8872 3.65212 12.6309C3.13176 11.3747 2.99562 9.99237 3.26089 8.65875C3.52616 7.32513 4.18094 6.10013 5.14243 5.13864C6.10391 4.17716 7.32892 3.52237 8.66254 3.2571C9.99616 2.99183 11.3785 3.12798 12.6347 3.64833C13.891 4.16868 14.9647 5.04987 15.7201 6.18045C16.4756 7.31104 16.8788 8.64025 16.8788 10C16.8767 11.8227 16.1517 13.5702 14.8629 14.8591C13.574 16.1479 11.8265 16.8729 10.0038 16.875ZM9.37879 10.625V6.25C9.37879 6.08424 9.44464 5.92527 9.56185 5.80806C9.67906 5.69085 9.83803 5.625 10.0038 5.625C10.1695 5.625 10.3285 5.69085 10.4457 5.80806C10.5629 5.92527 10.6288 6.08424 10.6288 6.25V10.625C10.6288 10.7908 10.5629 10.9497 10.4457 11.0669C10.3285 11.1842 10.1695 11.25 10.0038 11.25C9.83803 11.25 9.67906 11.1842 9.56185 11.0669C9.44464 10.9497 9.37879 10.7908 9.37879 10.625ZM10.9413 13.4375C10.9413 13.6229 10.8863 13.8042 10.7833 13.9583C10.6803 14.1125 10.5339 14.2327 10.3626 14.3036C10.1912 14.3746 10.0027 14.3932 9.82089 14.357C9.63903 14.3208 9.47199 14.2315 9.34088 14.1004C9.20976 13.9693 9.12048 13.8023 9.0843 13.6204C9.04813 13.4385 9.06669 13.25 9.13765 13.0787C9.20861 12.9074 9.32877 12.761 9.48294 12.658C9.63711 12.555 9.81837 12.5 10.0038 12.5C10.2524 12.5 10.4909 12.5988 10.6667 12.7746C10.8425 12.9504 10.9413 13.1889 10.9413 13.4375Z" fill="black"/>
</svg>
