<svg width="16" height="16" viewBox="0 0 16 16" fill="none" xmlns="http://www.w3.org/2000/svg">
<path d="M12.1913 2.375H10.785V1.90625C10.785 1.78193 10.7356 1.6627 10.6477 1.57479C10.5598 1.48689 10.4406 1.4375 10.3163 1.4375C10.192 1.4375 10.0727 1.48689 9.98483 1.57479C9.89692 1.6627 9.84753 1.78193 9.84753 1.90625V2.375H5.16003V1.90625C5.16003 1.78193 5.11065 1.6627 5.02274 1.57479C4.93483 1.48689 4.8156 1.4375 4.69128 1.4375C4.56696 1.4375 4.44774 1.48689 4.35983 1.57479C4.27192 1.6627 4.22253 1.78193 4.22253 1.90625V2.375H2.81628C2.56764 2.375 2.32919 2.47377 2.15337 2.64959C1.97756 2.8254 1.87878 3.06386 1.87878 3.3125V12.6875C1.87878 12.9361 1.97756 13.1746 2.15337 13.3504C2.32919 13.5262 2.56764 13.625 2.81628 13.625H12.1913C12.4399 13.625 12.6784 13.5262 12.8542 13.3504C13.03 13.1746 13.1288 12.9361 13.1288 12.6875V3.3125C13.1288 3.06386 13.03 2.8254 12.8542 2.64959C12.6784 2.47377 12.4399 2.375 12.1913 2.375ZM4.22253 3.3125V3.78125C4.22253 3.90557 4.27192 4.0248 4.35983 4.11271C4.44774 4.20061 4.56696 4.25 4.69128 4.25C4.8156 4.25 4.93483 4.20061 5.02274 4.11271C5.11065 4.0248 5.16003 3.90557 5.16003 3.78125V3.3125H9.84753V3.78125C9.84753 3.90557 9.89692 4.0248 9.98483 4.11271C10.0727 4.20061 10.192 4.25 10.3163 4.25C10.4406 4.25 10.5598 4.20061 10.6477 4.11271C10.7356 4.0248 10.785 3.90557 10.785 3.78125V3.3125H12.1913V5.1875H2.81628V3.3125H4.22253ZM12.1913 12.6875H2.81628V6.125H12.1913V12.6875ZM9.9448 7.66836C9.98838 7.71189 10.023 7.76359 10.0465 7.8205C10.0701 7.8774 10.0823 7.9384 10.0823 8C10.0823 8.0616 10.0701 8.1226 10.0465 8.1795C10.023 8.23641 9.98838 8.28811 9.9448 8.33164L7.1323 11.1441C7.08877 11.1877 7.03707 11.2223 6.98016 11.2459C6.92326 11.2695 6.86226 11.2816 6.80066 11.2816C6.73906 11.2816 6.67806 11.2695 6.62116 11.2459C6.56425 11.2223 6.51255 11.1877 6.46902 11.1441L5.06277 9.73789C4.97481 9.64993 4.9254 9.53064 4.9254 9.40625C4.9254 9.28186 4.97481 9.16257 5.06277 9.07461C5.15072 8.98665 5.27002 8.93724 5.39441 8.93724C5.5188 8.93724 5.63809 8.98665 5.72605 9.07461L6.80066 10.1498L9.28152 7.66836C9.32505 7.62478 9.37675 7.5902 9.43366 7.56661C9.49056 7.54302 9.55156 7.53088 9.61316 7.53088C9.67476 7.53088 9.73576 7.54302 9.79266 7.56661C9.84957 7.5902 9.90127 7.62478 9.9448 7.66836Z" fill="black"/>
</svg>
