<svg width="33" height="32" viewBox="0 0 33 32" fill="none" xmlns="http://www.w3.org/2000/svg">
<path d="M26.0038 4H23.0038V3C23.0038 2.73478 22.8984 2.48043 22.7109 2.29289C22.5234 2.10536 22.269 2 22.0038 2C21.7386 2 21.4842 2.10536 21.2967 2.29289C21.1091 2.48043 21.0038 2.73478 21.0038 3V4H11.0038V3C11.0038 2.73478 10.8984 2.48043 10.7109 2.29289C10.5234 2.10536 10.269 2 10.0038 2C9.73857 2 9.48421 2.10536 9.29668 2.29289C9.10914 2.48043 9.00378 2.73478 9.00378 3V4H6.00378C5.47335 4 4.96464 4.21071 4.58957 4.58579C4.2145 4.96086 4.00378 5.46957 4.00378 6V26C4.00378 26.5304 4.2145 27.0391 4.58957 27.4142C4.96464 27.7893 5.47335 28 6.00378 28H26.0038C26.5342 28 27.0429 27.7893 27.418 27.4142C27.7931 27.0391 28.0038 26.5304 28.0038 26V6C28.0038 5.46957 27.7931 4.96086 27.418 4.58579C27.0429 4.21071 26.5342 4 26.0038 4ZM9.00378 6V7C9.00378 7.26522 9.10914 7.51957 9.29668 7.70711C9.48421 7.89464 9.73857 8 10.0038 8C10.269 8 10.5234 7.89464 10.7109 7.70711C10.8984 7.51957 11.0038 7.26522 11.0038 7V6H21.0038V7C21.0038 7.26522 21.1091 7.51957 21.2967 7.70711C21.4842 7.89464 21.7386 8 22.0038 8C22.269 8 22.5234 7.89464 22.7109 7.70711C22.8984 7.51957 23.0038 7.26522 23.0038 7V6H26.0038V10H6.00378V6H9.00378ZM26.0038 26H6.00378V12H26.0038V26ZM21.2113 15.2925C21.3043 15.3854 21.378 15.4957 21.4283 15.6171C21.4787 15.7385 21.5046 15.8686 21.5046 16C21.5046 16.1314 21.4787 16.2615 21.4283 16.3829C21.378 16.5043 21.3043 16.6146 21.2113 16.7075L15.2113 22.7075C15.1184 22.8005 15.0081 22.8742 14.8867 22.9246C14.7653 22.9749 14.6352 23.0008 14.5038 23.0008C14.3724 23.0008 14.2422 22.9749 14.1208 22.9246C13.9994 22.8742 13.8892 22.8005 13.7963 22.7075L10.7963 19.7075C10.6086 19.5199 10.5032 19.2654 10.5032 19C10.5032 18.7346 10.6086 18.4801 10.7963 18.2925C10.9839 18.1049 11.2384 17.9994 11.5038 17.9994C11.7691 17.9994 12.0236 18.1049 12.2113 18.2925L14.5038 20.5863L19.7963 15.2925C19.8892 15.1995 19.9994 15.1258 20.1208 15.0754C20.2422 15.0251 20.3724 14.9992 20.5038 14.9992C20.6352 14.9992 20.7653 15.0251 20.8867 15.0754C21.0081 15.1258 21.1184 15.1995 21.2113 15.2925Z" fill="black"/>
</svg>
