<svg width="21" height="20" viewBox="0 0 21 20" fill="none" xmlns="http://www.w3.org/2000/svg">
<path d="M13.571 7.68281C13.6291 7.74086 13.6752 7.80979 13.7066 7.88566C13.7381 7.96154 13.7543 8.04287 13.7543 8.125C13.7543 8.20713 13.7381 8.28846 13.7066 8.36434C13.6752 8.44021 13.6291 8.50914 13.571 8.56719L9.19598 12.9422C9.13793 13.0003 9.069 13.0464 8.99313 13.0779C8.91725 13.1093 8.83592 13.1255 8.75379 13.1255C8.67165 13.1255 8.59032 13.1093 8.51445 13.0779C8.43858 13.0464 8.36965 13.0003 8.3116 12.9422L6.4366 11.0672C6.31932 10.9499 6.25344 10.7909 6.25344 10.625C6.25344 10.4591 6.31932 10.3001 6.4366 10.1828C6.55388 10.0655 6.71294 9.99965 6.87879 9.99965C7.04464 9.99965 7.2037 10.0655 7.32098 10.1828L8.75379 11.6164L12.6866 7.68281C12.7446 7.6247 12.8136 7.5786 12.8895 7.54715C12.9653 7.5157 13.0467 7.49951 13.1288 7.49951C13.2109 7.49951 13.2923 7.5157 13.3681 7.54715C13.444 7.5786 13.5129 7.6247 13.571 7.68281ZM18.1288 10C18.1288 11.607 17.6523 13.1779 16.7595 14.514C15.8667 15.8502 14.5977 16.8916 13.1131 17.5065C11.6284 18.1215 9.99477 18.2824 8.41868 17.9689C6.84258 17.6554 5.39485 16.8815 4.25855 15.7452C3.12224 14.6089 2.34841 13.1612 2.03491 11.5851C1.7214 10.009 1.8823 8.37535 2.49727 6.8907C3.11223 5.40605 4.15363 4.1371 5.48978 3.24431C6.82593 2.35152 8.39681 1.875 10.0038 1.875C12.158 1.87727 14.2233 2.73403 15.7465 4.25727C17.2698 5.78051 18.1265 7.84581 18.1288 10ZM16.8788 10C16.8788 8.64025 16.4756 7.31104 15.7201 6.18045C14.9647 5.04987 13.891 4.16868 12.6347 3.64833C11.3785 3.12798 9.99616 2.99183 8.66254 3.2571C7.32892 3.52237 6.10391 4.17716 5.14243 5.13864C4.18094 6.10013 3.52616 7.32513 3.26089 8.65875C2.99562 9.99237 3.13176 11.3747 3.65212 12.6309C4.17247 13.8872 5.05365 14.9609 6.18424 15.7164C7.31483 16.4718 8.64404 16.875 10.0038 16.875C11.8265 16.8729 13.574 16.1479 14.8629 14.8591C16.1517 13.5702 16.8767 11.8227 16.8788 10Z" fill="black"/>
</svg>
