<svg width="11" height="6" viewBox="0 0 11 6" fill="none" xmlns="http://www.w3.org/2000/svg">
<path d="M9.86948 0.77635L5.32426 5.32157C5.28205 5.36383 5.23192 5.39736 5.17674 5.42023C5.12156 5.44311 5.06242 5.45488 5.00269 5.45488C4.94295 5.45488 4.88381 5.44311 4.82863 5.42023C4.77345 5.39736 4.72332 5.36383 4.68111 5.32157L0.135886 0.77635C0.0505992 0.691063 0.00268555 0.575389 0.00268555 0.454775C0.00268555 0.334161 0.0505992 0.218487 0.135886 0.1332C0.221173 0.0479134 0.336847 0 0.457461 0C0.578075 0 0.693748 0.0479134 0.779035 0.1332L5.00269 4.35742L9.22633 0.1332C9.26856 0.0909705 9.3187 0.0574721 9.37387 0.0346175C9.42905 0.0117629 9.48819 0 9.54791 0C9.60763 0 9.66677 0.0117629 9.72194 0.0346175C9.77712 0.0574721 9.82726 0.0909705 9.86948 0.1332C9.91171 0.17543 9.94521 0.225564 9.96807 0.28074C9.99092 0.335916 10.0027 0.395053 10.0027 0.454775C10.0027 0.514497 9.99092 0.573634 9.96807 0.62881C9.94521 0.683986 9.91171 0.73412 9.86948 0.77635Z" fill="black"/>
</svg>
