<svg width="16" height="9" viewBox="0 0 16 9" fill="none" xmlns="http://www.w3.org/2000/svg">
<path d="M14.8029 1.16453L7.98505 7.98236C7.92173 8.04575 7.84653 8.09604 7.76377 8.13035C7.681 8.16466 7.59228 8.18232 7.50269 8.18232C7.41309 8.18232 7.32437 8.16466 7.2416 8.13035C7.15884 8.09604 7.08364 8.04575 7.02032 7.98236L0.202486 1.16453C0.074556 1.03659 0.00268555 0.863084 0.00268555 0.682163C0.00268555 0.501242 0.074556 0.327731 0.202486 0.1998C0.330417 0.0718701 0.503927 0 0.684848 0C0.865769 0 1.03928 0.0718701 1.16721 0.1998L7.50269 6.53613L13.8382 0.1998C13.9015 0.136456 13.9767 0.0862081 14.0595 0.0519262C14.1422 0.0176443 14.2309 0 14.3205 0C14.4101 0 14.4988 0.0176443 14.5816 0.0519262C14.6643 0.0862081 14.7395 0.136456 14.8029 0.1998C14.8662 0.263145 14.9165 0.338346 14.9508 0.42111C14.985 0.503874 15.0027 0.59258 15.0027 0.682163C15.0027 0.771746 14.985 0.860451 14.9508 0.943215C14.9165 1.02598 14.8662 1.10118 14.8029 1.16453Z" fill="black"/>
</svg>
