<svg width="33" height="32" viewBox="0 0 33 32" fill="none" xmlns="http://www.w3.org/2000/svg">
<path d="M21.7113 12.2925C21.8043 12.3854 21.878 12.4957 21.9284 12.6171C21.9787 12.7385 22.0046 12.8686 22.0046 13C22.0046 13.1314 21.9787 13.2615 21.9284 13.3829C21.878 13.5043 21.8043 13.6146 21.7113 13.7075L14.7113 20.7075C14.6184 20.8005 14.5081 20.8742 14.3867 20.9246C14.2653 20.9749 14.1352 21.0008 14.0038 21.0008C13.8724 21.0008 13.7422 20.9749 13.6208 20.9246C13.4995 20.8742 13.3892 20.8005 13.2963 20.7075L10.2963 17.7075C10.1086 17.5199 10.0032 17.2654 10.0032 17C10.0032 16.7346 10.1086 16.4801 10.2963 16.2925C10.4839 16.1049 10.7384 15.9994 11.0038 15.9994C11.2692 15.9994 11.5236 16.1049 11.7113 16.2925L14.0038 18.5863L20.2963 12.2925C20.3892 12.1995 20.4995 12.1258 20.6208 12.0754C20.7422 12.0251 20.8724 11.9992 21.0038 11.9992C21.1352 11.9992 21.2653 12.0251 21.3867 12.0754C21.5081 12.1258 21.6184 12.1995 21.7113 12.2925ZM29.0038 16C29.0038 18.5712 28.2414 21.0846 26.8129 23.2224C25.3844 25.3603 23.3541 27.0265 20.9787 28.0104C18.6032 28.9944 15.9894 29.2518 13.4676 28.7502C10.9459 28.2486 8.62948 27.0105 6.8114 25.1924C4.99332 23.3743 3.75519 21.0579 3.25358 18.5362C2.75197 16.0144 3.00942 13.4006 3.99336 11.0251C4.9773 8.64968 6.64354 6.61935 8.78138 5.1909C10.9192 3.76244 13.4326 3 16.0038 3C19.4505 3.00364 22.755 4.37445 25.1922 6.81163C27.6293 9.24882 29.0002 12.5533 29.0038 16ZM27.0038 16C27.0038 13.8244 26.3587 11.6977 25.15 9.88873C23.9413 8.07979 22.2233 6.66989 20.2133 5.83733C18.2033 5.00476 15.9916 4.78692 13.8578 5.21136C11.724 5.6358 9.76399 6.68345 8.22562 8.22183C6.68724 9.7602 5.63959 11.7202 5.21515 13.854C4.79071 15.9878 5.00855 18.1995 5.84111 20.2095C6.67368 22.2195 8.08358 23.9375 9.89252 25.1462C11.7015 26.3549 13.8282 27 16.0038 27C18.9202 26.9967 21.7161 25.8367 23.7783 23.7745C25.8405 21.7123 27.0005 18.9164 27.0038 16Z" fill="black"/>
</svg>
