<svg width="23" height="13" viewBox="0 0 23 13" fill="none" xmlns="http://www.w3.org/2000/svg">
<path d="M21.7107 1.70806L11.7107 11.7081C11.6179 11.801 11.5076 11.8748 11.3862 11.9251C11.2648 11.9754 11.1347 12.0013 11.0032 12.0013C10.8718 12.0013 10.7417 11.9754 10.6203 11.9251C10.4989 11.8748 10.3886 11.801 10.2957 11.7081L0.295742 1.70806C0.108101 1.52042 0.00268555 1.26592 0.00268555 1.00056C0.00268555 0.735192 0.108101 0.480696 0.295742 0.293056C0.483382 0.105415 0.737878 0 1.00324 0C1.26861 0 1.5231 0.105415 1.71074 0.293056L11.0032 9.58681L20.2957 0.293056C20.3887 0.200145 20.499 0.126445 20.6203 0.0761623C20.7417 0.0258797 20.8718 0 21.0032 0C21.1346 0 21.2647 0.0258797 21.3861 0.0761623C21.5075 0.126445 21.6178 0.200145 21.7107 0.293056C21.8037 0.385966 21.8774 0.496267 21.9276 0.61766C21.9779 0.739053 22.0038 0.869161 22.0038 1.00056C22.0038 1.13195 21.9779 1.26206 21.9276 1.38345C21.8774 1.50485 21.8037 1.61515 21.7107 1.70806Z" fill="black"/>
</svg>
