<svg width="21" height="20" viewBox="0 0 21 20" fill="none" xmlns="http://www.w3.org/2000/svg">
<path d="M16.2538 2.5H14.3788V1.875C14.3788 1.70924 14.3129 1.55027 14.1957 1.43306C14.0785 1.31585 13.9195 1.25 13.7538 1.25C13.588 1.25 13.4291 1.31585 13.3118 1.43306C13.1946 1.55027 13.1288 1.70924 13.1288 1.875V2.5H6.87878V1.875C6.87878 1.70924 6.81294 1.55027 6.69573 1.43306C6.57852 1.31585 6.41954 1.25 6.25378 1.25C6.08802 1.25 5.92905 1.31585 5.81184 1.43306C5.69463 1.55027 5.62878 1.70924 5.62878 1.875V2.5H3.75378C3.42226 2.5 3.10432 2.6317 2.8699 2.86612C2.63548 3.10054 2.50378 3.41848 2.50378 3.75V16.25C2.50378 16.5815 2.63548 16.8995 2.8699 17.1339C3.10432 17.3683 3.42226 17.5 3.75378 17.5H16.2538C16.5853 17.5 16.9032 17.3683 17.1377 17.1339C17.3721 16.8995 17.5038 16.5815 17.5038 16.25V3.75C17.5038 3.41848 17.3721 3.10054 17.1377 2.86612C16.9032 2.6317 16.5853 2.5 16.2538 2.5ZM5.62878 3.75V4.375C5.62878 4.54076 5.69463 4.69973 5.81184 4.81694C5.92905 4.93415 6.08802 5 6.25378 5C6.41954 5 6.57852 4.93415 6.69573 4.81694C6.81294 4.69973 6.87878 4.54076 6.87878 4.375V3.75H13.1288V4.375C13.1288 4.54076 13.1946 4.69973 13.3118 4.81694C13.4291 4.93415 13.588 5 13.7538 5C13.9195 5 14.0785 4.93415 14.1957 4.81694C14.3129 4.69973 14.3788 4.54076 14.3788 4.375V3.75H16.2538V6.25H3.75378V3.75H5.62878ZM16.2538 16.25H3.75378V7.5H16.2538V16.25ZM13.2585 9.55781C13.3166 9.61586 13.3627 9.68479 13.3941 9.76066C13.4256 9.83654 13.4418 9.91787 13.4418 10C13.4418 10.0821 13.4256 10.1635 13.3941 10.2393C13.3627 10.3152 13.3166 10.3841 13.2585 10.4422L9.50847 14.1922C9.45043 14.2503 9.3815 14.2964 9.30562 14.3279C9.22975 14.3593 9.14842 14.3755 9.06628 14.3755C8.98415 14.3755 8.90282 14.3593 8.82695 14.3279C8.75107 14.2964 8.68214 14.2503 8.6241 14.1922L6.7491 12.3172C6.63182 12.1999 6.56594 12.0409 6.56594 11.875C6.56594 11.7091 6.63182 11.5501 6.7491 11.4328C6.86637 11.3155 7.02543 11.2497 7.19128 11.2497C7.35714 11.2497 7.5162 11.3155 7.63347 11.4328L9.06628 12.8664L12.3741 9.55781C12.4321 9.4997 12.5011 9.4536 12.5769 9.42215C12.6528 9.3907 12.7341 9.37451 12.8163 9.37451C12.8984 9.37451 12.9797 9.3907 13.0556 9.42215C13.1315 9.4536 13.2004 9.4997 13.2585 9.55781Z" fill="black"/>
</svg>
