<svg width="16" height="16" viewBox="0 0 16 16" fill="none" xmlns="http://www.w3.org/2000/svg">
<path d="M10.1792 6.26211C10.2228 6.30564 10.2573 6.35734 10.2809 6.41425C10.3045 6.47115 10.3167 6.53215 10.3167 6.59375C10.3167 6.65535 10.3045 6.71635 10.2809 6.77325C10.2573 6.83016 10.2228 6.88186 10.1792 6.92539L6.89793 10.2066C6.85439 10.2502 6.8027 10.2848 6.74579 10.3084C6.68888 10.332 6.62789 10.3441 6.56629 10.3441C6.50469 10.3441 6.44369 10.332 6.38678 10.3084C6.32988 10.2848 6.27818 10.2502 6.23465 10.2066L4.8284 8.80039C4.74044 8.71243 4.69103 8.59314 4.69103 8.46875C4.69103 8.34436 4.74044 8.22507 4.8284 8.13711C4.91635 8.04915 5.03565 7.99974 5.16004 7.99974C5.28443 7.99974 5.40372 8.04915 5.49168 8.13711L6.56629 9.21231L9.5159 6.26211C9.55943 6.21853 9.61113 6.18395 9.66803 6.16036C9.72494 6.13677 9.78594 6.12463 9.84754 6.12463C9.90914 6.12463 9.97013 6.13677 10.027 6.16036C10.0839 6.18395 10.1356 6.21853 10.1792 6.26211ZM13.5975 8C13.5975 9.20523 13.2401 10.3834 12.5706 11.3855C11.901 12.3876 10.9493 13.1687 9.83576 13.6299C8.72228 14.0911 7.49703 14.2118 6.31496 13.9767C5.13288 13.7415 4.04708 13.1612 3.19485 12.3089C2.34263 11.4567 1.76226 10.3709 1.52713 9.18883C1.292 8.00676 1.41267 6.78151 1.8739 5.66802C2.33512 4.55454 3.11617 3.60282 4.11828 2.93323C5.12039 2.26364 6.29856 1.90625 7.50379 1.90625C9.11943 1.90796 10.6684 2.55052 11.8108 3.69295C12.9533 4.83538 13.5958 6.38436 13.5975 8ZM12.66 8C12.66 6.98019 12.3576 5.98328 11.7911 5.13534C11.2245 4.2874 10.4192 3.62651 9.477 3.23625C8.53482 2.84598 7.49807 2.74387 6.49785 2.94283C5.49764 3.14178 4.57888 3.63287 3.85777 4.35398C3.13665 5.0751 2.64557 5.99385 2.44661 6.99407C2.24766 7.99428 2.34977 9.03103 2.74003 9.97321C3.1303 10.9154 3.79119 11.7207 4.63913 12.2873C5.48707 12.8538 6.48398 13.1562 7.50379 13.1562C8.87083 13.1547 10.1814 12.611 11.1481 11.6443C12.1147 10.6777 12.6585 9.36705 12.66 8Z" fill="black"/>
</svg>
