<svg width="32" height="32" viewBox="0 0 32 32" fill="none" xmlns="http://www.w3.org/2000/svg">
<path d="M28.0752 4H3.92482C1.7572 4 0 5.75305 0 7.91556V24.0844C0 26.2469 1.7572 28 3.92482 28H28.0752C30.2428 28 32 26.2469 32 24.0844V7.91556C32 5.75305 30.2428 4 28.0752 4Z" fill="#BFEA6A"/>
<path d="M19.584 11.4533L31.9955 24.0844C31.9955 26.2489 30.2403 28 28.0707 28H3.92482" fill="#52ACA1"/>
<path d="M7.89419 14.7333C9.40734 14.7333 10.634 13.5096 10.634 12C10.634 10.4904 9.40734 9.26667 7.89419 9.26667C6.38104 9.26667 5.15439 10.4904 5.15439 12C5.15439 13.5096 6.38104 14.7333 7.89419 14.7333Z" fill="#2D3B36"/>
</svg>
