<svg width="33" height="32" viewBox="0 0 33 32" fill="none" xmlns="http://www.w3.org/2000/svg">
<path d="M28.0858 3H3.93468C1.76727 3 0.0102539 4.75674 0.0102539 6.9238V23.13C0.0102539 25.2971 1.76727 27.0538 3.93468 27.0538H28.0858C30.2532 27.0538 32.0103 25.2971 32.0103 23.13V6.9238C32.0103 4.75674 30.2532 3 28.0858 3Z" fill="#52ACA1"/>
<path d="M32.0103 7.43482V25.9962C32.0103 28.1647 30.2547 29.92 28.0858 29.92H3.93468C1.76579 29.92 0.0102539 28.1647 0.0102539 25.9962V7.43482" fill="#BFEA6A"/>
<path d="M23.4636 14.9847H31.9969V20.326H23.4636C21.988 20.326 20.7925 19.1307 20.7925 17.6554C20.7925 16.18 21.988 14.9847 23.4636 14.9847Z" fill="#2D3B36"/>
</svg>
