<svg width="32" height="33" viewBox="0 0 32 33" fill="none" xmlns="http://www.w3.org/2000/svg">
<path d="M25.5932 7.32171H6.73678C5.77758 7.32171 5 8.09913 5 9.05814V27.6082C5 28.5672 5.77758 29.3447 6.73678 29.3447H25.5932C26.5524 29.3447 27.33 28.5672 27.33 27.6082V9.05814C27.33 8.09913 26.5524 7.32171 25.5932 7.32171Z" fill="#BFEA6A"/>
<path d="M11.6295 25.9611C11.0638 25.9611 10.6024 25.4997 10.6024 24.9341V11.7422C10.6024 11.1766 11.0638 10.7152 11.6295 10.7152C12.1952 10.7152 12.6567 11.1766 12.6567 11.7422V24.9341C12.6567 25.4997 12.1952 25.9611 11.6295 25.9611Z" fill="#2D3B36"/>
<path d="M16.165 25.9611C15.5993 25.9611 15.1378 25.4997 15.1378 24.9341V11.7422C15.1378 11.1766 15.5993 10.7152 16.165 10.7152C16.7307 10.7152 17.1922 11.1766 17.1922 11.7422V24.9341C17.1922 25.4997 16.7307 25.9611 16.165 25.9611Z" fill="#2D3B36"/>
<path d="M20.7005 25.9611C20.1348 25.9611 19.6733 25.4997 19.6733 24.9341V11.7422C19.6733 11.1766 20.1348 10.7152 20.7005 10.7152C21.2662 10.7152 21.7276 11.1766 21.7276 11.7422V24.9341C21.7276 25.4997 21.2662 25.9611 20.7005 25.9611Z" fill="#2D3B36"/>
<path d="M21.7078 7.32171H19.6485V3.74961C19.6485 3.08977 19.1126 2.55891 18.4575 2.55891H13.8278C13.1678 2.55891 12.6369 3.09473 12.6369 3.74961V7.32171H10.5775V3.74961C10.5775 1.9586 12.0365 0.5 13.8278 0.5H18.4575C20.2489 0.5 21.7078 1.9586 21.7078 3.74961V7.32171Z" fill="#BFEA6A"/>
<path d="M11.5303 30.4758C11.5303 31.5971 10.6222 32.5 9.50568 32.5C8.38918 32.5 7.48111 31.5921 7.48111 30.4758" fill="#BFEA6A"/>
<path d="M24.8539 30.4758C24.8539 31.5971 23.9458 32.5 22.8293 32.5C21.7128 32.5 20.8047 31.5921 20.8047 30.4758" fill="#BFEA6A"/>
</svg>
