<svg width="32" height="33" viewBox="0 0 32 33" fill="none" xmlns="http://www.w3.org/2000/svg">
<path d="M14.8587 21.8393C15.1663 21.1326 14.8437 20.3109 14.1382 20.0038C13.4327 19.6967 12.6115 20.0207 12.3039 20.7273L8.24635 30.0505C7.93881 30.7572 8.26142 31.579 8.96692 31.886C9.67241 32.1931 10.4936 31.8692 10.8012 31.1625L14.8587 21.8393Z" fill="#2D3B36"/>
<path d="M28.8185 9.29979C28.1001 10.9505 26.1787 11.7059 24.5269 10.9869L23.0481 10.3433L21.1985 14.5932C24.2193 17.7506 25.2254 22.5337 23.374 26.7915L2.87 17.8679C4.72123 13.6106 8.90676 11.0896 13.2764 11.1477L15.1269 6.89563L13.6476 6.25174C11.9958 5.53281 11.2391 3.61185 11.9576 1.96113C12.676 0.310413 14.5974 -0.444986 16.2492 0.273942L27.1285 5.00913C28.7803 5.72806 29.5369 7.64907 28.8185 9.29979Z" fill="#BFEA6A"/>
</svg>
