<svg width="32" height="33" viewBox="0 0 32 33" fill="none" xmlns="http://www.w3.org/2000/svg">
<path d="M26.79 6.86081C26.79 5.79586 26.1294 4.83874 25.1363 4.4568L16.4994 1.16757C15.8927 0.933914 15.2187 0.942901 14.6165 1.18555L6.60422 4.43883C5.63358 4.83425 4.99997 5.77339 4.99997 6.82037V18.6652C4.99997 22.3498 6.6896 25.8278 9.58355 28.1105L15.4478 32.7342C15.9062 33.0937 16.5578 33.0847 17.0027 32.7118L22.494 28.106C25.2172 25.8233 26.79 22.4487 26.79 18.8943V6.86081Z" fill="#BFEA6A"/>
<path d="M15.4254 9.95228H16.3646C17.0967 9.95228 17.6902 10.5458 17.6902 11.2779V13.6954H20.1078C20.84 13.6954 21.4335 14.2889 21.4335 15.021V15.9601C21.4335 16.6922 20.84 17.2857 20.1078 17.2857H17.6902V19.7031C17.6902 20.4352 17.0967 21.0287 16.3646 21.0287H15.4254C14.6932 21.0287 14.0997 20.4352 14.0997 19.7031V17.2857H11.6821C10.95 17.2857 10.3565 16.6922 10.3565 15.9601V15.021C10.3565 14.2889 10.95 13.6954 11.6821 13.6954H14.0997V11.2779C14.0997 10.5458 14.6932 9.95228 15.4254 9.95228Z" fill="#52ACA1"/>
</svg>
