<svg width="32" height="32" viewBox="0 0 32 32" fill="none" xmlns="http://www.w3.org/2000/svg">
<path d="M27.0745 29.0178H4.91202C4.10685 29.0178 3.45462 28.3733 3.45462 27.5778V15.1956C3.45462 14.4 4.10685 13.7556 4.91202 13.7556H27.0745C27.8796 13.7556 28.5319 14.4044 28.5319 15.1956V27.5778C28.5319 28.3733 27.8796 29.0178 27.0745 29.0178Z" fill="#BFEA6A"/>
<path d="M21.8656 23.6089C21.3618 23.6089 20.8625 23.4489 20.4396 23.1289L18.9553 21.9911C18.9553 21.9911 18.9103 21.9778 18.8923 21.9911L17.4079 23.1244C16.5712 23.7689 15.3972 23.7689 14.5561 23.1244L13.0761 21.9911C13.0761 21.9911 13.0312 21.9778 13.0132 21.9911L11.5333 23.1244C10.6921 23.7689 9.52262 23.7644 8.68147 23.1244L6.47285 21.4311C5.97805 21.0489 5.88356 20.3422 6.2704 19.8533C6.65724 19.36 7.36797 19.2711 7.86727 19.6533L10.0759 21.3467C10.0759 21.3467 10.1209 21.36 10.1389 21.3467L11.6187 20.2133C12.4599 19.5689 13.6295 19.5733 14.4706 20.2133L15.9505 21.3467C15.9505 21.3467 15.991 21.36 16.009 21.3467L17.4934 20.2133C18.33 19.5733 19.504 19.5689 20.3407 20.2133L21.8251 21.3511C21.8251 21.3511 21.8701 21.3644 21.8836 21.3511L24.0967 19.6578C24.596 19.28 25.3067 19.3689 25.6935 19.8578C26.0804 20.3467 25.9859 21.0533 25.4911 21.4356L23.278 23.1289C22.8597 23.4489 22.3559 23.6089 21.8521 23.6089H21.8656Z" fill="#52ACA1"/>
<path d="M29.8229 27.7022H2.1771C0.974712 27.7022 0 28.6643 0 29.8511C0 31.0379 0.974712 32 2.1771 32H29.8229C31.0253 32 32 31.0379 32 29.8511C32 28.6643 31.0253 27.7022 29.8229 27.7022Z" fill="#52ACA1"/>
<path d="M10.8136 9.77778H8.56904V13.9467H10.8136V9.77778Z" fill="#BFEA6A"/>
<path d="M17.1156 8.09333H14.871V13.9511H17.1156V8.09333Z" fill="#BFEA6A"/>
<path d="M23.4175 9.77778H21.1729V13.9467H23.4175V9.77778Z" fill="#BFEA6A"/>
<path d="M15.9955 5.73333C15.3703 5.73333 14.8035 5.42222 14.4752 4.89778C14.1468 4.37333 14.1153 3.73333 14.3942 3.18222L15.9955 0L17.5969 3.18222C17.8757 3.73333 17.8442 4.37333 17.5159 4.89778C17.1875 5.42222 16.6208 5.73333 15.9955 5.73333Z" fill="#52ACA1"/>
<path d="M22.2974 8.27556C21.6721 8.27556 21.1054 7.96444 20.777 7.44C20.4486 6.91556 20.4172 6.27556 20.6961 5.72444L22.2974 2.54222L23.8988 5.72444C24.1777 6.27556 24.1461 6.91556 23.8178 7.44C23.4894 7.96444 22.9226 8.27556 22.2974 8.27556Z" fill="#52ACA1"/>
<path d="M9.6936 8.27556C9.06835 8.27556 8.50158 7.96444 8.17321 7.44C7.84485 6.91556 7.81333 6.27556 8.09222 5.72444L9.6936 2.54222L11.2949 5.72444C11.5738 6.27556 11.5423 6.91556 11.214 7.44C10.8856 7.96444 10.3188 8.27556 9.6936 8.27556Z" fill="#52ACA1"/>
</svg>
