<svg width="32" height="32" viewBox="0 0 32 32" fill="none" xmlns="http://www.w3.org/2000/svg">
<path d="M28 32H3.99995C1.79551 32 -4.57764e-05 30.2044 -4.57764e-05 28V4C-4.57764e-05 1.79556 1.79551 0 3.99995 0H12.6977C13.5822 0 14.2977 0.715555 14.2977 1.6C14.2977 2.48444 13.5822 3.2 12.6977 3.2H3.99995C3.55995 3.2 3.19996 3.56 3.19996 4V28C3.19996 28.44 3.55995 28.8 3.99995 28.8H28C28.44 28.8 28.8 28.44 28.8 28V20.8578C28.8 19.9733 29.5155 19.2578 30.4 19.2578C31.2844 19.2578 32 19.9733 32 20.8578V28C32 30.2044 30.2044 32 28 32Z" fill="#BFEA6A"/>
<path d="M16.1511 21.16C15.7288 21.16 15.32 20.9911 15.0177 20.6933L7.89329 13.5689C7.26663 12.9422 7.26663 11.9289 7.89329 11.3067C8.51996 10.68 9.52885 10.68 10.1555 11.3067L16.1466 17.2978L29.2666 4.17778C29.8933 3.55111 30.9022 3.55111 31.5288 4.17778C32.1555 4.80444 32.1555 5.81778 31.5288 6.44L17.28 20.6889C16.9777 20.9867 16.5733 21.1556 16.1466 21.1556L16.1511 21.16Z" fill="#2D3B36"/>
</svg>
