<svg width="32" height="32" viewBox="0 0 32 32" fill="none" xmlns="http://www.w3.org/2000/svg">
<g clip-path="url(#clip0_4_745)">
<path d="M0 16.2189H31.9319V27.9475C31.9319 30.186 29.9535 32 27.523 32H4.40893C1.97843 32 0 30.1815 0 27.943V16.2145V16.2189Z" fill="#52ACA1"/>
<path d="M32 16.2011L26.9008 2.72549C26.2835 1.09467 24.6113 0.00446701 22.7349 0.00446701H9.35257C7.47623 0.00446701 5.80404 1.09913 5.18669 2.72549L0.0923591 16.2011H9.86784C10.3588 18.94 12.9254 21.031 16.0462 21.031C19.1669 21.031 21.7336 18.9355 22.2245 16.2011H32Z" fill="#BFEA6A"/>
<path d="M0.0777761 16.2189H9.85326C10.3442 18.9578 12.9108 21.0489 16.0316 21.0489C19.1524 21.0489 21.719 18.9534 22.2099 16.2189H31.9854" fill="#2D3B36"/>
</g>
<defs>
<clipPath id="clip0_4_745">
<rect width="32" height="32" fill="white"/>
</clipPath>
</defs>
</svg>
