<svg width="32" height="32" viewBox="0 0 32 32" fill="none" xmlns="http://www.w3.org/2000/svg">
<path d="M15.9169 15.1318C15.5628 15.1318 15.2087 14.9962 14.9377 14.7252C14.3956 14.1831 14.3956 13.3043 14.9377 12.7666L25.3071 2.39657C25.8492 1.85446 26.7235 1.85446 27.2655 2.39657L31.5934 6.72471C31.8513 6.98265 32 7.33676 32 7.704C32 8.07124 31.8557 8.42536 31.5934 8.68329L27.3486 12.924C27.0907 13.1863 26.7366 13.3306 26.3694 13.3306C26.0022 13.3306 25.6481 13.1863 25.3901 12.924L24.2273 11.7611C23.6852 11.219 23.6852 10.3402 24.2273 9.80249C24.7694 9.26038 25.6437 9.26038 26.1858 9.80249L26.3694 9.98611L28.6513 7.704L26.2863 5.33883L16.8961 14.7296C16.6251 15.0006 16.271 15.1361 15.9169 15.1361V15.1318Z" fill="#2D3B36"/>
<path d="M9.82729 29.76C4.40653 29.76 -3.05176e-05 25.3488 -3.05176e-05 19.9321C-3.05176e-05 14.5153 4.40653 10.1041 9.82729 10.1041C15.2481 10.1041 19.6546 14.511 19.6546 19.9321C19.6546 25.3532 15.2481 29.76 9.82729 29.76ZM9.82729 12.8759C5.93658 12.8759 2.77155 16.0411 2.77155 19.9321C2.77155 23.823 5.93658 26.9882 9.82729 26.9882C13.718 26.9882 16.883 23.823 16.883 19.9321C16.883 16.0411 13.718 12.8759 9.82729 12.8759Z" fill="#BFEA6A"/>
</svg>
