<svg width="32" height="32" viewBox="0 0 32 32" fill="none" xmlns="http://www.w3.org/2000/svg">
<path d="M15.7117 27.1201C15.0052 27.1201 14.3876 26.658 14.1832 25.9872L11.0685 15.7467L8.74472 19.874C8.46035 20.376 7.92716 20.687 7.34955 20.687H1.60003C0.715834 20.687 0.000488281 19.9717 0.000488281 19.0876C0.000488281 18.2035 0.715834 17.4883 1.60003 17.4883H6.41648L10.1177 10.9131C10.4332 10.3533 11.0419 10.0423 11.6861 10.1089C12.3215 10.18 12.8547 10.6198 13.0413 11.2329L15.7117 20.0117L20.1238 5.4574C20.3282 4.78211 20.9502 4.32007 21.6567 4.32007H21.6745C22.3854 4.32895 23.0074 4.79988 23.1985 5.48406L26.5798 17.4838H30.4009C31.2851 17.4838 32.0005 18.1991 32.0005 19.0832C32.0005 19.9673 31.2851 20.6826 30.4009 20.6826H25.3668C24.6514 20.6826 24.0205 20.2072 23.8294 19.5186L21.6034 11.6194L17.249 25.9783C17.0446 26.6536 16.4226 27.1156 15.7206 27.1156L15.7117 27.1201Z" fill="#BFEA6A"/>
</svg>
