<svg width="32" height="32" viewBox="0 0 32 32" fill="none" xmlns="http://www.w3.org/2000/svg">
<path d="M28.6755 0H8.1422C6.30861 0 4.82221 1.48641 4.82221 3.32V23.8533C4.82221 25.6869 6.30861 27.1733 8.1422 27.1733H28.6755C30.5091 27.1733 31.9956 25.6869 31.9956 23.8533V3.32C31.9956 1.48641 30.5091 0 28.6755 0Z" fill="#BFEA6A"/>
<path d="M23.8533 4.82666H3.31999C1.4864 4.82666 0 6.31308 0 8.14666V28.68C0 30.5136 1.4864 32 3.31999 32H23.8533C25.6869 32 27.1733 30.5136 27.1733 28.68V8.14666C27.1733 6.31308 25.6869 4.82666 23.8533 4.82666Z" fill="#94DCD9"/>
</svg>
