<svg width="32" height="32" viewBox="0 0 32 32" fill="none" xmlns="http://www.w3.org/2000/svg">
<g clip-path="url(#clip0_4_742)">
<path d="M19.4194 17.3246C18.7704 16.6864 17.7188 16.6857 17.0707 17.323C16.4226 17.9603 16.4234 18.9943 17.0724 19.6324L29.1657 31.5239C29.8147 32.162 30.8662 32.1628 31.5143 31.5255C32.1624 30.8882 32.1617 29.8542 31.5127 29.2161L19.4194 17.3246Z" fill="#2D3B36"/>
<path d="M12.1946 23.982C18.9295 23.982 24.3892 18.6135 24.3892 11.991C24.3892 5.36856 18.9295 0 12.1946 0C5.45971 0 0 5.36856 0 11.991C0 18.6135 5.45971 23.982 12.1946 23.982Z" fill="#B9D54D"/>
<path d="M12.1946 20.8889C17.1922 20.8889 21.2435 16.9052 21.2435 11.991C21.2435 7.07687 17.1922 3.09315 12.1946 3.09315C7.19702 3.09315 3.14567 7.07687 3.14567 11.991C3.14567 16.9052 7.19702 20.8889 12.1946 20.8889Z" fill="#BFEA6A"/>
<path d="M11.3819 15.0887C11.3819 15.5825 11.7928 15.9865 12.2951 15.9865C12.7973 15.9865 13.2082 15.5825 13.2082 15.0887V13.0281H15.2033C15.7055 13.0281 16.1164 12.624 16.1164 12.1302C16.1164 11.6364 15.7055 11.2323 15.2033 11.2323H13.2082V9.17171C13.2082 8.67789 12.7973 8.27385 12.2951 8.27385C11.7928 8.27385 11.3819 8.67789 11.3819 9.17171V11.2323H9.27265C8.77044 11.2323 8.35954 11.6364 8.35954 12.1302C8.35954 12.624 8.77044 13.0281 9.27265 13.0281H11.3819V15.0887Z" fill="#2D3B36"/>
</g>
<defs>
<clipPath id="clip0_4_742">
<rect width="32" height="32" fill="white"/>
</clipPath>
</defs>
</svg>
