<svg width="32" height="33" viewBox="0 0 32 33" fill="none" xmlns="http://www.w3.org/2000/svg">
<path d="M20.4242 32.8999H18.5271C13.9963 32.8999 10.3047 29.1097 10.3047 24.4535V23.2794H12.8267V24.4535C12.8267 27.7213 15.3845 30.3776 18.5271 30.3776H20.4242C23.5668 30.3776 26.1246 27.7213 26.1246 24.4535V17.7794H28.6466V24.4535C28.6466 29.1097 24.9595 32.8999 20.4242 32.8999Z" fill="#52ACA1"/>
<path d="M11.6483 24.4356H11.4831C5.87205 24.4356 1.31 19.7437 1.31 13.9713V1.2124C1.31 1.05615 1.43499 0.926688 1.59569 0.922224L2.60453 0.899902H6.23808C6.93444 0.899902 7.49689 1.4624 7.49689 2.15883C7.49689 2.85526 6.93444 3.41776 6.23808 3.41776H3.83653V13.9713C3.83653 18.3508 7.26924 21.9133 11.492 21.9133H11.6572C15.88 21.9133 19.3127 18.3508 19.3127 13.9713V3.41776H17.2415C16.5451 3.41776 15.9827 2.85526 15.9827 2.15883C15.9827 1.4624 16.5451 0.899902 17.2415 0.899902H21.5179C21.6741 0.899902 21.8035 1.0249 21.808 1.18562L21.8303 2.19455V13.9803C21.8303 19.7481 17.2638 24.4445 11.6572 24.4445L11.6483 24.4356Z" fill="#BFEA6A"/>
<path d="M27.2137 19.0428C25.1514 19.0428 23.4775 17.3285 23.4775 15.2258C23.4775 13.1231 25.1514 11.4088 27.2137 11.4088C29.276 11.4088 30.95 13.1187 30.95 15.2258C30.95 17.3329 29.276 19.0428 27.2137 19.0428Z" fill="#BFEA6A"/>
</svg>
