<svg width="32" height="32" viewBox="0 0 32 32" fill="none" xmlns="http://www.w3.org/2000/svg">
<path d="M23.5894 16.6374C24.9582 14.8805 25.7804 12.6461 25.7804 10.2031C25.7804 4.56613 21.3984 0 15.9985 0C10.5987 0 6.2166 4.57077 6.2166 10.2077C6.2166 12.6461 7.0388 14.8851 8.40765 16.642C10.6831 15.4182 13.2608 14.7182 15.9985 14.7182C18.7362 14.7182 21.3139 15.4136 23.5894 16.642V16.6374Z" fill="#94DCD9"/>
<path d="M23.5894 16.6374C21.7939 18.9367 19.0606 20.4108 15.9985 20.4108C12.9364 20.4108 10.2031 18.9413 8.40765 16.6374C4.50555 18.742 1.50564 22.4134 0.176793 26.8498C-0.587628 29.404 1.2212 32 3.78557 32H28.2159C30.7803 32 32.5847 29.3994 31.8247 26.8498C30.4958 22.4088 27.4959 18.7374 23.5938 16.6374H23.5894Z" fill="#BFEA6A"/>
<path d="M15.9985 20.4108C19.0651 20.4108 21.7939 18.9413 23.5894 16.6374C21.3139 15.4136 18.7362 14.7136 15.9985 14.7136C13.2608 14.7136 10.6831 15.409 8.40765 16.6374C10.2031 18.9367 12.9364 20.4108 15.9985 20.4108Z" fill="#2D3B36"/>
</svg>
