<svg width="32" height="32" viewBox="0 0 32 32" fill="none" xmlns="http://www.w3.org/2000/svg">
<g clip-path="url(#clip0_4_759)">
<path d="M13.3012 1.21391L3.94222 11.3693L3.93779 11.3737C2.43489 13.0037 2.83686 15.5212 4.44358 16.6561C4.44317 16.679 4.44297 16.7018 4.44297 16.7247V28.2179C4.44297 30.3067 6.13133 32 8.21404 32H23.7813C25.864 32 27.5524 30.3067 27.5524 28.2179V16.7247C27.5524 16.6992 27.5522 16.6737 27.5516 16.6483C29.1541 15.5157 29.5648 13.0202 28.0797 11.3871L18.8581 1.23613C17.3692 -0.403838 14.799 -0.412727 13.3012 1.21391Z" fill="#BFEA6A"/>
<path d="M15.9999 19.8891C17.4536 19.8891 18.6321 18.7072 18.6321 17.2492C18.6321 15.7912 17.4536 14.6092 15.9999 14.6092C14.5462 14.6092 13.3677 15.7912 13.3677 17.2492C13.3677 18.7072 14.5462 19.8891 15.9999 19.8891Z" fill="#2D3B36"/>
</g>
<defs>
<clipPath id="clip0_4_759">
<rect width="32" height="32" fill="white"/>
</clipPath>
</defs>
</svg>
