<svg width="32" height="32" viewBox="0 0 32 32" fill="none" xmlns="http://www.w3.org/2000/svg">
<path d="M25.4284 7.4L18.1492 0H5.62737C3.49003 0 1.76001 1.75556 1.76001 3.92444V28.0756C1.76001 30.2444 3.49003 32 5.62737 32H21.6005C23.7378 32 25.4678 30.2444 25.4678 28.0756" fill="#BFEA6A"/>
<path d="M25.4809 7.45333H18.136V0" fill="#52ACA1"/>
<path d="M22.8487 22.9867C22.8487 23.7244 23.4356 24.32 24.1626 24.32C24.8897 24.32 25.4766 23.7244 25.4766 22.9867V19.8178H28.4461C29.1731 19.8178 29.76 19.2222 29.76 18.4844C29.76 17.7467 29.1731 17.1511 28.4461 17.1511H25.4766V13.9822C25.4766 13.2444 24.8897 12.6489 24.1626 12.6489C23.4356 12.6489 22.8487 13.2444 22.8487 13.9822V17.1511H19.6996C18.9726 17.1511 18.3857 17.7467 18.3857 18.4844C18.3857 19.2222 18.9726 19.8178 19.6996 19.8178H22.8487V22.9867Z" fill="#2D3B36"/>
</svg>
