<svg width="32" height="32" viewBox="0 0 32 32" fill="none" xmlns="http://www.w3.org/2000/svg">
<path d="M16 29.76C15.1156 29.76 14.4 29.0446 14.4 28.1602V22.5211C14.4 21.6368 15.1156 20.9213 16 20.9213C16.8844 20.9213 17.6 21.6368 17.6 22.5211V28.1602C17.6 29.0446 16.8844 29.76 16 29.76Z" fill="#2D3B36"/>
<path d="M30.4 23.8853H1.59999C0.715545 23.8853 0 23.1699 0 22.2856V1.59976C0 0.715449 0.715545 0 1.59999 0H30.4C31.2844 0 32 0.715449 32 1.59976V22.2856C32 23.1699 31.2844 23.8853 30.4 23.8853Z" fill="#BFEA6A"/>
<path d="M24.2 29.76H7.79999C6.91555 29.76 6.19998 29.0446 6.19998 28.1602C6.19998 27.2759 6.91555 26.5605 7.79999 26.5605H24.2C25.0844 26.5605 25.8 27.2759 25.8 28.1602C25.8 29.0446 25.0844 29.76 24.2 29.76Z" fill="#2D3B36"/>
</svg>
