<svg width="32" height="32" viewBox="0 0 32 32" fill="none" xmlns="http://www.w3.org/2000/svg">
<path d="M29.0367 19.224C27.728 19.224 26.4057 18.2071 26.4057 16.26C26.4057 15.959 26.4422 15.5076 26.6109 15.0425C27.0031 13.9846 27.956 13.296 29.0367 13.296C30.6691 13.296 32.0005 14.6275 32.0005 16.26C32.0005 17.8925 30.6691 19.224 29.0367 19.224Z" fill="#BFEA6A"/>
<path d="M24.7825 26.52H4.7973C2.15267 26.52 0.000488281 24.3677 0.000488281 21.7229V10.7971C0.000488281 8.15232 2.15267 6 4.7973 6H24.7825C27.4271 6 29.5793 8.15232 29.5793 10.7971V21.7229C29.5793 24.3677 27.4271 26.52 24.7825 26.52ZM4.7973 9.19656C3.91727 9.19656 3.19684 9.91248 3.19684 10.7971V21.7229C3.19684 22.603 3.91271 23.3234 4.7973 23.3234H24.7825C25.6625 23.3234 26.3829 22.6075 26.3829 21.7229V10.7971C26.3829 9.91704 25.6671 9.19656 24.7825 9.19656H4.7973Z" fill="#2D3B36"/>
</svg>
