<svg width="32" height="32" viewBox="0 0 32 32" fill="none" xmlns="http://www.w3.org/2000/svg">
<path d="M15.6372 32C15.0374 32 14.4331 31.84 13.8865 31.5067C12.2868 30.5378 11.7758 28.4533 12.7489 26.8533L17.5569 18.9245H7.71437C6.47017 18.9245 5.32814 18.2445 4.73714 17.1511C4.14614 16.0578 4.1995 14.7289 4.87936 13.6889L12.8067 1.53779C13.8287 -0.0310932 15.9261 -0.471093 17.4947 0.551129C19.0588 1.57335 19.5032 3.67113 18.4811 5.24002L13.9709 12.1556H23.5735C24.7955 12.1556 25.9241 12.8133 26.524 13.88C27.1239 14.9467 27.1017 16.2533 26.4662 17.2978L18.5389 30.3689C17.9035 31.4178 16.7837 32 15.6417 32H15.6372Z" fill="#BFEA6A"/>
</svg>
