<svg width="32" height="33" viewBox="0 0 32 33" fill="none" xmlns="http://www.w3.org/2000/svg">
<path d="M13.3092 1.86526L3.91693 12.0206V12.0251C2.41078 13.6536 2.81188 16.168 4.41988 17.3044C4.41944 17.3282 4.41922 17.3521 4.41922 17.3761V28.8692C4.41922 30.958 6.11278 32.6514 8.20189 32.6514H23.8171C25.9062 32.6514 27.5998 30.958 27.5998 28.8692V17.3761C27.5998 17.3516 27.5995 17.3271 27.5991 17.3027C29.2101 16.1715 29.6242 13.6731 28.1332 12.0384L18.8832 1.88748C17.3896 0.247514 14.8116 0.238625 13.3092 1.86526Z" fill="#BFEA6A"/>
<path d="M15.545 13.3895H16.474C17.1982 13.3895 17.7852 13.9765 17.7852 14.7006V17.0917H20.1811C20.9053 17.0917 21.4924 17.6787 21.4924 18.4028V19.3317C21.4924 20.0558 20.9053 20.6428 20.1811 20.6428H17.7852V23.0338C17.7852 23.7579 17.1982 24.3449 16.474 24.3449H15.545C14.8208 24.3449 14.2337 23.7579 14.2337 23.0338V20.6428H11.8468C11.1226 20.6428 10.5355 20.0558 10.5355 19.3317V18.4028C10.5355 17.6787 11.1226 17.0917 11.8468 17.0917H14.2337V14.7006C14.2337 13.9765 14.8208 13.3895 15.545 13.3895Z" fill="#52ACA1"/>
</svg>
