<svg width="32" height="32" viewBox="0 0 32 32" fill="none" xmlns="http://www.w3.org/2000/svg">
<path d="M12.4397 20.7469C12.0308 20.7469 11.6219 20.5914 11.3063 20.2803C10.6796 19.6537 10.6796 18.6405 11.3063 18.0184L21.8448 7.48195C22.4715 6.85537 23.4805 6.85537 24.1072 7.48195C24.7339 8.10854 24.7339 9.12174 24.1072 9.74389L13.5687 20.2803C13.2576 20.5914 12.8486 20.7469 12.4353 20.7469H12.4397Z" fill="#BFEA6A"/>
<path d="M8.72835 24.4576C8.31943 24.4576 7.91052 24.302 7.59494 23.991L0.470002 16.8674C-0.156708 16.2408 -0.156708 15.2276 0.470002 14.6055C1.09671 13.9789 2.10567 13.9789 2.73238 14.6055L9.85732 21.729C10.484 22.3556 10.484 23.3688 9.85732 23.991C9.54619 24.302 9.13727 24.4576 8.72391 24.4576H8.72835Z" fill="#BFEA6A"/>
<path d="M16.1511 24.4576C15.7288 24.4576 15.3199 24.2887 15.0177 23.991L7.89274 16.8674C7.26603 16.2408 7.26603 15.2276 7.89274 14.6055C8.51945 13.9789 9.52841 13.9789 10.1551 14.6055L16.1466 20.5958L29.2676 7.47751C29.8943 6.85092 30.9032 6.85092 31.5299 7.47751C32.1566 8.1041 32.1566 9.1173 31.5299 9.73944L17.2801 23.9865C16.9823 24.2843 16.5733 24.4531 16.1466 24.4531L16.1511 24.4576Z" fill="#2D3B36"/>
</svg>
