<svg width="33" height="32" viewBox="0 0 33 32" fill="none" xmlns="http://www.w3.org/2000/svg">
<path d="M27.1522 9.89019H5.51874C3.57694 9.89019 2.00284 11.4644 2.00284 13.4063V27.9239C2.00284 29.8658 3.57694 31.44 5.51874 31.44H27.1522C29.094 31.44 30.6682 29.8658 30.6682 27.9239V13.4063C30.6682 11.4644 29.094 9.89019 27.1522 9.89019Z" fill="#BFEA6A"/>
<path d="M27.6989 15.131C26.2899 15.131 24.8808 14.6198 23.7385 13.7485C22.8051 14.6153 21.5249 15.131 20.1203 15.131C18.7157 15.131 17.3601 14.6242 16.3333 13.753C15.3021 14.6242 13.9597 15.131 12.5417 15.131C11.1238 15.131 9.857 14.6198 8.92356 13.7485C7.78121 14.6198 6.37215 15.131 4.96311 15.131C3.34071 15.131 1.93169 14.4597 1.10049 13.2907C0.287069 12.1483 0.109283 10.6592 0.61156 9.20564L2.5184 3.69373C3.07402 2.0846 4.59418 1 6.29659 1H26.361C28.0634 1 29.5836 2.08016 30.1437 3.69373L32.0506 9.21009C32.5528 10.6636 32.375 12.1527 31.5616 13.2951C30.726 14.4642 29.3213 15.1354 27.6989 15.1354V15.131Z" fill="#52ACA1"/>
<path d="M16.3333 18.8382C18.7513 18.8382 20.7115 20.7985 20.7115 23.2166V31.2844H11.9506V23.2166C11.9506 20.7985 13.9108 18.8382 16.3288 18.8382H16.3333Z" fill="#2D3B36"/>
</svg>
