<svg width="32" height="32" viewBox="0 0 32 32" fill="none" xmlns="http://www.w3.org/2000/svg">
<path d="M30.1402 30.9301H1.85984C0.833102 30.9301 0 30.0969 0 29.07V9.44694C0 8.42007 0.833102 7.58687 1.85984 7.58687H30.1402C31.1669 7.58687 32 8.42007 32 9.44694V29.07C32 30.0969 31.1669 30.9301 30.1402 30.9301Z" fill="#BFEA6A"/>
<path d="M26.3484 10.0955H5.65153L6.9665 4.50176C7.40331 2.63718 9.047 1.34009 10.9609 1.34009H21.0391C22.953 1.34009 24.5967 2.64169 25.0335 4.50176L26.3484 10.0955ZM8.82183 7.58687H23.1782L22.5882 5.07825C22.4171 4.35313 21.7822 3.84871 21.0391 3.84871H10.9609C10.2178 3.84871 9.57835 4.35313 9.41173 5.07825L8.82183 7.58687Z" fill="#52ACA1"/>
<path d="M27.1906 17.2971H4.80943C4.11593 17.2971 3.55301 16.7341 3.55301 16.0405C3.55301 15.3469 4.11593 14.7839 4.80943 14.7839H27.1906C27.8841 14.7839 28.4469 15.3469 28.4469 16.0405C28.4469 16.7341 27.8841 17.2971 27.1906 17.2971Z" fill="#52ACA1"/>
<path d="M15.6758 19.2562H16.3287C16.841 19.2562 17.2564 19.6716 17.2564 20.184V21.873H18.9451C19.4574 21.873 19.8728 22.2884 19.8728 22.8008V23.4538C19.8728 23.9662 19.4574 24.3816 18.9451 24.3816H17.2564V26.0705C17.2564 26.5829 16.841 26.9983 16.3287 26.9983H15.6758C15.1634 26.9983 14.7481 26.5829 14.7481 26.0705V24.3816H13.0594C12.5471 24.3816 12.1317 23.9662 12.1317 23.4538V22.8008C12.1317 22.2884 12.5471 21.873 13.0594 21.873H14.7481V20.184C14.7481 19.6716 15.1634 19.2562 15.6758 19.2562Z" fill="#52ACA1"/>
</svg>
