<svg width="32" height="32" viewBox="0 0 32 32" fill="none" xmlns="http://www.w3.org/2000/svg">
<path d="M21.5191 32H10.0009C7.79596 32 6 30.2044 6 28V4C6 1.79556 7.79596 0 10.0009 0H21.5191C23.724 0 25.52 1.79556 25.52 4V28C25.52 30.2044 23.724 32 21.5191 32Z" fill="#BFEA6A"/>
<path d="M18.0961 5.25333H13.4284C12.5437 5.25333 11.828 4.53778 11.828 3.65333C11.828 2.76889 12.5437 2.05333 13.4284 2.05333H18.0961C18.9807 2.05333 19.6965 2.76889 19.6965 3.65333C19.6965 4.53778 18.9807 5.25333 18.0961 5.25333Z" fill="#2D3B36"/>
</svg>
