<svg width="32" height="32" viewBox="0 0 32 32" fill="none" xmlns="http://www.w3.org/2000/svg">
<path d="M16.0023 31.9956C7.17769 31.9956 0 25.0232 0 16.451C0 11.5939 2.27363 7.10568 6.23532 4.1372C6.95355 3.59506 7.98742 3.72837 8.54554 4.42605C9.09907 5.12373 8.9664 6.12804 8.24817 6.67018C5.10078 9.02986 3.29376 12.5938 3.29376 16.451C3.29376 23.259 8.99385 28.796 16.0023 28.796C23.0107 28.796 28.7108 23.259 28.7108 16.451C28.7108 12.4249 26.6842 8.64324 23.2806 6.33245C22.5349 5.82586 22.3565 4.826 22.878 4.1061C23.3996 3.38175 24.4243 3.20844 25.17 3.71504C29.4473 6.62575 32 11.3895 32 16.4555C32 25.0276 24.8223 32 15.9977 32L16.0023 31.9956Z" fill="#BFEA6A"/>
<path d="M16.0023 15.8645C15.0919 15.8645 14.3554 15.149 14.3554 14.2647V1.59978C14.3554 0.715456 15.0919 0 16.0023 0C16.9127 0 17.6492 0.715456 17.6492 1.59978V14.2647C17.6492 15.149 16.9127 15.8645 16.0023 15.8645Z" fill="#2D3B36"/>
</svg>
