<svg width="32" height="32" viewBox="0 0 32 32" fill="none" xmlns="http://www.w3.org/2000/svg">
<path d="M21.7768 11.3689C20.8932 11.3689 20.1783 10.6533 20.1783 9.76889V7.74222C20.1783 5.24 18.1445 3.2 15.64 3.2C13.1355 3.2 11.1018 5.23556 11.1018 7.74222V9.76889C11.1018 10.6533 10.3869 11.3689 9.5032 11.3689C8.61953 11.3689 7.90459 10.6533 7.90459 9.76889V7.74222C7.90459 3.47111 11.3726 0 15.64 0C19.9074 0 23.3755 3.47111 23.3755 7.74222V9.76889C23.3755 10.6533 22.6605 11.3689 21.7768 11.3689Z" fill="#2D3B36"/>
<path d="M23.9749 32H7.30512C4.21895 32 1.71002 29.4889 1.71002 26.4V13.7689C1.71002 10.68 4.21895 8.16889 7.30512 8.16889H23.9749C27.0611 8.16889 29.57 10.68 29.57 13.7689V26.4C29.57 29.4889 27.0611 32 23.9749 32Z" fill="#BFEA6A"/>
<path d="M15.64 23.8044C14.7563 23.8044 14.0414 23.0889 14.0414 22.2044V17.5733C14.0414 16.6889 14.7563 15.9733 15.64 15.9733C16.5237 15.9733 17.2386 16.6889 17.2386 17.5733V22.2044C17.2386 23.0889 16.5237 23.8044 15.64 23.8044Z" fill="#2D3B36"/>
</svg>
