<svg width="32" height="32" viewBox="0 0 32 32" fill="none" xmlns="http://www.w3.org/2000/svg">
<path d="M28.0374 10.8C28.0419 10.6711 28.0465 10.5422 28.0465 10.4178C28.0465 4.67111 23.2814 0 17.4191 0C13.1074 0 9.21734 2.60444 7.59875 6.45333C3.31425 7.00444 0 10.6044 0 14.9511C0 19.6755 3.92179 23.52 8.74129 23.52H25.2037C28.9532 23.52 32 20.5289 32 16.8578C32 14.2311 30.3995 11.8756 28.0374 10.8044V10.8Z" fill="#BFEA6A"/>
<path d="M17.2015 16.3022C17.2015 15.6533 16.662 15.1245 16 15.1245C15.3381 15.1245 14.7985 15.6533 14.7985 16.3022V27.9778L12.5452 25.7689C12.314 25.5377 12.0057 25.4222 11.6974 25.4222V25.4266C11.3891 25.4266 11.0853 25.5377 10.8495 25.7689C10.3825 26.2266 10.3825 26.9733 10.8495 27.4311L15.078 31.5761C15.2986 31.8349 15.6302 32 16 32C16.2043 32 16.397 31.9496 16.5657 31.8608C16.6689 31.8074 16.7657 31.7382 16.8524 31.6533C16.882 31.6242 16.9098 31.594 16.9357 31.5627L21.155 27.4266C21.622 26.9689 21.622 26.2222 21.155 25.7644C20.9192 25.5377 20.6155 25.4222 20.3072 25.4222V25.4177C20.0034 25.4177 19.6951 25.5333 19.4593 25.7644L17.2015 27.9777V16.3022Z" fill="#2D3B36"/>
</svg>
