<svg width="32" height="32" viewBox="0 0 32 32" fill="none" xmlns="http://www.w3.org/2000/svg">
<path d="M4.79935 29.42C2.15083 29.42 0 27.269 0 24.6202V12.1496C0 9.50083 2.15083 7.34981 4.79935 7.34981H6.86569C7.46561 7.34981 8.00778 7.02093 8.2833 6.49207L8.76321 5.5721C9.59421 3.98106 11.2251 2.98999 13.0204 2.98999H18.9796C20.7749 2.98999 22.4058 3.98106 23.2368 5.5721L23.7167 6.48762C23.9922 7.02093 24.5388 7.34981 25.1343 7.34981H27.2006C29.8492 7.34981 32 9.50083 32 12.1496V24.6202C32 27.269 29.8492 29.42 27.2006 29.42H4.79935Z" fill="#BFEA6A"/>
<path d="M15.9978 22.758C19.0754 22.758 21.5704 20.2629 21.5704 17.1849C21.5704 14.107 19.0754 11.6119 15.9978 11.6119C12.9201 11.6119 10.4252 14.107 10.4252 17.1849C10.4252 20.2629 12.9201 22.758 15.9978 22.758Z" fill="#2D3B36"/>
</svg>
