<svg width="33" height="32" viewBox="0 0 33 32" fill="none" xmlns="http://www.w3.org/2000/svg">
<path d="M32.3397 21.0716C29.4796 21.0716 27.163 18.7552 27.163 15.8952C27.163 13.0353 29.4796 10.7188 32.3397 10.7188C32.3798 10.7188 32.4199 10.7233 32.46 10.7233V7.93463C32.46 5.76517 30.7047 4.01001 28.5352 4.01001H4.38476C2.21519 4.01001 0.459961 5.76517 0.459961 7.93463V10.7277C3.21758 10.8436 5.41834 13.1066 5.41834 15.8952C5.41834 18.6839 3.21758 20.9424 0.459961 21.0627V24.1454C0.459961 26.3148 2.21519 28.07 4.38476 28.07H28.5352C30.7047 28.07 32.46 26.3148 32.46 24.1454V21.0672C32.4199 21.0672 32.3798 21.0716 32.3397 21.0716Z" fill="#BFEA6A"/>
<path d="M20.5652 11.7301H12.3547C11.4837 11.7301 10.7776 12.4361 10.7776 13.307V13.3115C10.7776 14.1824 11.4837 14.8885 12.3547 14.8885H20.5652C21.4362 14.8885 22.1422 14.1824 22.1422 13.3115V13.307C22.1422 12.4361 21.4362 11.7301 20.5652 11.7301Z" fill="#2D3B36"/>
<path d="M20.5652 16.9065H12.3547C11.4837 16.9065 10.7776 17.6125 10.7776 18.4834V18.4879C10.7776 19.3588 11.4837 20.0649 12.3547 20.0649H20.5652C21.4362 20.0649 22.1422 19.3588 22.1422 18.4879V18.4834C22.1422 17.6125 21.4362 16.9065 20.5652 16.9065Z" fill="#2D3B36"/>
</svg>
