<svg width="33" height="32" viewBox="0 0 33 32" fill="none" xmlns="http://www.w3.org/2000/svg">
<path d="M9.38693 24.8133C10.7346 24.8133 11.8271 23.7208 11.8271 22.3731C11.8271 21.0254 10.7346 19.9329 9.38693 19.9329C8.03925 19.9329 6.94671 21.0254 6.94671 22.3731C6.94671 23.7208 8.03925 24.8133 9.38693 24.8133Z" fill="#52ACA1"/>
<path d="M29.4233 24.3521H16.4299V21.8269H26.8981V17.1837C26.8981 16.5256 26.3607 15.9883 25.7026 15.9883H9.39141V13.463H25.7026C27.7532 13.463 29.4233 15.1331 29.4233 17.1837V24.3521Z" fill="#52ACA1"/>
<path d="M8.54966 16.1315L6.60643 4.51255C6.57061 4.30211 6.38705 4.1454 6.17213 4.1454H2.07081C1.37234 4.1454 0.808208 3.58124 0.808208 2.88276C0.808208 2.18428 1.37234 1.62012 2.07081 1.62012H7.22879C8.06607 1.62012 8.78246 2.22457 8.92126 3.0529L11.0391 15.7107L8.54966 16.1271V16.1315Z" fill="#52ACA1"/>
<path d="M22.0893 11.0049H8.81829V8.47957H22.0893C22.7878 8.47957 23.3519 9.04373 23.3519 9.74222C23.3519 10.4407 22.7878 11.0049 22.0893 11.0049Z" fill="#BFEA6A"/>
<path d="M9.38693 31.0101C4.62297 31.0101 0.75 27.1371 0.75 22.3731C0.75 17.6091 4.62297 13.7361 9.38693 13.7361C14.1509 13.7361 18.0238 17.6091 18.0238 22.3731C18.0238 27.1371 14.1509 31.0101 9.38693 31.0101ZM9.38693 16.2569C6.01545 16.2569 3.27526 19.0016 3.27526 22.3686C3.27526 25.7357 6.01992 28.4804 9.38693 28.4804C12.7539 28.4804 15.4985 25.7357 15.4985 22.3686C15.4985 19.0016 12.7539 16.2569 9.38693 16.2569Z" fill="#BFEA6A"/>
<path d="M28.1607 31.0101C25.6309 31.0101 23.5713 28.9505 23.5713 26.4207C23.5713 23.891 25.6309 21.8313 28.1607 21.8313C30.6904 21.8313 32.75 23.891 32.75 26.4207C32.75 28.9505 30.6904 31.0101 28.1607 31.0101ZM28.1607 24.3521C27.0234 24.3521 26.0966 25.279 26.0966 26.4162C26.0966 27.5535 27.0234 28.4804 28.1607 28.4804C29.2979 28.4804 30.2292 27.5535 30.2292 26.4162C30.2292 25.279 29.3024 24.3521 28.1607 24.3521Z" fill="#BFEA6A"/>
</svg>
