<svg width="32" height="32" viewBox="0 0 32 32" fill="none" xmlns="http://www.w3.org/2000/svg">
<path d="M26.8721 10.0503H5.13226C3.17962 10.0503 1.59672 11.6543 1.59672 13.633V28.4173C1.59672 30.396 3.17962 32 5.13226 32H26.8721C28.8248 32 30.4077 30.396 30.4077 28.4173V13.633C30.4077 11.6543 28.8248 10.0503 26.8721 10.0503Z" fill="#BFEA6A"/>
<path fill-rule="evenodd" clip-rule="evenodd" d="M6.74892 5.54298C6.73868 5.47338 6.73337 5.40214 6.73337 5.32963C6.73337 2.39144 9.09335 0 11.9973 0C13.5149 0 14.8827 0.653164 15.8429 1.69618C16.8036 0.653164 18.1716 0 19.6869 0C22.5864 0 24.9464 2.39144 24.9464 5.32963C24.9464 5.40214 24.9411 5.47338 24.9309 5.54298H29.8813C31.0514 5.54298 32 6.50421 32 7.68994V12.3261C32 13.5119 31.0514 14.4731 29.8813 14.4731H17.7393V31.8578H14.2607V14.4731H2.11869C0.948561 14.4731 0 13.5119 0 12.3261V7.68994C0 6.50421 0.948561 5.54298 2.11869 5.54298H6.74892ZM14.443 5.54298C14.4327 5.47338 14.4274 5.40214 14.4274 5.32963C14.4274 3.96944 13.3352 2.86262 11.9929 2.86262C10.6506 2.86262 9.5583 3.96944 9.5583 5.32963C9.5583 5.40214 9.55299 5.47338 9.54275 5.54298H14.443ZM22.137 5.54298C22.1267 5.47338 22.1214 5.40214 22.1214 5.32963C22.1214 3.96944 21.0292 2.86262 19.6869 2.86262C18.3854 2.86262 17.319 3.90317 17.2554 5.2063C17.2563 5.2473 17.2567 5.28841 17.2567 5.32963C17.2567 5.40214 17.2514 5.47338 17.2412 5.54298H22.137Z" fill="#52ACA1"/>
</svg>
