<svg width="32" height="32" viewBox="0 0 32 32" fill="none" xmlns="http://www.w3.org/2000/svg">
<path d="M8.25334 8.57816C8.25334 9.48232 7.53776 10.2138 6.65332 10.2138C5.76888 10.2138 5.05333 9.48232 5.05333 8.57816V1.63567C5.05333 0.731506 5.76888 0 6.65332 0H25.3467C26.2311 0 26.9467 0.731506 26.9467 1.63567V8.58271C26.9467 9.48687 26.2311 10.2184 25.3467 10.2184C24.4622 10.2184 23.7467 9.48687 23.7467 8.58271" fill="#52ACA1"/>
<path d="M27.2 6.9425H4.79999C2.15111 6.9425 0 9.14156 0 11.8495V20.8547C0 23.5627 2.15111 25.7617 4.79999 25.7617C5.34666 25.7617 12.8622 25.4801 18.5244 25.053C22 25.4801 26.6578 25.7617 27.2 25.7617C29.8489 25.7617 32 23.5627 32 20.8547V11.8495C32 9.14156 29.8489 6.9425 27.2 6.9425Z" fill="#BFEA6A"/>
<path d="M25.3467 13.5715H6.53778C5.65334 13.5715 5.03556 14.303 5.03556 15.2072C5.03556 15.4252 4.98222 15.6297 5.05778 15.8205V30.3643C5.05778 31.2685 5.77332 32 6.65776 32H25.3511C26.2355 32 26.9511 31.2685 26.9511 30.3643V15.2026C26.9511 14.2985 26.2355 13.5669 25.3511 13.5669L25.3467 13.5715Z" fill="#52ACA1"/>
<path d="M20.1467 22.3859H12.2622C11.3778 22.3859 10.6622 21.6544 10.6622 20.7502C10.6622 19.8461 11.3778 19.1146 12.2622 19.1146H20.1467C21.0311 19.1146 21.7467 19.8461 21.7467 20.7502C21.7467 21.6544 21.0311 22.3859 20.1467 22.3859Z" fill="#BFEA6A"/>
<path d="M20.1467 26.2843H12.2622C11.3778 26.2843 10.6622 25.5527 10.6622 24.6486C10.6622 23.7444 11.3778 23.0129 12.2622 23.0129H20.1467C21.0311 23.0129 21.7467 23.7444 21.7467 24.6486C21.7467 25.5527 21.0311 26.2843 20.1467 26.2843Z" fill="#BFEA6A"/>
</svg>
