<svg width="32" height="32" viewBox="0 0 32 32" fill="none" xmlns="http://www.w3.org/2000/svg">
<path d="M29.0371 19.224C27.7287 19.224 26.4065 18.2071 26.4065 16.26C26.4065 15.959 26.443 15.5076 26.6117 15.0425C27.0038 13.9846 27.9566 13.296 29.0371 13.296C30.6692 13.296 32.0005 14.6275 32.0005 16.26C32.0005 17.8925 30.6692 19.224 29.0371 19.224Z" fill="#BFEA6A"/>
<path d="M24.779 26.52H4.79662C2.15237 26.52 0.000488281 24.3677 0.000488281 21.7229V10.7971C0.000488281 8.15232 2.15237 6 4.79662 6H24.779C27.4232 6 29.5751 8.15232 29.5751 10.7971V21.7229C29.5751 24.3677 27.4232 26.52 24.779 26.52ZM4.79662 9.19656C3.91672 9.19656 3.19639 9.91248 3.19639 10.7971V21.7229C3.19639 22.603 3.91217 23.3234 4.79662 23.3234H24.779C25.6589 23.3234 26.3792 22.6075 26.3792 21.7229V10.7971C26.3792 9.91704 25.6634 9.19656 24.779 9.19656H4.79662Z" fill="#2D3B36"/>
<path d="M8.04723 23.1775C7.16277 23.1775 6.447 22.4616 6.447 21.577V11.4902C6.447 10.6056 7.16277 9.88968 8.04723 9.88968C8.93169 9.88968 9.64746 10.6056 9.64746 11.4902V21.577C9.64746 22.4616 8.93169 23.1775 8.04723 23.1775Z" fill="#BFEA6A"/>
<path d="M21.077 23.1775C20.1925 23.1775 19.4768 22.4616 19.4768 21.577V11.4902C19.4768 10.6056 20.1925 9.88968 21.077 9.88968C21.9614 9.88968 22.6772 10.6056 22.6772 11.4902V21.577C22.6772 22.4616 21.9614 23.1775 21.077 23.1775Z" fill="#BFEA6A"/>
<path d="M14.5621 22.9541C13.6777 22.9541 12.9619 22.2382 12.9619 21.3535V11.2668C12.9619 10.3822 13.6777 9.66624 14.5621 9.66624C15.4466 9.66624 16.1623 10.3822 16.1623 11.2668V21.3535C16.1623 22.2382 15.4466 22.9541 14.5621 22.9541Z" fill="#BFEA6A"/>
</svg>
