<svg width="32" height="32" viewBox="0 0 32 32" fill="none" xmlns="http://www.w3.org/2000/svg">
<path d="M7.55064 32C5.533 32 3.63979 31.2134 2.21323 29.7868C0.786658 28.3603 0 26.4671 0 24.4494C0 22.4318 0.786658 20.5386 2.21323 19.112L8.595 12.7302C9.21718 12.108 10.226 12.108 10.8482 12.7302C11.4703 13.3524 11.4703 14.3612 10.8482 14.9834L4.46638 21.3652C3.64421 22.1873 3.18647 23.285 3.18647 24.4494C3.18647 25.6138 3.63977 26.7115 4.46638 27.5336C5.28854 28.3558 6.38627 28.8136 7.55064 28.8136C8.715 28.8136 9.81268 28.3603 10.6348 27.5336L17.0166 21.1519C17.6388 20.5297 18.6476 20.5297 19.2698 21.1519C19.892 21.774 19.892 22.7829 19.2698 23.405L12.888 29.7868C11.4614 31.2134 9.56828 32 7.55064 32Z" fill="#2D3B36"/>
<path d="M22.4785 19.5431C22.0696 19.5431 21.6652 19.3875 21.3541 19.0765C20.7319 18.4543 20.7319 17.4455 21.3541 16.8233L27.5448 10.6326C29.2469 8.93049 29.2469 6.16179 27.5448 4.45969C25.8427 2.75759 23.074 2.75759 21.3719 4.45969L15.1812 10.6504C14.559 11.2725 13.5502 11.2725 12.928 10.6504C12.3058 10.0282 12.3058 9.01937 12.928 8.39719L19.1187 2.20651C22.0607 -0.735504 26.8515 -0.735504 29.7935 2.20651C32.7355 5.14853 32.7355 9.93931 29.7935 12.8813L23.6028 19.072C23.2917 19.3831 22.8829 19.5386 22.4785 19.5386V19.5431Z" fill="#2D3B36"/>
<path d="M12.3369 21.2585C11.928 21.2585 11.5237 21.103 11.2126 20.7919C10.5904 20.1697 10.5904 19.1609 11.2126 18.5387L18.5499 11.2014C19.172 10.5793 20.1808 10.5793 20.803 11.2014C21.4252 11.8236 21.4252 12.8324 20.803 13.4546L13.4657 20.7919C13.1546 21.103 12.7458 21.2585 12.3414 21.2585H12.3369Z" fill="#BFEA6A"/>
</svg>
