<svg width="32" height="33" viewBox="0 0 32 33" fill="none" xmlns="http://www.w3.org/2000/svg">
<path d="M9.7494 12.378C9.11389 12.378 8.50949 11.9958 8.26062 11.3646L8.18952 11.1824C8.17618 11.1512 8.16286 11.1157 8.15397 11.0846C6.8563 7.02196 9.105 2.66155 13.1713 1.36365C16.3622 0.341335 19.8241 1.48366 21.7884 4.19503C22.3039 4.91065 22.144 5.91075 21.4329 6.42635C20.7174 6.94195 19.7175 6.78194 19.202 6.06632C18.051 4.47506 16.0156 3.80833 14.1446 4.40394C11.7759 5.15956 10.456 7.68869 11.1893 10.0622L11.2382 10.1911C11.5626 11.0134 11.1582 11.9424 10.336 12.2669C10.1449 12.3425 9.94494 12.378 9.7494 12.378Z" fill="#2D3B36"/>
<path d="M24.2149 32.9933H7.54513C4.46093 32.9933 1.95001 30.4819 1.95001 27.3972V14.7738C1.95001 11.6891 4.46093 9.17772 7.54513 9.17772H24.2149C27.2991 9.17772 29.81 11.6891 29.81 14.7738V27.3972C29.81 30.4819 27.2991 32.9933 24.2149 32.9933Z" fill="#BFEA6A"/>
<path d="M18.1932 22.6857H13.5669C12.6825 22.6857 11.967 21.97 11.967 21.0855C11.967 20.201 12.6825 19.4854 13.5669 19.4854H18.1932C19.0775 19.4854 19.793 20.201 19.793 21.0855C19.793 21.97 19.0775 22.6857 18.1932 22.6857Z" fill="#2D3B36"/>
</svg>
