<svg width="33" height="32" viewBox="0 0 33 32" fill="none" xmlns="http://www.w3.org/2000/svg">
<path d="M25.9172 16.3667C26.9794 14.9403 27.6194 13.1209 27.6194 11.1414C27.6194 6.56149 24.2193 2.84998 20.0237 2.84998C15.828 2.84998 12.4279 6.56149 12.4279 11.1414C12.4279 13.1209 13.0679 14.9403 14.1302 16.3667C15.8947 15.3721 17.8992 14.8044 20.0237 14.8044C22.1482 14.8044 24.1482 15.3721 25.9172 16.3667Z" fill="#94DCD9"/>
<path d="M25.9172 16.3667C24.526 18.2346 22.4015 19.4329 20.0237 19.4329C17.6458 19.4329 15.5258 18.2394 14.1302 16.3667C11.099 18.0745 8.77 21.0534 7.73886 24.663C7.14773 26.7347 8.54778 28.85 10.5389 28.85H29.5039C31.4951 28.85 32.8951 26.7395 32.304 24.663C31.2729 21.0582 28.9439 18.0745 25.9127 16.3667H25.9172Z" fill="#BFEA6A"/>
<path d="M20.0237 19.4329C22.4015 19.4329 24.5216 18.2394 25.9172 16.3667C24.1527 15.3721 22.1482 14.8044 20.0237 14.8044C17.8992 14.8044 15.8991 15.3721 14.1302 16.3667C15.5213 18.2346 17.6458 19.4329 20.0237 19.4329Z" fill="#2D3B36"/>
<path d="M8.86334 11.4908C9.35224 10.8358 9.64559 9.99646 9.64559 9.0892C9.64559 6.98358 8.0811 5.2758 6.15215 5.2758C4.22321 5.2758 2.65872 6.98358 2.65872 9.0892C2.65872 10.0013 2.95206 10.8358 3.44096 11.4908C4.25432 11.0347 5.17435 10.7727 6.15215 10.7727C7.12996 10.7727 8.04998 11.0347 8.86334 11.4908Z" fill="#94DCD9"/>
<path d="M8.86334 11.4908C8.22332 12.3495 7.24552 12.9026 6.15215 12.9026C5.05879 12.9026 4.08098 12.3544 3.44096 11.4908C2.04537 12.2767 0.974224 13.6498 0.503099 15.309C0.23198 16.2648 0.876447 17.2351 1.79203 17.2351H10.5167C11.4323 17.2351 12.0768 16.2648 11.8056 15.309C11.3301 13.6498 10.2589 12.2767 8.86779 11.4908H8.86334Z" fill="#BFEA6A"/>
<path d="M6.1566 12.9026C7.24996 12.9026 8.22777 12.3544 8.86779 11.4908C8.05443 11.0347 7.1344 10.7727 6.1566 10.7727C5.17879 10.7727 4.25877 11.0347 3.44541 11.4908C4.08543 12.3495 5.06323 12.9026 6.1566 12.9026Z" fill="#2D3B36"/>
</svg>
