<svg width="32" height="32" viewBox="0 0 32 32" fill="none" xmlns="http://www.w3.org/2000/svg">
<path d="M18.7111 32H13.2889C12.4044 32 11.6889 31.2844 11.6889 30.4V27.2044C11.4978 27.1333 11.3111 27.0533 11.1289 26.9689L8.86667 29.2311C8.24 29.8578 7.23111 29.8578 6.60444 29.2311L2.76889 25.3956C2.46666 25.0978 2.30223 24.6889 2.30223 24.2622C2.30223 23.8356 2.47111 23.4311 2.76889 23.1289L5.03111 20.8667C4.95111 20.6844 4.87111 20.4978 4.8 20.3067H1.6C0.715558 20.3067 0 19.5911 0 18.7067V13.2844C0 12.4 0.715558 11.6844 1.6 11.6844H4.8C4.87111 11.4978 4.95111 11.3111 5.03111 11.1244L2.76889 8.86222C2.46666 8.56444 2.30223 8.15555 2.30223 7.72889C2.30223 7.30222 2.47111 6.89778 2.76889 6.59556L6.60444 2.76C7.23111 2.13333 8.24 2.13333 8.86667 2.76L11.1289 5.02222C11.3156 4.93778 11.5022 4.86222 11.6889 4.78667V1.6C11.6889 0.715555 12.4044 0 13.2889 0H18.7111C19.5956 0 20.3111 0.715555 20.3111 1.6V4.79556C20.4978 4.86667 20.6844 4.94667 20.8711 5.02667L23.1333 2.76444C23.76 2.13778 24.7689 2.13778 25.3956 2.76444L29.2311 6.6C29.5289 6.90222 29.6978 7.30667 29.6978 7.73333C29.6978 8.16 29.5289 8.56444 29.2311 8.86667L26.9689 11.1289C27.0489 11.3111 27.1289 11.4978 27.2 11.6889H30.4C31.2844 11.6889 32 12.4044 32 13.2889V18.7111C32 19.5956 31.2844 20.3111 30.4 20.3111H27.2C27.1289 20.4978 27.0489 20.6844 26.9689 20.8711L29.2311 23.1333C29.5289 23.4311 29.6978 23.84 29.6978 24.2667C29.6978 24.6933 29.5289 25.0978 29.2311 25.4L25.3956 29.2356C24.7689 29.8622 23.76 29.8622 23.1333 29.2356L20.8711 26.9733C20.6844 27.0578 20.4978 27.1333 20.3111 27.2044V30.4C20.3111 31.2844 19.5956 32 18.7111 32Z" fill="#BFEA6A"/>
<path d="M16 22.2489C12.5556 22.2489 9.75111 19.4444 9.75111 16C9.75111 12.5556 12.5556 9.75111 16 9.75111C19.4444 9.75111 22.2489 12.5556 22.2489 16C22.2489 19.4444 19.4444 22.2489 16 22.2489ZM16 12.9511C14.32 12.9511 12.9511 14.32 12.9511 16C12.9511 17.68 14.32 19.0489 16 19.0489C17.68 19.0489 19.0489 17.68 19.0489 16C19.0489 14.32 17.68 12.9511 16 12.9511Z" fill="#2D3B36"/>
</svg>
