<svg width="32" height="32" viewBox="0 0 32 32" fill="none" xmlns="http://www.w3.org/2000/svg">
<path d="M22.91 27.48H9.54999C6.90111 27.48 4.75 25.3289 4.75 22.68V9.32C4.75 6.67111 6.90111 4.52 9.54999 4.52H22.91C25.5589 4.52 27.71 6.67111 27.71 9.32V22.68C27.71 25.3289 25.5589 27.48 22.91 27.48Z" fill="#BFEA6A"/>
<path d="M20.1367 3.2H12.3322C11.4478 3.2 10.7322 2.48444 10.7322 1.6C10.7322 0.715555 11.4478 0 12.3322 0H20.1367C21.0211 0 21.7367 0.715555 21.7367 1.6C21.7367 2.48444 21.0211 3.2 20.1367 3.2Z" fill="#2D3B36"/>
<path d="M20.1367 32H12.3322C11.4478 32 10.7322 31.2844 10.7322 30.4C10.7322 29.5156 11.4478 28.8 12.3322 28.8H20.1367C21.0211 28.8 21.7367 29.5156 21.7367 30.4C21.7367 31.2844 21.0211 32 20.1367 32Z" fill="#2D3B36"/>
<path d="M20.8433 17.6H16.23C15.3455 17.6 14.63 16.8844 14.63 16V11.0578C14.63 10.1733 15.3455 9.45778 16.23 9.45778C17.1144 9.45778 17.83 10.1733 17.83 11.0578V14.4H20.8433C21.7278 14.4 22.4433 15.1156 22.4433 16C22.4433 16.8844 21.7278 17.6 20.8433 17.6Z" fill="#2D3B36"/>
</svg>
