<svg width="32" height="32" viewBox="0 0 32 32" fill="none" xmlns="http://www.w3.org/2000/svg">
<path d="M5.82384 27.7689C5.41483 27.7689 5.00581 27.6133 4.69017 27.3022C4.06332 26.6756 4.06332 25.6622 4.69017 25.04L25.047 4.68889C25.6738 4.06222 26.6874 4.06222 27.3098 4.68889C27.9367 5.31556 27.9367 6.32889 27.3098 6.95111L6.95306 27.3022C6.64186 27.6133 6.23284 27.7689 5.81939 27.7689H5.82384Z" fill="#2D3B36"/>
<path d="M16 32C11.7233 32 7.70437 30.3333 4.68131 27.3111C-1.56044 21.0711 -1.56044 10.92 4.68131 4.68C10.923 -1.56 21.0814 -1.56 27.3187 4.68C33.5604 10.92 33.5604 21.0711 27.3187 27.3111C24.2956 30.3333 20.2767 32 16 32ZM16 3.2C12.7191 3.2 9.44262 4.44889 6.94414 6.94222C1.95164 11.9333 1.95164 20.0578 6.94414 25.0489C9.3626 27.4667 12.5768 28.8 16 28.8C19.4232 28.8 22.6374 27.4667 25.0559 25.0489C30.0484 20.0578 30.0484 11.9333 25.0559 6.94222C22.5574 4.44444 19.2809 3.2 16 3.2Z" fill="#BFEA6A"/>
</svg>
