<svg width="32" height="32" viewBox="0 0 32 32" fill="none" xmlns="http://www.w3.org/2000/svg">
<path d="M15.9 32C15.0157 32 14.3003 31.2844 14.3003 30.4V26.76C14.3003 25.8756 15.0157 25.16 15.9 25.16C16.7843 25.16 17.4997 25.8756 17.4997 26.76V30.4C17.4997 31.2844 16.7843 32 15.9 32Z" fill="#BFEA6A"/>
<path d="M15.9 22.3733C12.6073 22.3733 9.92779 19.6933 9.92779 16.4V5.97333C9.92779 2.68 12.6073 0 15.9 0C19.1927 0 21.8722 2.68 21.8722 5.97333V16.4C21.8722 19.6933 19.1927 22.3733 15.9 22.3733Z" fill="#BFEA6A"/>
<path d="M15.9 28.36C9.33679 28.36 4 23.0222 4 16.4578C4 15.5733 4.71541 14.8578 5.59969 14.8578C6.48397 14.8578 7.19941 15.5733 7.19941 16.4578C7.19941 21.2578 11.1009 25.16 15.9 25.16C20.6991 25.16 24.6006 21.2578 24.6006 16.4578C24.6006 15.5733 25.316 14.8578 26.2003 14.8578C27.0846 14.8578 27.8 15.5733 27.8 16.4578C27.8 23.0222 22.4632 28.36 15.9 28.36Z" fill="#2D3B36"/>
</svg>
