<svg width="32" height="33" viewBox="0 0 32 33" fill="none" xmlns="http://www.w3.org/2000/svg">
<path d="M16.26 32.83C23.1636 32.83 28.76 30.4246 28.76 27.4574C28.76 24.4902 23.1636 22.0848 16.26 22.0848C9.35644 22.0848 3.75999 24.4902 3.75999 27.4574C3.75999 30.4246 9.35644 32.83 16.26 32.83Z" fill="#BFEA6A"/>
<path d="M18.0058 7.94452C18.0058 6.97018 17.1913 6.18032 16.1867 6.18032C15.182 6.18032 14.3676 6.97018 14.3676 7.94452V26.1198C14.3676 27.0941 15.182 27.884 16.1867 27.884C17.1913 27.884 18.0058 27.0941 18.0058 26.1198V7.94452Z" fill="#2D3B36"/>
<path d="M16.26 13.246C19.7953 13.246 22.6612 10.4666 22.6612 7.03798C22.6612 3.60938 19.7953 0.829956 16.26 0.829956C12.7247 0.829956 9.85879 3.60938 9.85879 7.03798C9.85879 10.4666 12.7247 13.246 16.26 13.246Z" fill="#52ACA1"/>
</svg>
