<svg width="32" height="32" viewBox="0 0 32 32" fill="none" xmlns="http://www.w3.org/2000/svg">
<path d="M29.0044 7.45667H7.99555C6.34115 7.45667 5 8.79782 5 10.4522V26.7544C5 28.4088 6.34115 29.75 7.99555 29.75H29.0044C30.6588 29.75 32 28.4088 32 26.7544V10.4522C32 8.79782 30.6588 7.45667 29.0044 7.45667Z" fill="#BFEA6A"/>
<path d="M23.7022 2.75C25.5244 2.75 27 4.23 27 6.04778V29.75H3.29774C1.47552 29.75 0 28.27 0 26.4522V6.04778C0 4.22556 1.47997 2.75 3.29774 2.75H23.7022Z" fill="#94DCD9"/>
<path d="M21.3555 9.01222H5.04443C4.54124 9.01222 4.1333 9.41915 4.1333 9.92111C4.1333 10.4231 4.54124 10.83 5.04443 10.83H21.3555C21.8587 10.83 22.2667 10.4231 22.2667 9.92111C22.2667 9.41915 21.8587 9.01222 21.3555 9.01222Z" fill="#52ACA1"/>
<path d="M21.3555 15.4078H5.04443C4.54124 15.4078 4.1333 15.8147 4.1333 16.3167C4.1333 16.8186 4.54124 17.2256 5.04443 17.2256H21.3555C21.8587 17.2256 22.2667 16.8186 22.2667 16.3167C22.2667 15.8147 21.8587 15.4078 21.3555 15.4078Z" fill="#52ACA1"/>
<path d="M21.3555 21.8033H5.04443C4.54124 21.8033 4.1333 22.2103 4.1333 22.7122C4.1333 23.2142 4.54124 23.6211 5.04443 23.6211H21.3555C21.8587 23.6211 22.2667 23.2142 22.2667 22.7122C22.2667 22.2103 21.8587 21.8033 21.3555 21.8033Z" fill="#52ACA1"/>
</svg>
