<svg width="32" height="32" viewBox="0 0 32 32" fill="none" xmlns="http://www.w3.org/2000/svg">
<path d="M30.4751 7.44356C29.5149 6.85684 28.3501 6.81239 27.3454 7.32355L22.5885 9.7549V22.1961L27.3454 24.6319C27.8077 24.8675 28.3056 24.9875 28.8036 24.9875C29.3815 24.9875 29.9594 24.8275 30.4707 24.5119C31.431 23.9252 32 22.9029 32 21.7828V10.1727C32 9.04817 31.4265 8.03029 30.4707 7.44356H30.4751Z" fill="#52ACA1"/>
<path d="M22.5396 9.78602V9.51043C22.5396 6.86128 20.3879 4.70996 17.7383 4.70996H4.79688C2.1517 4.70996 0 6.86573 0 9.51043V22.4495C0 25.0986 2.1517 27.25 4.80133 27.25H17.7427C20.3923 27.25 22.544 25.0986 22.544 22.4495V22.1739L22.5929 22.2006V9.75935L22.544 9.78602H22.5396Z" fill="#BFEA6A"/>
</svg>
