<svg width="32" height="32" viewBox="0 0 32 32" fill="none" xmlns="http://www.w3.org/2000/svg">
<path d="M28.1644 0H4C1.79111 0 0 1.79111 0 4V28C0 30.2089 1.79111 32 4 32H28C30.2089 32 32 30.2089 32 28V3.83556C32 1.72 30.2844 0 28.1644 0ZM28 28.8H4C3.56 28.8 3.19998 28.44 3.19998 28V4C3.19998 3.56 3.56 3.2 4 3.2H28.0133C28.4489 3.2 28.8 3.55111 28.8 3.98667V28C28.8 28.44 28.44 28.8 28 28.8Z" fill="#BFEA6A"/>
<path d="M7.16 24.8355C7.47498 25.1461 7.88296 25.3016 8.29111 25.3022L8.28887 25.3022H8.29332L8.29111 25.3022C8.70368 25.3016 9.11165 25.1461 9.4222 24.8355L15.9955 18.2622L22.5689 24.8355C22.8839 25.1461 23.2918 25.3016 23.7 25.3022L23.6978 25.3022H23.7022L23.7 25.3022C24.1126 25.3016 24.5206 25.1461 24.8311 24.8355C25.4578 24.2133 25.4578 23.2 24.8311 22.5733L18.2578 16L24.8267 9.43108C25.4533 8.80886 25.4533 7.79552 24.8267 7.16886C24.2044 6.54219 23.1911 6.54663 22.5644 7.16886L15.9955 13.7377L9.42665 7.16886C8.80443 6.54219 7.79111 6.54663 7.16444 7.16886C6.53778 7.79108 6.53778 8.80441 7.16444 9.43108L13.7333 16L7.16 22.5733C6.53333 23.1955 6.53333 24.2089 7.16 24.8355Z" fill="#2D3B36"/>
</svg>
