<svg width="32" height="32" viewBox="0 0 32 32" fill="none" xmlns="http://www.w3.org/2000/svg">
<path d="M29.6305 2.36987C28.103 0.842223 26.0739 0 23.9104 0C21.7514 0 19.7178 0.842223 18.1948 2.36987L10.3964 10.1694L21.8365 21.6111L29.6349 13.8116C32.7884 10.6577 32.7884 5.52821 29.6349 2.37435L29.6305 2.36987Z" fill="#52ACA1"/>
<path d="M22.4905 20.8898L11.0549 9.50637L2.36506 18.1974C-0.788354 21.3513 -0.788354 26.4808 2.36506 29.6346C3.94177 31.2115 6.01119 32 8.0851 32C10.159 32 12.2284 31.2115 13.8007 29.6346L21.5991 21.8351L21.5722 21.8082L22.4905 20.8898Z" fill="#BFEA6A"/>
</svg>
