<svg width="32" height="32" viewBox="0 0 32 32" fill="none" xmlns="http://www.w3.org/2000/svg">
<path d="M31.6243 14.2164C31.9433 17.2071 31.447 20.0547 30.3304 22.5581C30.1443 22.9783 30.0468 23.4388 30.0956 23.8992C30.2905 25.7723 31.5135 28.8569 31.9743 30.7255C32.1294 31.3558 31.5578 31.9325 30.9375 31.7582C29.1429 31.2575 26.1964 30.0952 24.3265 29.9834C23.8701 29.9566 23.4225 30.0728 23.0149 30.283C20.7551 31.4363 18.1807 32.0622 15.4601 31.9951C6.90392 31.785 -0.0659931 24.5027 0.000471435 15.866C0.0757979 6.55414 8.03822 -0.862228 17.4762 0.0810238C24.8404 0.818638 30.8223 6.7866 31.6198 14.2119L31.6243 14.2164Z" fill="#BFEA6A"/>
<path d="M8.45475 18.5437C10.0943 18.5437 11.4235 17.2027 11.4235 15.5486C11.4235 13.8944 10.0943 12.5534 8.45475 12.5534C6.81516 12.5534 5.48603 13.8944 5.48603 15.5486C5.48603 17.2027 6.81516 18.5437 8.45475 18.5437Z" fill="#2D3B36"/>
<path d="M23.5511 18.5437C25.1907 18.5437 26.5198 17.2027 26.5198 15.5486C26.5198 13.8944 25.1907 12.5534 23.5511 12.5534C21.9115 12.5534 20.5823 13.8944 20.5823 15.5486C20.5823 17.2027 21.9115 18.5437 23.5511 18.5437Z" fill="#94DCD9"/>
<path d="M15.9431 18.5437C17.5827 18.5437 18.9118 17.2027 18.9118 15.5486C18.9118 13.8944 17.5827 12.5534 15.9431 12.5534C14.3035 12.5534 12.9744 13.8944 12.9744 15.5486C12.9744 17.2027 14.3035 18.5437 15.9431 18.5437Z" fill="#52ACA1"/>
</svg>
