<svg width="32" height="32" viewBox="0 0 32 32" fill="none" xmlns="http://www.w3.org/2000/svg">
<path d="M28.0443 22.2055H3.94685C3.06259 22.2055 2.34718 21.4902 2.34718 20.606V4.58943C2.34718 3.70529 3.06259 2.98999 3.94685 2.98999H28.0443C28.9285 2.98999 29.6439 3.70529 29.6439 4.58943V20.6105C29.6439 21.4946 28.9285 22.2099 28.0443 22.2099V22.2055Z" fill="#BFEA6A"/>
<path d="M1.60068 28.31C1.07189 28.31 0.578644 28.0523 0.280926 27.6169C-0.0167918 27.1815 -0.0834244 26.6306 0.107648 26.1374L2.45828 20.0329C2.69379 19.4153 3.28922 19.0066 3.9513 19.0066H28.0487C28.7108 19.0066 29.3018 19.4153 29.5417 20.0329L31.8924 26.1374C32.0834 26.6306 32.0168 27.1815 31.7191 27.6169C31.4213 28.0523 30.9281 28.31 30.3993 28.31H1.60068Z" fill="#52ACA1"/>
</svg>
