<svg width="32" height="32" viewBox="0 0 32 32" fill="none" xmlns="http://www.w3.org/2000/svg">
<path d="M13.0447 31.9956C5.8534 31.9956 0 26.0853 0 18.8241C0 11.5628 5.8534 5.65255 13.0447 5.65255C13.9293 5.65255 14.6467 6.37689 14.6467 7.2701V17.2109H24.4918C25.3764 17.2109 26.0938 17.9353 26.0938 18.8285C26.0938 26.0897 20.2404 32 13.0491 32L13.0447 31.9956Z" fill="#BFEA6A"/>
<path d="M30.398 14.7846H18.9553C18.0707 14.7846 17.3534 14.0603 17.3534 13.1671V1.61755C17.3578 0.724344 18.0707 0 18.9553 0C26.1466 0 32 5.91029 32 13.1715C32 14.0647 31.2826 14.7891 30.398 14.7891V14.7846Z" fill="#52ACA1"/>
</svg>
