<svg width="32" height="32" viewBox="0 0 32 32" fill="none" xmlns="http://www.w3.org/2000/svg">
<path d="M22.1155 11.3911C21.2311 11.3911 20.5112 10.6711 20.5112 9.78667V7.75555C20.5112 5.24444 18.4714 3.20444 15.9606 3.20444C13.4497 3.20444 11.41 5.24444 11.41 7.75555V9.78667C11.41 10.6711 10.69 11.3911 9.80569 11.3911C8.92135 11.3911 8.20142 10.6711 8.20142 9.78667V7.75555C8.20587 3.48 11.6855 0 15.9606 0C20.2357 0 23.7153 3.48 23.7153 7.76V9.79111C23.7153 10.6756 22.9954 11.3956 22.111 11.3956L22.1155 11.3911Z" fill="#2D3B36"/>
<path d="M3.64192 10.1333V28.4667C3.64192 30.4181 5.22368 32 7.17487 32H24.6752C26.6264 32 28.2081 30.4181 28.2081 28.4667V10.1333C28.2081 8.18193 26.6264 6.6 24.6752 6.6H7.17487C5.22368 6.6 3.64192 8.18193 3.64192 10.1333Z" fill="#BFEA6A"/>
<path d="M11.1922 12.0489C11.1922 11.1775 10.4859 10.4711 9.61461 10.4711C8.74332 10.4711 8.037 11.1775 8.037 12.0489V26.6844C8.037 27.5558 8.74332 28.2622 9.61461 28.2622C10.4859 28.2622 11.1922 27.5558 11.1922 26.6844V12.0489Z" fill="#2D3B36"/>
<path d="M17.5026 12.0489C17.5026 11.1775 16.7963 10.4711 15.925 10.4711C15.0537 10.4711 14.3474 11.1775 14.3474 12.0489V26.6844C14.3474 27.5558 15.0537 28.2622 15.925 28.2622C16.7963 28.2622 17.5026 27.5558 17.5026 26.6844V12.0489Z" fill="#2D3B36"/>
<path d="M23.8175 12.0489C23.8175 11.1775 23.1112 10.4711 22.2399 10.4711C21.3686 10.4711 20.6623 11.1775 20.6623 12.0489V26.6844C20.6623 27.5558 21.3686 28.2622 22.2399 28.2622C23.1112 28.2622 23.8175 27.5558 23.8175 26.6844V12.0489Z" fill="#2D3B36"/>
<path d="M29.7324 9.34222C30.6037 9.34222 31.31 8.63583 31.31 7.76444C31.31 6.89306 30.6037 6.18667 29.7324 6.18667H2.11764C1.24636 6.18667 0.540039 6.89306 0.540039 7.76444C0.540039 8.63583 1.24636 9.34222 2.11764 9.34222H29.7324Z" fill="#BFEA6A"/>
</svg>
