<svg width="32" height="32" viewBox="0 0 32 32" fill="none" xmlns="http://www.w3.org/2000/svg">
<path d="M28.0714 6.03556H3.92412C1.7569 6.03556 0 7.78463 0 9.94222V26.0756C0 28.2331 1.7569 29.9822 3.92412 29.9822H28.0714C30.2387 29.9822 31.9955 28.2331 31.9955 26.0756V9.94222C31.9955 7.78463 30.2387 6.03556 28.0714 6.03556Z" fill="#BFEA6A"/>
<path d="M28.0714 29.9822C30.2366 29.9822 31.9955 28.2311 31.9955 26.0756V22.5911L24.5938 29.9511L28.067 29.9867L28.0714 29.9822Z" fill="#94DCD9"/>
<path d="M24.5491 30V22.5822H32" fill="#52ACA1"/>
<path d="M9.69644 2.78667C9.69644 2.3522 9.34366 2 8.90849 2C8.47332 2 8.12054 2.3522 8.12054 2.78667V9.73778C8.12054 10.1722 8.47332 10.5244 8.90849 10.5244C9.34366 10.5244 9.69644 10.1722 9.69644 9.73778V2.78667Z" fill="#2D3B36"/>
<path d="M23.6071 2.78667C23.6071 2.3522 23.2544 2 22.8192 2C22.384 2 22.0313 2.3522 22.0313 2.78667V9.73778C22.0313 10.1722 22.384 10.5244 22.8192 10.5244C23.2544 10.5244 23.6071 10.1722 23.6071 9.73778V2.78667Z" fill="#2D3B36"/>
</svg>
