<svg width="32" height="32" viewBox="0 0 32 32" fill="none" xmlns="http://www.w3.org/2000/svg">
<path d="M28.0912 0H3.90885C1.75005 0 0 1.75005 0 3.90885V28.0912C0 30.2499 1.75005 32 3.90885 32H28.0912C30.25 32 32 30.2499 32 28.0912V3.90885C32 1.75005 30.25 0 28.0912 0Z" fill="#BFEA6A"/>
<path d="M27.371 14.3989C27.371 15.2051 28.0232 15.8573 28.8294 15.8573C29.6357 15.8573 30.2924 15.2051 30.2924 14.3989V6.92079C30.3057 6.68217 30.2606 6.44093 30.1572 6.22016C29.9256 5.72158 29.4205 5.37636 28.834 5.37636C28.7949 5.37636 28.7562 5.37789 28.7179 5.38089H21.2654C20.4591 5.38089 19.8069 6.03312 19.8069 6.83935C19.8069 7.64558 20.4591 8.29781 21.2654 8.29781H25.3101L17.3203 16.2876L13.9595 12.9268C13.3888 12.3561 12.4649 12.3561 11.8942 12.9268L1.53549 23.2855C0.964786 23.8562 0.964786 24.7802 1.53549 25.3509C1.82084 25.6362 2.19679 25.7766 2.5682 25.7766C2.94413 25.7766 3.3155 25.6362 3.60085 25.3509L12.9269 16.0249L16.2876 19.3857C16.8583 19.9564 17.7823 19.9564 18.353 19.3857L27.371 10.3677V14.3989Z" fill="#2D3B36"/>
</svg>
