<svg width="33" height="32" viewBox="0 0 33 32" fill="none" xmlns="http://www.w3.org/2000/svg">
<path d="M28.4154 4.42004H4.26501C2.09739 4.42004 0.34021 6.1731 0.34021 8.3356V24.5045C0.34021 26.667 2.09739 28.42 4.26501 28.42H28.4154C30.583 28.42 32.3402 26.667 32.3402 24.5045V8.3356C32.3402 6.1731 30.583 4.42004 28.4154 4.42004Z" fill="#BFEA6A"/>
<path d="M15.7417 18.2689H15.6697C13.4155 18.2689 11.5845 16.4422 11.5845 14.1933C11.5845 11.9445 13.4155 10.1178 15.6697 10.1178H18.365C19.2337 10.1178 19.9331 10.82 19.9331 11.6822C19.9331 12.5445 19.2292 13.2467 18.365 13.2467H15.6697C15.1485 13.2467 14.7253 13.6689 14.7253 14.1889C14.7253 14.7089 15.1485 15.1311 15.6697 15.1311H15.8613C15.9312 15.1311 16 15.1357 16.0675 15.1445H16.6765C18.9307 15.1445 20.7618 16.9711 20.7618 19.22C20.7618 21.4689 18.9307 23.2956 16.6765 23.2956V23.2867H13.9813C13.1126 23.2867 12.4132 22.5845 12.4132 21.7222C12.4132 20.86 13.1171 20.1578 13.9813 20.1578H16.6765C17.1978 20.1578 17.621 19.7356 17.621 19.2156C17.621 18.6956 17.1978 18.2734 16.6765 18.2734H15.8613C15.821 18.2734 15.7812 18.2719 15.7417 18.2689Z" fill="#2D3B36"/>
<path d="M25.4083 4.42004H30.7676C31.6319 4.42004 32.3358 5.12227 32.3358 5.98449V11.3311C28.5134 11.3311 25.4083 8.23337 25.4083 4.42004Z" fill="#94DCD9"/>
<path d="M32.3358 21.5089V26.8556C32.3358 27.7178 31.6319 28.42 30.7676 28.42H25.4083C25.4083 24.6067 28.5134 21.5089 32.3358 21.5089Z" fill="#94DCD9"/>
<path d="M0.37583 11.3311V5.98449C0.37583 5.12226 1.07972 4.42004 1.94399 4.42004H7.30332C7.30332 8.23337 4.19819 11.3311 0.37583 11.3311Z" fill="#94DCD9"/>
<path d="M7.30332 28.42H1.944C1.07974 28.42 0.375852 27.7178 0.375852 26.8556V21.5089C4.19821 21.5089 7.30332 24.6067 7.30332 28.42Z" fill="#94DCD9"/>
</svg>
