<svg width="32" height="32" viewBox="0 0 32 32" fill="none" xmlns="http://www.w3.org/2000/svg">
<path d="M13.629 26.658L3.37774 31.8225C2.29205 32.3692 1 31.587 1 30.3781V4.04893C1 1.81335 2.83041 0 5.08703 0H13.629" fill="#BFEA6A"/>
<path d="M13.6469 26.658L23.8982 31.8225C24.9838 32.3692 26.2759 31.587 26.2759 30.3781V4.04893C26.2759 1.81335 24.4455 0 22.1889 0H13.6469" fill="#94DCD9"/>
<path d="M23.6425 16.4224C23.6425 17.1868 24.2705 17.8091 25.0422 17.8091C25.8138 17.8091 26.4419 17.1868 26.4419 16.4224V13.1246H29.6003C30.3719 13.1246 31 12.5024 31 11.7379C31 10.9735 30.3719 10.3512 29.6003 10.3512H26.4419V7.05785C26.4419 6.2934 25.8138 5.67117 25.0422 5.67117C24.2705 5.67117 23.6425 6.2934 23.6425 7.05785V10.3512H20.2822C19.5105 10.3512 18.8825 10.9735 18.8825 11.7379C18.8825 12.5024 19.5105 13.1246 20.2822 13.1246H23.6425V16.4224Z" fill="#2D3B36"/>
</svg>
