<svg width="32" height="32" viewBox="0 0 32 32" fill="none" xmlns="http://www.w3.org/2000/svg">
<path d="M8.92046 22.2552C8.92046 20.1874 8.9294 18.1196 8.91162 16.0563C8.91162 15.6058 9.05829 15.3401 9.46721 15.1373C11.4318 14.1462 12.8763 12.574 14.1163 10.781C15.8009 8.34836 16.9698 5.6544 18.0054 2.89737C18.2277 2.30271 18.4366 1.69905 18.681 1.1089C19.0899 0.11781 20.2144 -0.283131 21.1656 0.212414C21.7078 0.491721 21.8812 0.969246 21.8057 1.54138C21.6945 2.38831 21.5345 3.23073 21.4412 4.08217C21.2189 6.13193 20.9923 8.18618 20.8411 10.2449C20.7967 10.8351 20.9345 11.4658 21.1167 12.0379C21.4234 13.011 22.1434 13.448 23.1524 13.4074C24.668 13.3489 26.1792 13.2452 27.6949 13.2498C28.4905 13.2498 29.3038 13.3714 30.0772 13.5606C31.5262 13.9165 32.1351 14.8085 31.9751 16.3176C31.864 17.3673 31.6595 18.4124 31.4551 19.4486C30.7928 22.7913 30.1216 26.1294 29.4238 29.4631C29.0638 31.1705 28.3082 31.7786 26.5881 31.9228C24.3702 32.1075 22.1657 31.9408 19.97 31.6345C16.4854 31.1479 13.0674 30.3461 9.66719 29.4541C9.01827 29.2829 8.92046 29.1567 8.92046 28.463C8.92046 26.3952 8.92046 24.3319 8.92046 22.2642V22.2552Z" fill="#BFEA6A"/>
<path d="M8.45825 13.8309H0.760024C0.340265 13.8309 0 14.1758 0 14.6012V29.8821C0 30.3075 0.340265 30.6524 0.760024 30.6524H8.45825C8.87801 30.6524 9.21828 30.3075 9.21828 29.8821V14.6012C9.21828 14.1758 8.87801 13.8309 8.45825 13.8309Z" fill="#52ACA1"/>
</svg>
