<svg width="32" height="32" viewBox="0 0 32 32" fill="none" xmlns="http://www.w3.org/2000/svg">
<path d="M24.9311 31.9995C24.6822 31.9995 24.4288 31.9394 24.202 31.8098L16.0044 27.3026L7.80686 31.8098C7.28228 32.1013 6.64212 32.055 6.162 31.6895C5.68189 31.3285 5.43738 30.7084 5.53963 30.0976L7.10891 20.5371L0.46726 13.767C0.044933 13.3366 -0.106216 12.6887 0.0760519 12.101C0.258319 11.5133 0.747329 11.0876 1.33414 10.9951L10.5009 9.60217L14.5997 0.907C14.8619 0.351694 15.4043 0 16 0C16.5957 0 17.1381 0.351694 17.4003 0.907L21.4991 9.60217L30.6659 10.9951C31.2527 11.083 31.7417 11.5133 31.9239 12.101C32.1062 12.6887 31.9551 13.332 31.5327 13.767L24.8955 20.5371L26.4648 30.0976C26.5626 30.7084 26.3226 31.3239 25.8424 31.6895C25.5713 31.8931 25.2512 31.9995 24.9267 31.9995H24.9311Z" fill="#BFEA6A"/>
</svg>
