<svg width="32" height="32" viewBox="0 0 32 32" fill="none" xmlns="http://www.w3.org/2000/svg">
<path d="M16 32C24.8366 32 32 24.8366 32 16C32 7.16344 24.8366 0 16 0C7.16344 0 0 7.16344 0 16C0 24.8366 7.16344 32 16 32Z" fill="#BFEA6A"/>
<path d="M9 24.5467C8.59556 24.5467 8.19556 24.3867 7.90223 24.0933C7.49334 23.6844 7.34667 23.0844 7.51556 22.5333L10.9245 11.5556C11.0756 11.0667 11.4578 10.6844 11.9467 10.5333L22.9245 7.12444C23.4756 6.95556 24.0756 7.10222 24.4844 7.51111C24.8933 7.92 25.04 8.52 24.8711 9.07111L21.4622 20.0489C21.3111 20.5378 20.9289 20.92 20.44 21.0711L9.46223 24.48C9.31112 24.5289 9.15556 24.5511 9 24.5511V24.5467Z" fill="#2D3B36"/>
<path d="M11.8756 21.0489C11.6311 21.0489 11.3956 20.9511 11.2178 20.7778C10.9733 20.5333 10.8845 20.1733 10.9867 19.8444L13.0311 13.2578C13.12 12.9644 13.3511 12.7333 13.6445 12.6444L20.2311 10.6C20.56 10.4978 20.92 10.5867 21.1644 10.8311C21.4089 11.0756 21.4978 11.4356 21.3956 11.7644L19.3511 18.3511C19.2622 18.6444 19.0311 18.8756 18.7378 18.9644L12.1511 21.0089C12.0622 21.0356 11.9689 21.0489 11.8756 21.0489Z" fill="#52ACA1"/>
</svg>
