<svg width="32" height="32" viewBox="0 0 32 32" fill="none" xmlns="http://www.w3.org/2000/svg">
<g clip-path="url(#clip0_4_740)">
<path d="M31.7365 26.1809C28.3908 21.9964 28.8509 17.2127 29.0653 14.0443C29.5969 6.32235 23.2317 0.0239664 16.0223 0C16.0179 0 16.0089 0 16.0045 0C16 0 15.9911 0 15.9866 0C8.76828 0.0239664 2.40312 6.32235 2.93466 14.0395C3.15353 17.2079 3.60915 21.9916 0.263529 26.1762C-0.335019 26.9239 0.138459 28.0791 1.05862 28.0791H12.2747C12.2747 28.0503 12.2747 28.0264 12.2747 27.9976C12.2747 25.7927 13.9408 24 16 24C18.0592 24 19.7253 25.7879 19.7253 27.9976C19.7253 28.0264 19.7253 28.0503 19.7253 28.0791H30.9414C31.8615 28.0791 32.3395 26.9239 31.7365 26.1762V26.1809Z" fill="#BFEA6A"/>
<path d="M12.2836 28.0839C12.3238 30.2552 13.9721 32 16.0045 32C18.0368 32 19.6851 30.2552 19.7253 28.0839H12.2836Z" fill="#94DCD9"/>
<path d="M16 24.0048C13.9453 24.0048 12.2747 25.7927 12.2747 28.0024C12.2747 28.0312 12.2747 28.0551 12.2747 28.0839H19.7163C19.7163 28.0551 19.7163 28.0312 19.7163 28.0024C19.7163 25.7975 18.0502 24.0048 15.9911 24.0048H16Z" fill="#2D3B36"/>
</g>
<defs>
<clipPath id="clip0_4_740">
<rect width="32" height="32" fill="white"/>
</clipPath>
</defs>
</svg>
