<svg width="32" height="32" viewBox="0 0 32 32" fill="none" xmlns="http://www.w3.org/2000/svg">
<path d="M26.3976 31.9956C25.9227 31.9956 25.4522 31.7823 25.1371 31.3779L21.2977 26.3963C20.7606 25.6987 20.8894 24.6988 21.5862 24.1611C22.2831 23.6234 23.2817 23.7523 23.8188 24.4499L27.6582 29.4315C28.1952 30.1291 28.0665 31.129 27.3696 31.6667C27.0811 31.8889 26.7394 32 26.3976 32V31.9956Z" fill="#2D3B36"/>
<path d="M5.26118 31.9956C4.92385 31.9956 4.57761 31.8889 4.28911 31.6623C3.59225 31.1246 3.46352 30.1247 4.00059 29.427L7.83996 24.4455C8.37702 23.7523 9.37571 23.6189 10.0726 24.1566C10.7694 24.6943 10.8982 25.6942 10.3611 26.3919L6.52172 31.3734C6.20658 31.7778 5.73611 31.9911 5.26118 31.9911V31.9956Z" fill="#2D3B36"/>
<path d="M27.059 12.3583C26.6506 12.3583 26.2467 12.2027 25.936 11.8917C25.3146 11.2695 25.3146 10.2608 25.936 9.63866L27.6848 7.88779C27.9866 7.58561 28.1508 7.18567 28.1508 6.7635C28.1508 6.34134 27.9866 5.93695 27.6848 5.63922L25.7007 3.65283C25.0793 3.03069 24.0718 3.03069 23.4504 3.65283L21.8082 5.29704C21.1868 5.91918 20.1792 5.91918 19.5578 5.29704C18.9364 4.67491 18.9364 3.66616 19.5578 3.04402L21.2 1.39981C23.0598 -0.462158 26.0869 -0.462158 27.9511 1.39981L29.9351 3.3862C31.7949 5.24816 31.7949 8.27885 29.9351 10.1408L28.1864 11.8917C27.8757 12.2027 27.4673 12.3583 27.0634 12.3583H27.059Z" fill="#2D3B36"/>
<path d="M4.59985 12.3583C4.1915 12.3583 3.78758 12.2027 3.47688 11.8917L1.72806 10.1408C0.827032 9.23872 0.329956 8.03888 0.329956 6.7635C0.329956 5.48813 0.827032 4.28829 1.72806 3.3862L3.71214 1.39981C4.61317 0.497709 5.81157 0 7.08544 0C8.35931 0 9.55771 0.497709 10.4587 1.39981L12.101 3.04402C12.7224 3.66616 12.7224 4.67491 12.101 5.29704C11.4796 5.91918 10.4721 5.91918 9.85066 5.29704L8.20841 3.65283C7.6092 3.04847 6.55723 3.04847 5.95803 3.65283L3.974 5.63922C3.67218 5.9414 3.50793 6.34134 3.50793 6.7635C3.50793 7.18567 3.67218 7.59006 3.974 7.88779L5.72277 9.63866C6.34417 10.2608 6.34417 11.2695 5.72277 11.8917C5.41207 12.2027 5.00376 12.3583 4.59985 12.3583Z" fill="#2D3B36"/>
<path d="M28.537 10.1764C28.537 10.1764 28.537 10.1764 28.537 10.1719C27.2099 6.86127 24.5822 4.14609 21.3199 2.71073C17.8312 1.18206 13.832 1.18206 10.3389 2.71073C7.08098 4.14165 4.44891 6.85683 3.12622 10.163C3.12622 10.163 3.12622 10.163 3.12622 10.1675C2.46931 11.8028 2.13643 13.5181 2.13643 15.2645C2.13643 22.8235 8.27939 28.9738 15.8294 28.9738C23.3794 28.9738 29.5223 22.8235 29.5223 15.2645C29.5223 13.5226 29.1895 11.8072 28.537 10.1719V10.1764Z" fill="#BFEA6A"/>
<path d="M21.2134 19.4417C20.9826 19.4417 20.7474 19.3929 20.5254 19.2862L15.1414 16.7043C14.5911 16.4377 14.236 15.8822 14.236 15.269V8.43883C14.236 7.55895 14.9461 6.84794 15.8249 6.84794C16.7038 6.84794 17.414 7.55895 17.414 8.43883V14.2647L21.8925 16.4111C22.687 16.7888 23.0199 17.7398 22.6426 18.5352C22.3718 19.1085 21.7993 19.4417 21.2089 19.4417H21.2134Z" fill="#2D3B36"/>
</svg>
