<svg width="32" height="32" viewBox="0 0 32 32" fill="none" xmlns="http://www.w3.org/2000/svg">
<path d="M18.204 24.6424C17.7816 24.6424 17.3593 24.4796 17.0379 24.1538L14.7975 21.8828L13.3559 23.13C12.704 23.6931 11.7215 23.6512 11.1201 23.0369L9.35719 21.2499C8.75577 20.6402 8.71442 19.6443 9.26534 18.9835L10.4957 17.5176L8.25534 15.2465C7.6126 14.595 7.6126 13.534 8.25534 12.8824L9.38471 11.7376C9.83003 11.2862 10.4774 11.128 11.0742 11.3328L14.6643 12.552L16.1335 10.8022L8.67768 5.99026C8.37008 5.79015 8.16811 5.46904 8.13138 5.09674C8.09006 4.7291 8.21861 4.36611 8.4757 4.1055L9.75201 2.81176C10.6702 1.88101 12.0154 1.53663 13.2595 1.90893L21.8951 4.50106L23.929 2.3045C25.2833 0.926995 27.0554 0.140513 28.9423 0.0660532L30.5399 0.000900831C30.9118 -0.0130604 31.3066 0.135859 31.5775 0.405776C31.853 0.680346 32.0045 1.06195 31.9999 1.45287L31.9678 3.08633C31.9265 5.05021 31.1506 6.89309 29.7825 8.28455L27.6431 10.3229L30.2002 19.0766C30.5675 20.3377 30.2278 21.7013 29.3096 22.632L28.0333 23.9258C27.7762 24.1864 27.4181 24.3167 27.0554 24.2748C26.6927 24.2329 26.3714 24.0328 26.174 23.721L21.4268 16.1633L19.7006 17.6525L20.9035 21.2917C21.1055 21.8967 20.9494 22.5529 20.5041 23.0043L19.3747 24.1491C19.0533 24.4749 18.6309 24.6378 18.2086 24.6378L18.204 24.6424Z" fill="#BFEA6A"/>
<path d="M0.698559 24.8239C0.514919 24.8239 0.3267 24.7495 0.193562 24.6052C-0.0727154 24.3213 -0.063511 23.8746 0.216539 23.6047L6.72198 17.3361C7.00203 17.0662 7.44272 17.0755 7.709 17.3593C7.97528 17.6432 7.96613 18.09 7.68608 18.3599L1.18063 24.6285C1.0475 24.7588 0.873016 24.8239 0.698559 24.8239Z" fill="#52ACA1"/>
<path d="M1.72699 31.1902C1.54335 31.1902 1.35508 31.1158 1.22194 30.9715C0.955661 30.6876 0.964865 30.2409 1.24492 29.971L7.75036 23.7024C8.03041 23.4325 8.4711 23.4418 8.73738 23.7257C9.00365 24.0095 8.9945 24.4563 8.71445 24.7262L2.20901 30.9948C2.07587 31.1251 1.90145 31.1902 1.72699 31.1902Z" fill="#52ACA1"/>
<path d="M8.28287 32C8.09923 32 7.91102 31.9255 7.77788 31.7813C7.5116 31.4974 7.5208 31.0506 7.80085 30.7807L14.3062 24.5121C14.5863 24.2422 15.027 24.2515 15.2933 24.5354C15.5596 24.8193 15.5504 25.266 15.2704 25.536L8.76495 31.8045C8.63181 31.9348 8.45733 32 8.28287 32Z" fill="#52ACA1"/>
</svg>
