<svg width="32" height="32" viewBox="0 0 32 32" fill="none" xmlns="http://www.w3.org/2000/svg">
<path d="M13.873 26.7504C13.273 26.7504 12.6818 26.5236 12.2284 26.0968L7.83665 21.9487C7.68551 21.8065 7.49437 21.7309 7.2899 21.7309H4.00056C1.79581 21.7309 0 19.9347 0 17.7295V14.3506C0 12.1454 1.79581 10.3492 4.00056 10.3492H7.2899C7.49437 10.3492 7.68996 10.2737 7.83665 10.1314L12.2284 5.98332C12.9262 5.32532 13.9486 5.14304 14.8287 5.52539C15.7088 5.90329 16.2778 6.77025 16.2778 7.73058V24.3495C16.2778 25.3099 15.7088 26.1724 14.8287 26.5547C14.522 26.6881 14.1975 26.7504 13.8775 26.7504H13.873Z" fill="#BFEA6A"/>
<path d="M21.0874 21.5886C20.5851 21.5886 20.0917 21.353 19.7761 20.9084C19.2649 20.1837 19.4382 19.1878 20.1628 18.6765C21.1896 17.9518 21.803 16.7781 21.803 15.5377C21.803 14.2972 21.1896 13.1235 20.1628 12.3988C19.4427 11.8875 19.2693 10.8917 19.7761 10.167C20.2828 9.44227 21.2829 9.27332 22.0075 9.78016C23.8833 11.1006 25.0035 13.2524 25.0035 15.5332C25.0035 17.814 23.8833 19.9658 22.0075 21.2863C21.7275 21.4819 21.403 21.5797 21.0874 21.5797V21.5886Z" fill="#52ACA1"/>
<path d="M25.9014 26.7192C25.4435 26.7192 24.9857 26.5236 24.6701 26.1413C24.1056 25.461 24.1989 24.4518 24.879 23.8872C27.3727 21.8198 28.7995 18.7743 28.7995 15.5421C28.7995 12.3099 27.3682 9.26443 24.879 7.19262C24.1989 6.62798 24.1056 5.61875 24.6701 4.93852C25.2346 4.25829 26.2436 4.16493 26.9237 4.72956C30.1508 7.41047 32 11.3496 32 15.5377C32 19.7258 30.1508 23.6649 26.9237 26.3458C26.6259 26.5947 26.2614 26.7148 25.9014 26.7148V26.7192Z" fill="#BFEA6A"/>
</svg>
