<svg width="32" height="32" viewBox="0 0 32 32" fill="none" xmlns="http://www.w3.org/2000/svg">
<path d="M16.0023 25.96C9.57 25.96 3.52766 22.1598 0 15.98C3.52766 9.8002 9.57 6 16.0023 6C16.0381 6 16.0874 6 16.1457 6C19.1668 6.03585 22.1431 6.90075 24.6398 8.59919C27.5265 10.5575 30.3146 13.2105 32 15.989C28.4723 22.1643 22.4301 25.96 16.0023 25.96Z" fill="#BFEA6A"/>
<path d="M15.9978 21.9223C12.7211 21.9223 10.0541 19.2559 10.0541 15.98C10.0541 12.7041 12.7211 10.0377 15.9978 10.0377C19.2744 10.0377 21.9415 12.7041 21.9415 15.98C21.9415 19.2559 19.2744 21.9223 15.9978 21.9223ZM15.9978 13.4256C14.5903 13.4256 13.4428 14.5729 13.4428 15.98C13.4428 17.3871 14.5903 18.5344 15.9978 18.5344C17.4053 18.5344 18.5572 17.3871 18.5572 15.98C18.5572 14.5729 17.4097 13.4256 15.9978 13.4256Z" fill="#2D3B36"/>
</svg>
