<svg width="32" height="32" viewBox="0 0 32 32" fill="none" xmlns="http://www.w3.org/2000/svg">
<path d="M28.0356 13.3078C28.04 13.1745 28.0444 13.0456 28.0444 12.9167C28.0444 7.05892 23.2756 2.29004 17.4178 2.29004C13.1067 2.29004 9.21778 4.94337 7.59555 8.87226C3.31555 9.4367 0 13.1078 0 17.5389C0 22.3567 3.92 26.2811 8.74222 26.2811H25.2044C28.9511 26.2811 32 23.2322 32 19.4856C32 16.81 30.4 14.4011 28.0356 13.3078Z" fill="#BFEA6A"/>
<path d="M14.8 28.33C14.8 28.9923 15.3378 29.53 16 29.53C16.6622 29.53 17.2 28.9923 17.2 28.33V16.4145L19.4578 18.6722C19.6933 18.9078 20 19.0234 20.3067 19.0234C20.6133 19.0234 20.92 18.9078 21.1556 18.6722C21.6222 18.2056 21.6222 17.4411 21.1556 16.9745L16.9126 12.7315C16.8937 12.7097 16.874 12.6885 16.8533 12.6678C16.6821 12.4966 16.4709 12.3882 16.2489 12.3426C16.1686 12.3257 16.0853 12.3167 16 12.3167C15.8196 12.3167 15.6485 12.3566 15.4949 12.4281C15.3702 12.4855 15.2535 12.5654 15.1511 12.6678C15.1304 12.6885 15.1107 12.7097 15.0918 12.7315L10.8489 16.9745C10.3822 17.4411 10.3822 18.2056 10.8489 18.6722C11.0844 18.9078 11.3911 19.0234 11.6978 19.0234C12.0044 19.0234 12.3111 18.9078 12.5467 18.6722L14.8 16.4189V28.33Z" fill="#2D3B36"/>
</svg>
