<svg width="32" height="32" viewBox="0 0 32 32" fill="none" xmlns="http://www.w3.org/2000/svg">
<path d="M16 32C14.3348 32 12.998 31.0547 11.9224 30.294C11.3913 29.9204 10.8917 29.5648 10.4551 29.3847C9.97805 29.1867 9.35249 29.0741 8.68638 28.9571C7.34067 28.7185 5.81943 28.4439 4.68525 27.3141C3.55107 26.1798 3.28102 24.6583 3.04248 23.3124C2.92546 22.6462 2.81297 22.016 2.61494 21.5434C2.43491 21.1068 2.07934 20.6071 1.70578 20.076C0.945166 19.0001 0 17.6632 0 15.9978C0 14.3323 0.945166 12.9954 1.70578 11.9195C2.07934 11.3884 2.43491 10.8887 2.61494 10.4521C2.81297 9.97496 2.92546 9.34928 3.04248 8.68308C3.28102 7.34168 3.55557 5.81573 4.68525 4.68589C5.81943 3.55155 7.34067 3.28147 8.68638 3.0429C9.35249 2.92587 9.97805 2.81334 10.4551 2.61528C10.8917 2.43522 11.3958 2.07962 11.9224 1.70601C12.998 0.94528 14.3348 0 16 0C17.6653 0 19.002 0.94528 20.0776 1.70601C20.6087 2.07962 21.1083 2.43522 21.5449 2.61528C22.0219 2.81334 22.6521 2.92587 23.3182 3.0429C24.6639 3.28147 26.1851 3.55606 27.3148 4.68589C28.449 5.82023 28.719 7.34168 28.9576 8.68758C29.0746 9.35378 29.1871 9.98396 29.3851 10.4566C29.5651 10.8932 29.9207 11.3974 30.2943 11.924C31.0549 12.9999 32 14.3368 32 15.9978C32 17.6587 31.0549 19.0001 30.2943 20.0715C29.9207 20.6026 29.5651 21.1023 29.3851 21.5389C29.1871 22.016 29.0746 22.6417 28.9576 23.3079C28.719 24.6538 28.4445 26.1753 27.3148 27.3096C26.1806 28.4439 24.6594 28.714 23.3182 28.9526C22.6521 29.0696 22.0219 29.1822 21.5449 29.3802C21.1083 29.5603 20.6087 29.9159 20.0776 30.2895C19.002 31.0502 17.6653 31.9955 16 31.9955V32Z" fill="#BFEA6A"/>
<path d="M14.7775 20.1164C14.7709 20.1165 14.7644 20.1165 14.7578 20.1165C14.7217 20.1165 14.6855 20.1152 14.6494 20.1128C14.2786 20.0876 13.915 19.933 13.6325 19.6526L10.0276 16.3669C9.37496 15.7727 9.32996 14.7599 9.92405 14.1072C10.5181 13.4545 11.5308 13.4095 12.1834 14.0037L14.7077 16.3044L20.2442 10.7672C20.8698 10.1415 21.8824 10.1415 22.508 10.7672C23.1336 11.3929 23.1336 12.4057 22.508 13.0313L15.892 19.6483C15.5853 19.9551 15.182 20.1125 14.7775 20.1164Z" fill="#2D3B36"/>
</svg>
