<svg width="32" height="32" viewBox="0 0 32 32" fill="none" xmlns="http://www.w3.org/2000/svg">
<path d="M27.7038 19.5203L9.71811 28.3284C8.23872 29.0514 6.4502 28.4426 5.72716 26.9635L0.304328 15.8963C-0.418714 14.4172 0.190162 12.6289 1.66954 11.906L19.6742 3.0884C20.4163 2.72219 21.2773 2.68414 22.0527 2.97901L30.8481 6.33674C31.7186 6.66966 32.1895 7.6161 31.9279 8.51023L29.2545 17.6798C29.0215 18.4835 28.4554 19.1541 27.7038 19.5251V19.5203Z" fill="#BFEA6A"/>
<path d="M23.123 13.523C24.1948 13.523 25.0637 12.6543 25.0637 11.5826C25.0637 10.5109 24.1948 9.64215 23.123 9.64215C22.0511 9.64215 21.1822 10.5109 21.1822 11.5826C21.1822 12.6543 22.0511 13.523 23.123 13.523Z" fill="#2D3B36"/>
</svg>
