<svg width="33" height="32" viewBox="0 0 33 32" fill="none" xmlns="http://www.w3.org/2000/svg">
<path d="M16.8316 29.9167C16.5516 29.9167 16.2671 29.8445 16.0188 29.6954C8.26471 25.1068 -0.32482 16.9548 0.993866 9.06924C1.59902 5.45615 4.35832 2.70569 8.02535 2.05985C11.3492 1.47724 14.5601 2.69665 16.8362 5.29808C19.0581 2.75988 22.1741 1.53595 25.3805 2.0463C29.0656 2.62891 31.9243 5.3613 32.6649 9.01504C34.241 16.7787 25.9405 24.7907 17.649 29.6954C17.3961 29.8445 17.1162 29.9167 16.8362 29.9167H16.8316Z" fill="#BFEA6A"/>
<path d="M16.4342 24.4429C15.8336 24.4429 15.3052 24.0499 15.1291 23.4764L12.4782 14.7507L10.4956 18.269C10.2563 18.698 9.80015 18.9645 9.3079 18.9645H4.408C3.65382 18.9645 3.04414 18.3548 3.04414 17.6006C3.04414 16.8463 3.65382 16.2366 4.408 16.2366H8.5131L11.6653 10.6363C11.9317 10.1621 12.4511 9.89115 13.002 9.94986C13.544 10.0086 14.0001 10.3879 14.1582 10.9073L16.4297 18.3864L20.1871 5.9845C20.3632 5.41092 20.8916 5.018 21.4922 5.018H21.5057C22.1109 5.02251 22.6393 5.42898 22.8018 6.01159L25.6831 16.2366H28.9392C29.6933 16.2366 30.303 16.8463 30.303 17.6006C30.303 18.3548 29.6933 18.9645 28.9392 18.9645H24.6534C24.0438 18.9645 23.5064 18.558 23.3438 17.9709L21.447 11.2415L17.7394 23.4764C17.5632 24.0499 17.0349 24.4429 16.4342 24.4429Z" fill="#52ACA1"/>
</svg>
