<svg width="32" height="32" viewBox="0 0 32 32" fill="none" xmlns="http://www.w3.org/2000/svg">
<path d="M29.0371 19.224C27.7287 19.224 26.4065 18.2071 26.4065 16.26C26.4065 15.959 26.443 15.5076 26.6117 15.0425C27.0038 13.9846 27.9566 13.296 29.0371 13.296C30.6692 13.296 32.0005 14.6275 32.0005 16.26C32.0005 17.8925 30.6692 19.224 29.0371 19.224Z" fill="#BFEA6A"/>
<path d="M24.7789 26.52H4.79661C2.15236 26.52 0.000488281 24.3677 0.000488281 21.7229V10.7971C0.000488281 8.15232 2.15236 6 4.79661 6H24.7789C27.4232 6 29.5751 8.15232 29.5751 10.7971V21.7229C29.5751 24.3677 27.4232 26.52 24.7789 26.52ZM4.79661 9.19656C3.91672 9.19656 3.19639 9.91248 3.19639 10.7971V21.7229C3.19639 22.603 3.91216 23.3234 4.79661 23.3234H24.7789C25.6588 23.3234 26.3792 22.6075 26.3792 21.7229V10.7971C26.3792 9.91704 25.6634 9.19656 24.7789 9.19656H4.79661Z" fill="#2D3B36"/>
<path d="M8.04266 23.1775C7.1582 23.1775 6.44243 22.4616 6.44243 21.577V11.4902C6.44243 10.6056 7.1582 9.88968 8.04266 9.88968C8.92712 9.88968 9.64289 10.6056 9.64289 11.4902V21.577C9.64289 22.4616 8.92712 23.1775 8.04266 23.1775Z" fill="#BFEA6A"/>
</svg>
