<svg width="32" height="32" viewBox="0 0 32 32" fill="none" xmlns="http://www.w3.org/2000/svg">
<path d="M18.6327 32C15.4491 32 12.2702 30.8126 9.84615 28.4332L3.63839 22.3397C1.28938 20.0386 0 16.9734 0 13.715C0 10.4565 1.29407 7.39597 3.63839 5.09021C4.46359 4.2802 5.56075 3.83377 6.72822 3.83377C7.89569 3.83377 8.99282 4.2802 9.81802 5.09021L11.8107 7.0462C13.5127 8.71684 13.5127 11.4414 11.8107 13.1121L10.7323 14.1706C9.86023 15.0266 9.86023 16.4165 10.7323 17.2726L15.0037 21.4653C15.8758 22.3213 17.2917 22.3213 18.1638 21.4653L19.2422 20.4067C20.9442 18.7361 23.7199 18.7361 25.4218 20.4067L27.4145 22.3627C29.1165 24.0334 29.1165 26.758 27.4145 28.4286C24.9905 30.808 21.8069 31.9954 18.628 31.9954L18.6327 32Z" fill="#BFEA6A"/>
<path fill-rule="evenodd" clip-rule="evenodd" d="M17.6715 11.5841C19.0687 11.5841 20.1987 12.6978 20.1987 14.0647C20.1987 14.5204 20.5785 14.8932 21.0426 14.8932C21.5068 14.8932 21.8866 14.5204 21.8866 14.0647C21.8866 11.782 19.9971 9.92725 17.6715 9.92725C17.2073 9.92725 16.8276 10.3 16.8276 10.7557C16.8276 11.2113 17.2073 11.5841 17.6715 11.5841Z" fill="#52ACA1"/>
<path fill-rule="evenodd" clip-rule="evenodd" d="M17.6715 6.61816C21.8585 6.61816 25.2577 9.95485 25.2577 14.0647C25.2577 14.5204 25.6375 14.8931 26.1017 14.8931C26.5659 14.8931 26.9457 14.5204 26.9457 14.0647C26.9457 9.04359 22.7915 4.96593 17.6762 4.96593C17.212 4.96593 16.8322 5.33872 16.8322 5.79435C16.8322 6.24998 17.212 6.62276 17.6762 6.62276L17.6715 6.61816Z" fill="#52ACA1"/>
<path fill-rule="evenodd" clip-rule="evenodd" d="M17.6715 1.65684C24.6482 1.65684 30.3121 7.21645 30.3121 14.0647C30.3121 14.5203 30.6919 14.8931 31.156 14.8931C31.6202 14.8931 32 14.5203 32 14.0647C32 6.30518 25.5812 0 17.6715 0C17.2073 0 16.8276 0.372788 16.8276 0.828418C16.8276 1.28405 17.2073 1.65684 17.6715 1.65684Z" fill="#52ACA1"/>
</svg>
