<svg width="32" height="32" viewBox="0 0 32 32" fill="none" xmlns="http://www.w3.org/2000/svg">
<path d="M8.12161 17.7467C7.68017 17.7467 7.24328 17.5689 6.92796 17.2222C6.33787 16.5733 6.39639 15.5733 7.05405 14.9956L17.5676 5.72C18.2253 5.13778 19.2388 5.19556 19.8244 5.84444C20.4145 6.49333 20.3559 7.49333 19.6982 8.07111L9.18473 17.3467C8.87842 17.6178 8.49999 17.7511 8.11711 17.7511L8.12161 17.7467Z" fill="#2D3B36"/>
<path d="M24.0316 28.6C23.8469 28.6 23.6622 28.5689 23.4775 28.5022L7.65769 22.7422C6.82886 22.44 6.40539 21.5333 6.71169 20.7156C7.018 19.8978 7.94145 19.4756 8.76578 19.7822L24.5856 25.5422C25.4144 25.8444 25.8379 26.7511 25.5315 27.5689C25.2928 28.2044 24.6802 28.6 24.0316 28.6Z" fill="#2D3B36"/>
<path d="M21.6396 9.87556C18.8829 9.87556 16.6351 7.66222 16.6351 4.93778C16.6351 2.21333 18.8784 0 21.6396 0C24.4009 0 26.6441 2.21333 26.6441 4.93778C26.6441 7.66222 24.4009 9.87556 21.6396 9.87556ZM21.6396 3.16C20.6441 3.16 19.8378 3.96 19.8378 4.93778C19.8378 5.91556 20.6486 6.72 21.6396 6.72C22.6306 6.72 23.4459 5.92 23.4459 4.93778C23.4459 3.95556 22.6351 3.16 21.6396 3.16Z" fill="#BFEA6A"/>
<path d="M27.2162 32C24.5766 32 22.4324 29.8844 22.4324 27.28C22.4324 24.6756 24.5766 22.56 27.2162 22.56C29.8559 22.56 32 24.68 32 27.28C32 29.88 29.8514 32 27.2162 32ZM27.2162 25.7156C26.3423 25.7156 25.6306 26.4178 25.6306 27.28C25.6306 28.1422 26.3423 28.8444 27.2162 28.8444C28.0901 28.8444 28.8018 28.1422 28.8018 27.28C28.8018 26.4178 28.0901 25.7156 27.2162 25.7156Z" fill="#BFEA6A"/>
<path d="M5.39189 24.08C2.41891 24.08 0 21.6933 0 18.76C0 15.8267 2.41891 13.44 5.39189 13.44C8.36486 13.44 10.7838 15.8267 10.7838 18.76C10.7838 21.6933 8.36486 24.08 5.39189 24.08ZM5.39189 16.5956C4.18017 16.5956 3.19819 17.5644 3.19819 18.76C3.19819 19.9556 4.18017 20.9244 5.39189 20.9244C6.6036 20.9244 7.58558 19.9556 7.58558 18.76C7.58558 17.5644 6.6036 16.5956 5.39189 16.5956Z" fill="#BFEA6A"/>
</svg>
