<svg width="32" height="32" viewBox="0 0 32 32" fill="none" xmlns="http://www.w3.org/2000/svg">
<path d="M16.1045 9.94863C16.1045 8.1793 16.6912 6.54779 17.6691 5.22746C16.0822 4.49839 14.3264 4.08051 12.4684 4.08051C5.58297 4.08051 0 9.66411 0 16.5503V29.02H12.4684C18.9004 29.02 24.19 24.1521 24.8612 17.8973H24.0522C19.6605 17.8973 16.1045 14.3364 16.1045 9.94863Z" fill="#BFEA6A"/>
<path d="M32 9.94863C32 5.55643 28.4395 2 24.0522 2C21.4341 2 19.1182 3.27142 17.6691 5.22746C21.9542 7.20128 24.9368 11.5223 24.9368 16.5503C24.9368 17.0081 24.9101 17.4571 24.8612 17.8973H32V9.94863Z" fill="#94DCD9"/>
<path d="M24.9368 16.5503C24.9368 11.5223 21.9542 7.20128 17.6691 5.22746C16.6912 6.54779 16.1045 8.1793 16.1045 9.94863C16.1045 14.3408 19.6649 17.8973 24.0522 17.8973H24.8612C24.9101 17.4527 24.9368 17.0037 24.9368 16.5503Z" fill="#2D3B36"/>
</svg>
