<svg width="32" height="33" viewBox="0 0 32 33" fill="none" xmlns="http://www.w3.org/2000/svg">
<path d="M28.8368 12.5829C29.4592 19.4814 24.5425 25.3798 18.1189 31.9271C16.9364 33.1317 14.9982 33.1183 13.8379 31.8915C8.19226 25.9309 3 20.1259 3 13.7608C3 6.05779 9.73037 -0.0717182 17.6343 0.928384C23.5868 1.67957 28.2989 6.60896 28.8368 12.5873V12.5829Z" fill="#BFEA6A"/>
<path d="M15.9451 15.5476C17.4992 15.5476 18.759 14.2879 18.759 12.734C18.759 11.1801 17.4992 9.92041 15.9451 9.92041C14.391 9.92041 13.1311 11.1801 13.1311 12.734C13.1311 14.2879 14.391 15.5476 15.9451 15.5476Z" fill="#2D3B36"/>
</svg>
