<svg width="32" height="32" viewBox="0 0 32 32" fill="none" xmlns="http://www.w3.org/2000/svg">
<path d="M29.0367 19.224C27.728 19.224 26.4057 18.2071 26.4057 16.26C26.4057 15.959 26.4422 15.5076 26.6109 15.0425C27.003 13.9846 27.956 13.296 29.0367 13.296C30.6691 13.296 32.0005 14.6275 32.0005 16.26C32.0005 17.8925 30.6691 19.224 29.0367 19.224Z" fill="#BFEA6A"/>
<path d="M24.7825 26.52H4.79729C2.15266 26.52 0.000488281 24.3677 0.000488281 21.7229V10.7971C0.000488281 8.15232 2.15266 6 4.79729 6H24.7825C27.4271 6 29.5793 8.15232 29.5793 10.7971V21.7229C29.5793 24.3677 27.4271 26.52 24.7825 26.52ZM4.79729 9.19656C3.91727 9.19656 3.19685 9.91248 3.19685 10.7971V21.7229C3.19685 22.603 3.91271 23.3234 4.79729 23.3234H24.7825C25.6625 23.3234 26.3829 22.6075 26.3829 21.7229V10.7971C26.3829 9.91704 25.6671 9.19656 24.7825 9.19656H4.79729Z" fill="#2D3B36"/>
<path d="M8.04381 23.1775C7.15923 23.1775 6.44335 22.4616 6.44335 21.577V11.4902C6.44335 10.6056 7.15923 9.88968 8.04381 9.88968C8.9284 9.88968 9.64426 10.6056 9.64426 11.4902V21.577C9.64426 22.4616 8.9284 23.1775 8.04381 23.1775Z" fill="#BFEA6A"/>
<path d="M14.5596 22.9541C13.675 22.9541 12.9592 22.2382 12.9592 21.3535V11.2668C12.9592 10.3822 13.675 9.66624 14.5596 9.66624C15.4442 9.66624 16.1601 10.3822 16.1601 11.2668V21.3535C16.1601 22.2382 15.4442 22.9541 14.5596 22.9541Z" fill="#BFEA6A"/>
</svg>
