<svg width="32" height="32" viewBox="0 0 32 32" fill="none" xmlns="http://www.w3.org/2000/svg">
<path d="M3.04846 13.7156H1.52423C0.682419 13.7156 0 14.3981 0 15.24V30.4756C0 31.3175 0.682419 32 1.52423 32H3.04846C3.89027 32 4.57269 31.3175 4.57269 30.4756V15.24C4.57269 14.3981 3.89027 13.7156 3.04846 13.7156Z" fill="#BFEA6A"/>
<path d="M12.0161 9.14222H10.8474C9.9074 9.14222 9.14538 9.90433 9.14538 10.8444V30.2978C9.14538 31.2379 9.9074 32 10.8474 32H12.0161C12.9561 32 13.7181 31.2379 13.7181 30.2978V10.8444C13.7181 9.90433 12.9561 9.14222 12.0161 9.14222Z" fill="#94DCD9"/>
<path d="M20.9927 4.57333H20.1528C19.122 4.57333 18.2863 5.40907 18.2863 6.44V30.1333C18.2863 31.1643 19.122 32 20.1528 32H20.9927C22.0234 32 22.8591 31.1643 22.8591 30.1333V6.44C22.8591 5.40907 22.0234 4.57333 20.9927 4.57333Z" fill="#B9D54D"/>
<path d="M29.9825 0H29.4448C28.3306 0 27.4273 0.90339 27.4273 2.01778V29.9822C27.4273 31.0966 28.3306 32 29.4448 32H29.9825C31.0967 32 32 31.0966 32 29.9822V2.01778C32 0.90339 31.0967 0 29.9825 0Z" fill="#52ACA1"/>
</svg>
