<svg width="32" height="32" viewBox="0 0 32 32" fill="none" xmlns="http://www.w3.org/2000/svg">
<path d="M15.5594 8.09333C14.675 8.09333 13.9595 7.37778 13.9595 6.49333V1.6C13.9595 0.715555 14.675 0 15.5594 0C16.4439 0 17.1594 0.715555 17.1594 1.6V6.49333C17.1594 7.37778 16.4439 8.09333 15.5594 8.09333Z" fill="#2D3B36"/>
<path d="M15.555 32C8.07975 32 2 25.92 2 18.4444C2 10.9689 8.07975 4.88889 15.555 4.88889C23.0302 4.88889 29.11 10.9689 29.11 18.4444C29.11 25.92 23.0302 32 15.555 32Z" fill="#BFEA6A"/>
<path d="M19.2615 23.3822C18.8793 23.3822 18.4971 23.2444 18.1905 22.9733L14.4884 19.64C14.1506 19.3378 13.9595 18.9022 13.9595 18.4489V11.7111C13.9595 10.8267 14.675 10.1111 15.5594 10.1111C16.4439 10.1111 17.1594 10.8267 17.1594 11.7111V17.7378L20.3326 20.5956C20.9903 21.1867 21.0437 22.2 20.4526 22.8533C20.137 23.2044 19.7015 23.3822 19.2615 23.3822Z" fill="#2D3B36"/>
<path d="M20.7014 3.2H10.413C9.5286 3.2 8.81303 2.48444 8.81303 1.6C8.81303 0.715555 9.5286 0 10.413 0H20.7014C21.5858 0 22.3014 0.715555 22.3014 1.6C22.3014 2.48444 21.5858 3.2 20.7014 3.2Z" fill="#BFEA6A"/>
</svg>
