<svg width="32" height="32" viewBox="0 0 32 32" fill="none" xmlns="http://www.w3.org/2000/svg">
<path d="M27.8329 27.443H12.7408C11.9252 27.443 11.2639 28.0725 11.2639 28.8491C11.2639 29.6256 11.9252 30.2552 12.7408 30.2552H27.8329C28.6486 30.2552 29.3098 29.6256 29.3098 28.8491C29.3098 28.0725 28.6486 27.443 27.8329 27.443Z" fill="#52ACA1"/>
<path d="M7.48435 29.5303L1.4676 30.9843C0.973847 31.1051 0.519432 30.701 0.602451 30.2218L1.65985 24.285C1.77783 23.6267 2.09681 23.0184 2.57745 22.5393L22.7032 2.36232C24.4422 0.616668 27.3392 0.545842 29.17 2.20817C31.0008 3.86632 31.075 6.62853 29.3316 8.37417L9.1666 28.5929C8.71218 29.0511 8.12666 29.3761 7.48435 29.5303Z" fill="#BFEA6A"/>
<path d="M27.2338 10.4728L20.6035 4.46088L19.4533 5.61416L26.0836 11.626L27.2338 10.4728Z" fill="#2D3B36"/>
<path d="M4.38204 30.226L1.4676 30.9843C0.973847 31.1051 0.519432 30.701 0.602451 30.2218L1.13554 27.218" fill="#52ACA1"/>
</svg>
