<svg width="33" height="32" viewBox="0 0 33 32" fill="none" xmlns="http://www.w3.org/2000/svg">
<path d="M28.4224 4.42004H4.34251C2.18121 4.42004 0.429104 6.1731 0.429104 8.3356V24.5045C0.429104 26.667 2.18121 28.42 4.34251 28.42H28.4224C30.5837 28.42 32.3358 26.667 32.3358 24.5045V8.3356C32.3358 6.1731 30.5837 4.42004 28.4224 4.42004Z" fill="#BFEA6A"/>
<path d="M32.3802 10.4512H0.380249V14.4778H32.3802V10.4512Z" fill="#2D3B36"/>
<path d="M13.3153 18.3178H5.61291C4.50159 18.3178 3.60068 19.2192 3.60068 20.3312C3.60068 21.4431 4.50159 22.3445 5.61291 22.3445H13.3153C14.4266 22.3445 15.3275 21.4431 15.3275 20.3312C15.3275 19.2192 14.4266 18.3178 13.3153 18.3178Z" fill="#2D3B36"/>
</svg>
