<svg width="32" height="32" viewBox="0 0 32 32" fill="none" xmlns="http://www.w3.org/2000/svg">
<path d="M22.5496 5.43674H3.13818C1.40501 5.43674 0 6.83226 0 8.55371V27.8338C0 29.5553 1.40501 30.9508 3.13818 30.9508H22.5496C24.2827 30.9508 25.6877 29.5553 25.6877 27.8338V8.55371C25.6877 6.83226 24.2827 5.43674 22.5496 5.43674Z" fill="#94DCD9"/>
<path d="M17.7 19.3395L13.9751 20.2754C13.6729 20.3505 13.3884 20.0944 13.4417 19.7854L14.0951 15.9576C14.1663 15.5338 14.3663 15.1408 14.6641 14.8318L27.119 1.82532C28.1947 0.699508 29.9861 0.655358 31.1195 1.72378C32.253 2.7922 32.2975 4.57143 31.2218 5.69724L18.7402 18.7302C18.4557 19.026 18.0956 19.2335 17.7 19.3351V19.3395Z" fill="#BFEA6A"/>
<path d="M29.9345 7.04349L25.8308 3.16746L25.1171 3.9129L29.2208 7.78893L29.9345 7.04349Z" fill="#2D3B36"/>
<path d="M15.7798 19.7898L13.9796 20.2799C13.6773 20.3549 13.3928 20.0988 13.4462 19.7898L13.7751 17.8516" fill="#52ACA1"/>
</svg>
