<svg width="32" height="32" viewBox="0 0 32 32" fill="none" xmlns="http://www.w3.org/2000/svg">
<g clip-path="url(#clip0_4_749)">
<path d="M28.0747 32H3.92529C1.75746 32 0 30.222 0 28.0288V13.4977C0 12.3018 0.526345 11.1781 1.44076 10.42C4.27321 8.09138 10.0095 3.47934 13.2746 0.861939C14.6931 -0.275277 16.6825 -0.284302 18.1143 0.839376C21.4374 3.45227 27.3476 8.09138 30.4477 10.4651C31.4291 11.2142 32 12.3875 32 13.6285V28.0333C32 30.2265 30.2425 32.0045 28.0747 32.0045V32Z" fill="#BFEA6A"/>
<path d="M4.3312 11.6881C4.3312 10.8171 4.7148 9.99577 5.38389 9.44521C7.44912 7.7439 11.6331 4.37738 14.0106 2.46848C15.0454 1.63813 16.4996 1.63362 17.5389 2.45043C19.961 4.35933 24.2743 7.73939 26.5358 9.47229C27.2495 10.0183 27.6688 10.8712 27.6688 11.7783" fill="#52ACA1"/>
</g>
<defs>
<clipPath id="clip0_4_749">
<rect width="32" height="32" fill="white"/>
</clipPath>
</defs>
</svg>
