<svg width="32" height="32" viewBox="0 0 32 32" fill="none" xmlns="http://www.w3.org/2000/svg">
<path d="M11.0525 32C8.75028 32 6.44361 31.1244 4.6925 29.3689C1.10584 25.7822 1.10584 19.9511 4.6925 16.3644L19.0569 2.00444C20.3458 0.711111 22.0658 0 23.8925 0C25.7192 0 27.4347 0.711111 28.7281 2.00444C30.0214 3.29778 30.7325 5.01333 30.7325 6.84C30.7325 8.66667 30.0214 10.3822 28.7281 11.6756L15.0303 25.3733C13.2436 27.16 10.3369 27.16 8.55472 25.3733C6.76806 23.5867 6.76806 20.68 8.55472 18.8978L18.1503 9.30222C18.7769 8.67556 19.7858 8.67556 20.4125 9.30222C21.0392 9.92889 21.0392 10.9422 20.4125 11.5644L10.8169 21.16C10.2792 21.6978 10.2792 22.5733 10.8169 23.1111C11.3547 23.6489 12.2303 23.6489 12.7681 23.1111L26.4658 9.41333C27.1547 8.72445 27.5325 7.81333 27.5325 6.84C27.5325 5.86667 27.1547 4.95556 26.4658 4.26667C25.7769 3.57778 24.8658 3.2 23.8925 3.2C22.9192 3.2 22.0081 3.57778 21.3192 4.26667L6.95472 18.6267C4.61695 20.9644 4.61695 24.7689 6.95472 27.1067C8.04806 28.2 9.50584 28.8044 11.0525 28.8044C12.5992 28.8044 14.0569 28.2 15.1503 27.1067L25.5503 16.7067C26.1769 16.08 27.1858 16.08 27.8125 16.7067C28.4392 17.3333 28.4392 18.3467 27.8125 18.9689L17.4125 29.3689C15.6569 31.1244 13.3547 32 11.0525 32Z" fill="#BFEA6A"/>
</svg>
