<svg width="32" height="32" viewBox="0 0 32 32" fill="none" xmlns="http://www.w3.org/2000/svg">
<path d="M28.3868 7.4L21.0189 0H8.35213C6.19005 0 4.44 1.75556 4.44 3.92444V28.0756C4.44 30.2444 6.19005 32 8.35213 32H24.5101C26.6722 32 28.4223 30.2444 28.4223 28.0756" fill="#BFEA6A"/>
<path d="M28.44 7.45333H21.0101V0" fill="#52ACA1"/>
<path d="M19.3575 9.33778H8.48061C7.979 9.33778 7.57237 9.7447 7.57237 10.2467C7.57237 10.7486 7.979 11.1556 8.48061 11.1556H19.3575C19.8591 11.1556 20.2657 10.7486 20.2657 10.2467C20.2657 9.7447 19.8591 9.33778 19.3575 9.33778Z" fill="#52ACA1"/>
<path d="M24.7361 18.9422H8.48061C7.979 18.9422 7.57237 19.3491 7.57237 19.8511C7.57237 20.3531 7.979 20.76 8.48061 20.76H24.7361C25.2377 20.76 25.6444 20.3531 25.6444 19.8511C25.6444 19.3491 25.2377 18.9422 24.7361 18.9422Z" fill="#52ACA1"/>
<path d="M24.7361 14.16H8.48061C7.979 14.16 7.57237 14.5669 7.57237 15.0689C7.57237 15.5709 7.979 15.9778 8.48061 15.9778H24.7361C25.2377 15.9778 25.6444 15.5709 25.6444 15.0689C25.6444 14.5669 25.2377 14.16 24.7361 14.16Z" fill="#52ACA1"/>
<path d="M24.7361 23.7689H8.48061C7.979 23.7689 7.57237 24.1758 7.57237 24.6778C7.57237 25.1797 7.979 25.5867 8.48061 25.5867H24.7361C25.2377 25.5867 25.6444 25.1797 25.6444 24.6778C25.6444 24.1758 25.2377 23.7689 24.7361 23.7689Z" fill="#52ACA1"/>
</svg>
