<svg width="33" height="32" viewBox="0 0 33 32" fill="none" xmlns="http://www.w3.org/2000/svg">
<path d="M30.9461 25.5887H27.3228L23.0851 21.4139L19.5829 25.5887H13.6905L10.2511 21.4139L6.93715 25.5887H2.1434V6.61607L19.8295 6.31115L30.9461 14.598V25.5887Z" fill="#BFEA6A"/>
<path d="M11.8744 6.05564H8.67257V3.75076C8.67257 2.86737 9.39004 2.1499 10.2734 2.1499C11.1569 2.1499 11.8744 2.86737 11.8744 3.75076V6.05564Z" fill="#52ACA1"/>
<path d="M31.4574 14.468L20.4752 5.29333C20.0717 4.95701 19.5649 4.77316 19.0403 4.77316H2.2959C1.17483 4.77316 0.26001 5.68794 0.26001 6.80899V24.6651C0.26001 25.7861 1.17483 26.7009 2.2959 26.7009H5.77124C5.64568 26.3198 5.56046 25.9162 5.53356 25.4992C5.52011 25.4095 5.51111 25.3108 5.51111 25.2077C5.51111 24.84 5.55597 24.4857 5.63669 24.1404H2.82053V7.33364H18.9237L29.6995 16.3379V24.1404H27.9103C27.991 24.4857 28.0358 24.84 28.0358 25.2077C28.0358 25.3108 28.0268 25.4095 28.0134 25.5081C27.9865 25.9207 27.9058 26.3198 27.7802 26.7009H30.2242C31.3452 26.7009 32.26 25.7861 32.26 24.6651V16.1855C32.26 15.5218 31.9686 14.894 31.4574 14.468Z" fill="#BFEA6A"/>
<path d="M18.5156 25.2077C18.5156 24.84 18.5605 24.4857 18.6412 24.1404H14.9103C14.991 24.4857 15.0358 24.84 15.0358 25.2077C15.0358 25.3108 15.0268 25.4095 15.0134 25.5081C14.9865 25.9251 14.9058 26.3198 14.7802 26.7009H18.7757C18.6502 26.3198 18.565 25.9162 18.538 25.4992C18.5246 25.4095 18.5156 25.3108 18.5156 25.2077Z" fill="#BFEA6A"/>
<path d="M27.9147 24.1404C27.4304 22.0284 25.538 20.4455 23.2779 20.4455C21.0178 20.4455 19.13 22.0284 18.6412 24.1404C18.5605 24.4857 18.5156 24.84 18.5156 25.2077C18.5156 25.3108 18.5246 25.4095 18.538 25.4992C18.565 25.9162 18.6457 26.3198 18.7757 26.7009C19.4035 28.6067 21.1927 29.9699 23.2779 29.9699C25.3631 29.9699 27.1524 28.6022 27.7802 26.7009C27.9058 26.3242 27.9865 25.9251 28.0134 25.5081C28.0268 25.4095 28.0358 25.3108 28.0358 25.2077C28.0358 24.84 27.991 24.4857 27.9103 24.1404H27.9147ZM23.2779 27.4094C22.6501 27.4094 22.0851 27.1359 21.686 26.7009C21.3497 26.3377 21.13 25.8713 21.0986 25.3422C21.0986 25.2839 21.0896 25.2301 21.0807 25.1628C21.0896 24.7906 21.1973 24.4454 21.3677 24.1404C21.7444 23.4678 22.4573 23.0059 23.2824 23.0059C24.1075 23.0059 24.8205 23.4678 25.1972 24.1404C25.3676 24.4454 25.4797 24.7906 25.4842 25.1628C25.4753 25.2211 25.4708 25.2794 25.4663 25.3422C25.4349 25.8713 25.2107 26.3377 24.8789 26.7009C24.4798 27.1359 23.9147 27.4094 23.2869 27.4094H23.2779Z" fill="#52ACA1"/>
<path d="M10.2779 20.4455C8.01784 20.4455 6.12997 22.0284 5.64118 24.1404C5.56046 24.4857 5.5156 24.84 5.5156 25.2077C5.5156 25.3108 5.52459 25.4095 5.53805 25.4992C5.56495 25.9162 5.64568 26.3198 5.77573 26.7009C6.40353 28.6067 8.19273 29.9699 10.2779 29.9699C12.3631 29.9699 14.1524 28.6022 14.7802 26.7009C14.9058 26.3242 14.9865 25.9251 15.0134 25.5081C15.0268 25.4095 15.0358 25.3108 15.0358 25.2077C15.0358 24.84 14.991 24.4857 14.9103 24.1404C14.426 22.0284 12.5335 20.4455 10.2734 20.4455H10.2779ZM10.2779 27.4094C9.65013 27.4094 9.08514 27.1359 8.68604 26.7009C8.34972 26.3377 8.12995 25.8669 8.09408 25.3377C8.09408 25.2839 8.08515 25.2301 8.07618 25.1628C8.08515 24.7906 8.19278 24.4454 8.36318 24.1404C8.73986 23.4678 9.45282 23.0059 10.2779 23.0059C11.103 23.0059 11.8116 23.4678 12.1927 24.1404C12.3631 24.4454 12.4753 24.7906 12.4797 25.1628C12.4708 25.2211 12.4663 25.2794 12.4618 25.3422C12.4304 25.8713 12.2062 26.3377 11.8744 26.7009C11.4753 27.1359 10.9102 27.4094 10.2824 27.4094H10.2779Z" fill="#52ACA1"/>
<path d="M32.2555 17.015H23.4618C20.5066 17.015 18.1121 14.625 18.1121 11.6699V4.77316C19.2017 4.77316 19.8385 4.71935 20.6591 5.43234C21.825 6.44577 24.7264 8.87621 24.7264 8.87621C26.1076 10.0107 30.2107 13.4008 31.4349 14.4187C32.2286 15.0823 32.2825 15.8357 32.2421 16.8312L32.2555 17.015Z" fill="#52ACA1"/>
<path d="M9.5425 10.1049H10.2107C10.7333 10.1049 11.1569 10.5285 11.1569 11.051V12.773H12.8744C13.3969 12.773 13.8205 13.1966 13.8205 13.7191V14.3873C13.8205 14.9098 13.3969 15.3334 12.8744 15.3334H11.1569V17.0509C11.1569 17.5735 10.7333 17.9971 10.2107 17.9971H9.5425C9.01994 17.9971 8.59632 17.5735 8.59632 17.0509V15.3334H6.87436C6.3518 15.3334 5.92818 14.9098 5.92818 14.3873V13.7191C5.92818 13.1966 6.3518 12.773 6.87436 12.773H8.59632V11.051C8.59632 10.5285 9.01994 10.1049 9.5425 10.1049Z" fill="#52ACA1"/>
</svg>
