<svg width="32" height="33" viewBox="0 0 32 33" fill="none" xmlns="http://www.w3.org/2000/svg">
<path d="M6.65797 9.51884H6.65352C5.60776 9.51884 4.76001 10.3665 4.76001 11.4122V30.9366C4.76001 31.9823 5.60776 32.83 6.65352 32.83H6.65797C7.70372 32.83 8.55147 31.9823 8.55147 30.9366V11.4122C8.55147 10.3665 7.70372 9.51884 6.65797 9.51884Z" fill="#2D3B36"/>
<path d="M7.61359 18.4566H26.1486C26.9976 18.4566 27.5487 17.5588 27.1665 16.7988L23.5306 9.64773H4.76446V15.6033C4.76446 17.1766 6.04012 18.4522 7.61359 18.4522V18.4566Z" fill="#BFEA6A"/>
<path d="M4.76001 9.63884H23.5262L27.162 2.48773C27.5487 1.72773 26.9976 0.829956 26.1441 0.829956H7.60917C6.0357 0.829956 4.76001 2.10551 4.76001 3.67884V9.63884Z" fill="#BFEA6A"/>
</svg>
