<svg width="32" height="33" viewBox="0 0 32 33" fill="none" xmlns="http://www.w3.org/2000/svg">
<path d="M15.5057 32.1025H15.9447C15.9576 32.1025 15.9705 32.1025 15.9833 32.1025H27.3376C28.0409 32.1025 28.6099 31.5335 28.6099 30.83C28.6099 30.1266 28.0409 29.5576 27.3376 29.5576H22.1066C23.7011 27.9729 24.6899 25.7789 24.6899 23.3569V19.7098C24.6899 15.3594 21.5 11.7392 17.3335 11.0717C16.8766 11 15.9402 13.5045 15.9402 13.5045C19.363 13.5045 22.1452 16.2868 22.1452 19.7098V23.3569C22.1452 26.6996 19.492 29.4313 16.18 29.5576H15.2659C11.9539 29.4313 9.30073 26.6996 9.30073 23.3569H6.76056C6.76056 25.7775 7.74889 27.9722 9.34386 29.5576H4.46227C3.7589 29.5576 3.18994 30.1266 3.18994 30.83C3.18994 31.5335 3.7589 32.1025 4.46227 32.1025H15.4671C15.48 32.1025 15.4928 32.1025 15.5057 32.1025Z" fill="#52ACA1"/>
<path d="M11.1914 24.1005H5.29108C4.5877 24.1005 4.01875 23.5315 4.01875 22.8281C4.01875 22.1247 4.5877 21.5557 5.29108 21.5557H11.1914C11.8947 21.5557 12.4637 22.1247 12.4637 22.8281C12.4637 23.5315 11.8947 24.1005 11.1914 24.1005Z" fill="#BFEA6A"/>
<path d="M11.9754 18.6927L6.87258 13.5896C6.74713 13.4641 6.74713 13.258 6.87258 13.1281L17.226 2.77396C17.3515 2.64851 17.5576 2.64851 17.6875 2.77396L22.7903 7.87711C22.9158 8.00256 22.9158 8.20865 22.7903 8.33859L12.4368 18.6927C12.3114 18.8182 12.1053 18.8182 11.9754 18.6927Z" fill="#BFEA6A"/>
<path d="M23.8117 7.18265L18.3595 1.73003C17.9876 1.35816 17.9876 0.753313 18.3595 0.381442C18.7313 0.00957132 19.3361 0.00957132 19.708 0.381442L25.1602 5.83406C25.5321 6.20593 25.5321 6.81078 25.1602 7.18265C24.7884 7.55452 24.1836 7.55452 23.8117 7.18265Z" fill="#BFEA6A"/>
</svg>
