<svg width="33" height="32" viewBox="0 0 33 32" fill="none" xmlns="http://www.w3.org/2000/svg">
<path d="M20.3729 16.0622C21.4974 14.68 22.173 12.92 22.173 10.9956C22.173 6.55558 18.5772 2.96002 14.137 2.96002C9.69673 2.96002 6.10096 6.55558 6.10096 10.9956C6.10096 12.9156 6.77656 14.68 7.90107 16.0622C9.76785 15.0978 11.888 14.5511 14.137 14.5511C16.386 14.5511 18.5017 15.0978 20.3729 16.0622Z" fill="#94DCD9"/>
<path d="M20.3729 16.0622C18.8973 17.8756 16.6527 19.0311 14.137 19.0311C11.6213 19.0311 9.37671 17.8711 7.90107 16.0622C4.69644 17.7156 2.22962 20.6089 1.14067 24.1022C0.513966 26.1111 1.9985 28.16 4.10529 28.16H24.1731C26.2799 28.16 27.7644 26.1111 27.1377 24.1022C26.0443 20.6045 23.582 17.7156 20.3773 16.0622H20.3729Z" fill="#BFEA6A"/>
<path d="M14.137 19.0311C16.6527 19.0311 18.8973 17.8711 20.3729 16.0622C18.5061 15.0978 16.386 14.5511 14.137 14.5511C11.888 14.5511 9.77229 15.0978 7.90107 16.0622C9.37227 17.8756 11.6213 19.0311 14.137 19.0311Z" fill="#2D3B36"/>
<path d="M27.2755 14.7334C27.2755 15.3334 27.7644 15.8223 28.3645 15.8223C28.9645 15.8223 29.4534 15.3334 29.4534 14.7334V12.1511H31.9069C32.5069 12.1511 32.9958 11.6623 32.9958 11.0623C32.9958 10.4623 32.5069 9.97337 31.9069 9.97337H29.4534V7.39114C29.4534 6.79114 28.9645 6.30225 28.3645 6.30225C27.7644 6.30225 27.2755 6.79114 27.2755 7.39114V9.97337H24.6709C24.0709 9.97337 23.582 10.4623 23.582 11.0623C23.582 11.6623 24.0709 12.1511 24.6709 12.1511H27.2755V14.7334Z" fill="#2D3B36"/>
</svg>
