<svg width="33" height="32" viewBox="0 0 33 32" fill="none" xmlns="http://www.w3.org/2000/svg">
<path d="M19.7487 8.31465V4.65909C19.7487 3.98784 19.2 3.43906 18.5288 3.43906H13.785C13.1138 3.43906 12.565 3.98784 12.565 4.65909V8.31465H10.4607V4.65909C10.4607 2.82677 11.9528 1.33008 13.7895 1.33008H18.5333C20.3655 1.33008 21.8621 2.82224 21.8621 4.65909V8.31465H19.7487Z" fill="#BFEA6A"/>
<path d="M28.4471 6.89959H4.29291C2.12635 6.89959 0.369995 8.65605 0.369995 10.8227V27.0369C0.369995 29.2036 2.12635 30.9601 4.29291 30.9601H28.4471C30.6137 30.9601 32.37 29.2036 32.37 27.0369V10.8227C32.37 8.65605 30.6137 6.89959 28.4471 6.89959Z" fill="#BFEA6A"/>
<path d="M16.4108 18.7643L0.569515 10.5869C0.569515 8.44618 2.3065 6.70457 4.45163 6.70457H28.3247C30.4653 6.70457 32.2067 8.44164 32.2067 10.5869L16.4154 18.7643C16.4154 20.1914 16.4154 20.1914 16.4154 18.7643H16.4108Z" fill="#52ACA1"/>
</svg>
