<svg width="32" height="32" viewBox="0 0 32 32" fill="none" xmlns="http://www.w3.org/2000/svg">
<g clip-path="url(#clip0_4_741)">
<path d="M19.4194 17.323C18.7704 16.6849 17.7189 16.6842 17.0708 17.3214C16.4227 17.9586 16.4234 18.9925 17.0724 19.6306L29.1658 31.521C29.8148 32.1591 30.8663 32.1598 31.5144 31.5225C32.1625 30.8853 32.1618 29.8515 31.5128 29.2134L19.4194 17.323Z" fill="#2D3B36"/>
<path d="M12.1946 23.9798C18.9295 23.9798 24.3893 18.6118 24.3893 11.9899C24.3893 5.36807 18.9295 0 12.1946 0C5.45972 0 0 5.36807 0 11.9899C0 18.6118 5.45972 23.9798 12.1946 23.9798Z" fill="#B9D54D"/>
<path d="M12.1946 20.887C17.1922 20.887 21.2436 16.9036 21.2436 11.9899C21.2436 7.07621 17.1922 3.09287 12.1946 3.09287C7.19703 3.09287 3.14568 7.07621 3.14568 11.9899C3.14568 16.9036 7.19703 20.887 12.1946 20.887Z" fill="#BFEA6A"/>
</g>
<defs>
<clipPath id="clip0_4_741">
<rect width="32" height="32" fill="white"/>
</clipPath>
</defs>
</svg>
