<svg width="32" height="32" viewBox="0 0 32 32" fill="none" xmlns="http://www.w3.org/2000/svg">
<path d="M18.4561 23.7531L27.6533 29.4854V29.4899C29.8533 30.2154 32 28.0749 32 25.1456V4.48789C32 1.55867 29.8578 -0.586415 27.6533 0.143636L18.4489 5.88038H3.82666V5.88489C1.71555 5.88489 0 7.6244 0 9.76498V19.873C0 22.0136 1.71555 23.7531 3.82666 23.7531H18.4561Z" fill="#BFEA6A"/>
<path d="M18.6133 5.79028H15.7644V23.636H18.6133V5.79028Z" fill="#52ACA1"/>
<path d="M13.7511 23.8027V29.7648C13.7511 30.9996 12.7644 32 11.5467 32H10.9244C9.70665 32 8.72 30.9996 8.72 29.7648V23.8027H13.7511Z" fill="#2D3B36"/>
</svg>
