<svg width="32" height="32" viewBox="0 0 32 32" fill="none" xmlns="http://www.w3.org/2000/svg">
<path d="M7.68549 28.1154C7.2891 28.1154 6.91017 27.8802 6.749 27.4883C6.53556 26.9701 6.7795 26.3778 7.29786 26.16L21.0452 20.4377C21.5636 20.2243 22.156 20.4682 22.3738 20.9864C22.5872 21.5046 22.3433 22.0969 21.8249 22.3146L8.07753 28.037C7.95121 28.0893 7.81617 28.1154 7.68985 28.1154H7.68549Z" fill="#52ACA1"/>
<path d="M11.5666 31.3555C11.1702 31.3555 10.7956 31.1247 10.6301 30.7371C10.4123 30.2188 10.6519 29.6266 11.1702 29.4088L22.9836 24.4137C23.5019 24.196 24.0944 24.4355 24.3122 24.9537C24.5299 25.472 24.2904 26.0642 23.772 26.282L11.9587 31.2771C11.828 31.3337 11.6973 31.3598 11.5623 31.3598L11.5666 31.3555Z" fill="#52ACA1"/>
<path d="M12.4248 16.1176C12.0153 16.1176 11.632 15.8694 11.4752 15.4643C11.2748 14.9418 11.5362 14.3538 12.0589 14.1535L17.7739 11.963C18.2966 11.7627 18.8847 12.024 19.085 12.5465C19.2854 13.0691 19.0241 13.657 18.5013 13.8574L12.7863 16.0479C12.6687 16.0958 12.5424 16.1176 12.4248 16.1176Z" fill="#52ACA1"/>
<path d="M10.3296 21.975C9.92446 21.975 9.54111 21.7311 9.3843 21.3304C9.17957 20.8078 9.4366 20.2199 9.95931 20.0152L19.7732 16.1568C20.2959 15.9521 20.884 16.209 21.0887 16.7316C21.2935 17.2542 21.0365 17.8421 20.5138 18.0468L10.6998 21.9053C10.5778 21.9532 10.4515 21.975 10.3296 21.975Z" fill="#52ACA1"/>
<path d="M15.5262 32C12.7776 32 10.1074 31.4034 7.52865 30.2101C6.40482 29.6875 5.88648 28.1938 6.40484 26.9483L14.0582 8.41372C14.3544 7.6908 15.0514 7.22482 15.8311 7.22482C16.6108 7.22482 17.3078 7.6908 17.6083 8.41372L25.24 26.8917C25.7714 28.1807 25.2225 29.6919 24.0334 30.184C21.1323 31.3947 18.2878 31.9956 15.5218 31.9956L15.5262 32ZM15.8355 9.43713L8.28223 27.7235C8.16461 28.0152 8.29099 28.3244 8.38682 28.368C13.0825 30.5455 17.9481 30.528 23.258 28.3157C23.3495 28.2765 23.4888 27.9586 23.3669 27.6712L15.8355 9.44148V9.43713Z" fill="#BFEA6A"/>
<path d="M15.7571 10.9657C14.8685 10.9657 14.6899 9.97278 14.52 9.0147C14.4982 8.90147 14.4764 8.76211 14.4459 8.62275C14.3196 8.7055 14.189 8.79695 14.0888 8.86663C13.3047 9.411 12.4945 9.97714 11.8759 9.35874C11.2574 8.74034 11.8193 7.93032 12.3681 7.14643C12.4378 7.04627 12.5293 6.91562 12.6121 6.78933C12.4727 6.7632 12.3333 6.73707 12.22 6.71965C11.2617 6.54981 10.2686 6.37561 10.2686 5.48285C10.2686 4.59009 11.2617 4.4159 12.22 4.24605C12.3333 4.22428 12.4727 4.2025 12.6121 4.17202C12.5293 4.04573 12.4378 3.91508 12.3681 3.81492C11.8236 3.03103 11.2574 2.22101 11.8759 1.60261C12.4945 0.984213 13.3047 1.546 14.0888 2.09472C14.189 2.1644 14.3196 2.25585 14.4459 2.3386C14.4721 2.19924 14.4982 2.05988 14.52 1.94665C14.6942 0.992923 14.8685 0 15.7571 0C16.6457 0 16.8243 0.992923 16.9942 1.95101C17.0159 2.06423 17.0377 2.20359 17.0682 2.34295C17.1945 2.26021 17.3253 2.16875 17.4254 2.09907C18.2095 1.55471 19.0197 0.988568 19.6382 1.60697C20.2568 2.22537 19.6905 3.03538 19.146 3.81927C19.0763 3.91943 18.9848 4.05008 18.9021 4.17637C19.0414 4.2025 19.1809 4.22863 19.2941 4.25041C20.2524 4.42025 21.2456 4.59445 21.2456 5.48721C21.2456 6.37997 20.2524 6.55416 19.2941 6.72401C19.1809 6.74578 19.0414 6.76756 18.9021 6.79369C18.9848 6.91998 19.0763 7.05063 19.146 7.15079C19.6905 7.93468 20.2568 8.74469 19.6382 9.36309C19.0197 9.98149 18.2095 9.41971 17.4254 8.87099C17.3253 8.80131 17.1945 8.70985 17.0682 8.62711C17.0421 8.76647 17.0159 8.90582 16.9942 9.01905C16.8243 9.97714 16.65 10.9701 15.7571 10.9701V10.9657Z" fill="#52ACA1"/>
</svg>
