<svg width="33" height="32" viewBox="0 0 33 32" fill="none" xmlns="http://www.w3.org/2000/svg">
<path d="M25.2952 4.69336H4.37945C2.51061 4.69336 0.995605 6.18773 0.995605 8.03113V28.6622C0.995605 30.5056 2.51061 32 4.37945 32H25.2952C27.1641 32 28.6791 30.5056 28.6791 28.6622V8.03113C28.6791 6.18773 27.1641 4.69336 25.2952 4.69336Z" fill="#94DCD9"/>
<path d="M25.7999 10.4578C25.7999 11.2044 26.4127 11.8089 27.1697 11.8089V11.8133C27.9266 11.8133 28.5394 11.2089 28.5394 10.4622V7.25332H31.6259C32.3829 7.25332 32.9956 6.64888 32.9956 5.90221C32.9956 5.15555 32.3829 4.5511 31.6259 4.5511H28.5394V1.35111C28.5394 0.604444 27.9266 0 27.1697 0C26.4127 0 25.7999 0.604444 25.7999 1.35111V4.5511H22.5197C21.7627 4.5511 21.1499 5.15555 21.1499 5.90221C21.1499 6.64888 21.7627 7.25332 22.5197 7.25332H25.7999V10.4578Z" fill="#2D3B36"/>
</svg>
