<svg width="32" height="32" viewBox="0 0 32 32" fill="none" xmlns="http://www.w3.org/2000/svg">
<path d="M13.9027 26.8659C13.3027 26.8659 12.7116 26.6392 12.2538 26.2125L7.8536 22.0607C7.70248 21.9185 7.50692 21.8429 7.30247 21.8429H4.00459C1.79562 21.8429 0 20.0471 0 17.8378V14.4551C0 12.2458 1.79562 10.45 4.00459 10.45H7.30247C7.50692 10.45 7.70693 10.37 7.8536 10.2322L12.2538 6.0804C12.9516 5.42252 13.9738 5.24027 14.8538 5.62255C15.7339 6.00484 16.3028 6.86719 16.3028 7.82735V24.4744C16.3028 25.4346 15.7339 26.3014 14.8538 26.6792C14.5472 26.8126 14.2227 26.8748 13.9027 26.8748V26.8659Z" fill="#BFEA6A"/>
<path d="M18.9029 22.4564C19.2179 22.767 19.6259 22.9225 20.034 22.9231H20.0318H20.0363H20.034C20.4466 22.9225 20.8546 22.767 21.1652 22.4564L25.2164 18.4046L29.2677 22.4564C29.5827 22.767 29.9907 22.9225 30.3989 22.9231H30.3966H30.4011H30.3989C30.8114 22.9225 31.2194 22.767 31.53 22.4564C32.1567 21.8296 32.1567 20.8205 31.53 20.1938L27.4787 16.142L31.53 12.0903C32.1567 11.4635 32.1567 10.4545 31.53 9.82768C30.9033 9.20092 29.8944 9.20092 29.2677 9.82768L25.2164 13.8794L21.1652 9.82768C20.5385 9.20092 19.5296 9.20092 18.9029 9.82768C18.2762 10.4545 18.2762 11.4635 18.9029 12.0903L22.9541 16.142L18.9029 20.1938C18.2762 20.8205 18.2762 21.8296 18.9029 22.4564Z" fill="#52ACA1"/>
</svg>
